<svg width="375" height="440" viewBox="0 0 375 440" fill="none" xmlns="http://www.w3.org/2000/svg">
<path d="M64.789 435.945H86.662C86.8207 435.939 86.9707 435.871 87.0807 435.756C87.1908 435.642 87.2522 435.489 87.2522 435.33C87.2522 435.172 87.1908 435.019 87.0807 434.904C86.9707 434.79 86.8207 434.722 86.662 434.716H64.789C64.6303 434.722 64.4803 434.79 64.3702 434.904C64.2602 435.019 64.1988 435.172 64.1988 435.33C64.1988 435.489 64.2602 435.642 64.3702 435.756C64.4803 435.871 64.6303 435.939 64.789 435.945Z" fill="#161616"/>
<path d="M160.926 435.207H177.146C177.305 435.201 177.455 435.133 177.565 435.018C177.675 434.904 177.736 434.751 177.736 434.592C177.736 434.434 177.675 434.281 177.565 434.166C177.455 434.052 177.305 433.984 177.146 433.978H160.926C160.763 433.978 160.607 434.043 160.492 434.158C160.376 434.273 160.312 434.429 160.312 434.592C160.312 434.755 160.376 434.912 160.492 435.027C160.607 435.142 160.763 435.207 160.926 435.207Z" fill="#161616"/>
<path d="M185.009 434.471H194.43C194.589 434.465 194.739 434.397 194.849 434.282C194.959 434.168 195.02 434.015 195.02 433.856C195.02 433.698 194.959 433.545 194.849 433.43C194.739 433.316 194.589 433.248 194.43 433.242H185.009C184.85 433.248 184.7 433.316 184.59 433.43C184.48 433.545 184.419 433.698 184.419 433.856C184.419 434.015 184.48 434.168 184.59 434.282C184.7 434.397 184.85 434.465 185.009 434.471Z" fill="#161616"/>
<path d="M146.424 385.36H68.64C67.3377 385.356 66.0899 384.837 65.169 383.916C64.2481 382.995 63.729 381.747 63.725 380.445V377.905C63.729 376.603 64.2481 375.355 65.169 374.434C66.0899 373.513 67.3377 372.994 68.64 372.99H146.424C147.726 372.994 148.974 373.513 149.895 374.434C150.816 375.355 151.335 376.603 151.339 377.905V380.445C151.335 381.747 150.816 382.995 149.895 383.916C148.974 384.837 147.726 385.356 146.424 385.36V385.36Z" stroke="white" stroke-width="0.637" stroke-miterlimit="10"/>
<path d="M154.043 398.385H76.259C74.9567 398.381 73.7088 397.862 72.7879 396.941C71.867 396.02 71.348 394.772 71.344 393.47V390.93C71.348 389.628 71.867 388.38 72.7879 387.459C73.7088 386.538 74.9567 386.019 76.259 386.015H154.043C155.345 386.019 156.593 386.538 157.514 387.459C158.435 388.38 158.954 389.628 158.958 390.93V393.47C158.954 394.772 158.435 396.02 157.514 396.941C156.593 397.862 155.345 398.381 154.043 398.385V398.385Z" stroke="white" stroke-width="0.637" stroke-miterlimit="10"/>
<path d="M136.102 411.083H58.318C57.0157 411.079 55.7678 410.56 54.847 409.639C53.9261 408.718 53.407 407.47 53.403 406.168V403.628C53.407 402.326 53.9261 401.078 54.847 400.157C55.7678 399.236 57.0157 398.717 58.318 398.713H136.102C137.404 398.717 138.652 399.236 139.573 400.157C140.494 401.078 141.013 402.326 141.017 403.628V406.168C141.013 407.47 140.494 408.718 139.573 409.639C138.652 410.56 137.404 411.079 136.102 411.083Z" fill="#0CF2B4" stroke="white" stroke-width="0.637" stroke-miterlimit="10"/>
<path d="M145.605 423.042H67.862C66.5597 423.038 65.3119 422.519 64.391 421.598C63.4701 420.677 62.951 419.429 62.947 418.127V415.587C62.951 414.285 63.4701 413.037 64.391 412.116C65.3119 411.195 66.5597 410.676 67.862 410.672H145.644C146.946 410.676 148.194 411.195 149.115 412.116C150.036 413.037 150.555 414.285 150.559 415.587V418.127C150.539 419.431 150.009 420.675 149.084 421.594C148.158 422.512 146.909 423.032 145.605 423.042V423.042Z" stroke="white" stroke-width="0.637" stroke-miterlimit="10"/>
<path d="M154.043 435.413H76.259C74.9567 435.409 73.7088 434.89 72.7879 433.969C71.867 433.048 71.348 431.8 71.344 430.498V427.958C71.348 426.656 71.867 425.408 72.7879 424.487C73.7088 423.566 74.9567 423.047 76.259 423.043H154.043C155.345 423.047 156.593 423.566 157.514 424.487C158.435 425.408 158.954 426.656 158.958 427.958V430.498C158.954 431.8 158.435 433.048 157.514 433.969C156.593 434.89 155.345 435.409 154.043 435.413V435.413Z" stroke="white" stroke-width="0.637" stroke-miterlimit="10"/>
<path d="M123.691 378.313V383.392C123.699 383.512 123.752 383.624 123.839 383.706C123.927 383.788 124.042 383.833 124.162 383.833C124.282 383.833 124.397 383.788 124.485 383.706C124.572 383.624 124.625 383.512 124.633 383.392V378.313C124.633 378.188 124.583 378.068 124.495 377.98C124.407 377.892 124.287 377.842 124.162 377.842C124.037 377.842 123.917 377.892 123.829 377.98C123.741 378.068 123.691 378.188 123.691 378.313Z" fill="#161616"/>
<path d="M126.435 379.215V383.844C126.443 383.964 126.496 384.076 126.583 384.158C126.671 384.24 126.786 384.285 126.906 384.285C127.026 384.285 127.141 384.24 127.229 384.158C127.316 384.076 127.369 383.964 127.377 383.844V379.215C127.366 379.098 127.312 378.988 127.225 378.909C127.138 378.829 127.024 378.785 126.906 378.785C126.788 378.785 126.674 378.829 126.587 378.909C126.5 378.988 126.446 379.098 126.435 379.215Z" fill="#161616"/>
<path d="M135.692 376.675V383.147C135.7 383.267 135.753 383.379 135.84 383.461C135.928 383.543 136.043 383.588 136.163 383.588C136.283 383.588 136.398 383.543 136.486 383.461C136.573 383.379 136.626 383.267 136.634 383.147V376.675C136.623 376.558 136.569 376.448 136.482 376.369C136.395 376.289 136.281 376.245 136.163 376.245C136.045 376.245 135.931 376.289 135.844 376.369C135.757 376.448 135.703 376.558 135.692 376.675Z" fill="#161616"/>
<path d="M137.535 380.362V382.902C137.543 383.022 137.596 383.134 137.683 383.216C137.771 383.298 137.886 383.343 138.006 383.343C138.126 383.343 138.241 383.298 138.329 383.216C138.416 383.134 138.469 383.022 138.477 382.902V380.362C138.466 380.245 138.412 380.135 138.325 380.056C138.238 379.976 138.124 379.932 138.006 379.932C137.888 379.932 137.774 379.976 137.687 380.056C137.6 380.135 137.546 380.245 137.535 380.362Z" fill="#161616"/>
<path d="M73.965 376.512V383.68C73.9728 383.799 74.0258 383.912 74.1133 383.994C74.2008 384.076 74.3162 384.121 74.436 384.121C74.5559 384.121 74.6713 384.076 74.7587 383.994C74.8462 383.912 74.8992 383.799 74.907 383.68V376.512C74.907 376.387 74.8574 376.267 74.7691 376.179C74.6807 376.091 74.5609 376.041 74.436 376.041C74.3111 376.041 74.1913 376.091 74.103 376.179C74.0147 376.267 73.965 376.387 73.965 376.512Z" fill="#161616"/>
<path d="M70.155 378.314V382.533C70.1628 382.653 70.2158 382.765 70.3033 382.847C70.3908 382.929 70.5062 382.974 70.626 382.974C70.7459 382.974 70.8613 382.929 70.9487 382.847C71.0362 382.765 71.0892 382.653 71.097 382.533V378.314C71.0862 378.197 71.0319 378.087 70.9447 378.008C70.8576 377.928 70.7439 377.884 70.626 377.884C70.5081 377.884 70.3944 377.928 70.3073 378.008C70.2202 378.087 70.1659 378.197 70.155 378.314Z" fill="#161616"/>
<path d="M85.475 376.797V382.531C85.4828 382.651 85.5358 382.763 85.6233 382.845C85.7107 382.927 85.8261 382.972 85.946 382.972C86.0659 382.972 86.1812 382.927 86.2687 382.845C86.3562 382.763 86.4092 382.651 86.417 382.531V376.797C86.417 376.672 86.3674 376.552 86.279 376.464C86.1907 376.376 86.0709 376.326 85.946 376.326C85.8211 376.326 85.7013 376.376 85.6129 376.464C85.5246 376.552 85.475 376.672 85.475 376.797Z" fill="#161616"/>
<path d="M81.256 380.154V383.963C81.2638 384.083 81.3168 384.195 81.4043 384.277C81.4917 384.359 81.6071 384.404 81.727 384.404C81.8468 384.404 81.9622 384.359 82.0497 384.277C82.1372 384.195 82.1902 384.083 82.198 383.963V380.154C82.198 380.029 82.1484 379.909 82.06 379.821C81.9717 379.733 81.8519 379.683 81.727 379.683C81.6021 379.683 81.4823 379.733 81.3939 379.821C81.3056 379.909 81.256 380.029 81.256 380.154Z" fill="#161616"/>
<path d="M102.719 376.921V384.376C102.727 384.496 102.78 384.608 102.867 384.69C102.955 384.772 103.07 384.817 103.19 384.817C103.31 384.817 103.425 384.772 103.513 384.69C103.6 384.608 103.653 384.496 103.661 384.376V376.921C103.65 376.804 103.596 376.694 103.509 376.615C103.422 376.535 103.308 376.491 103.19 376.491C103.072 376.491 102.958 376.535 102.871 376.615C102.784 376.694 102.73 376.804 102.719 376.921Z" fill="#161616"/>
<path d="M105.545 379.748V383.557C105.553 383.677 105.606 383.789 105.693 383.871C105.781 383.953 105.896 383.998 106.016 383.998C106.136 383.998 106.251 383.953 106.339 383.871C106.426 383.789 106.479 383.677 106.487 383.557V379.748C106.487 379.623 106.437 379.503 106.349 379.415C106.261 379.327 106.141 379.277 106.016 379.277C105.891 379.277 105.771 379.327 105.683 379.415C105.595 379.503 105.545 379.623 105.545 379.748Z" fill="#161616"/>
<path d="M109.723 376.348V383.803C109.731 383.922 109.784 384.035 109.871 384.117C109.959 384.199 110.074 384.244 110.194 384.244C110.314 384.244 110.429 384.199 110.517 384.117C110.604 384.035 110.657 383.922 110.665 383.803V376.348C110.654 376.23 110.6 376.121 110.513 376.042C110.426 375.962 110.312 375.918 110.194 375.918C110.076 375.918 109.962 375.962 109.875 376.042C109.788 376.121 109.734 376.23 109.723 376.348Z" fill="#161616"/>
<path d="M82.362 388.841V397.688C82.3698 397.808 82.4228 397.92 82.5103 398.002C82.5978 398.084 82.7131 398.129 82.833 398.129C82.9529 398.129 83.0682 398.084 83.1557 398.002C83.2432 397.92 83.2962 397.808 83.304 397.688V388.841C83.2932 388.724 83.2389 388.614 83.1517 388.535C83.0646 388.455 82.9509 388.411 82.833 388.411C82.7151 388.411 82.6014 388.455 82.5143 388.535C82.4271 388.614 82.3728 388.724 82.362 388.841Z" fill="#161616"/>
<path d="M87.441 391.79V398.098C87.4488 398.218 87.5018 398.33 87.5893 398.412C87.6767 398.494 87.7921 398.539 87.912 398.539C88.0319 398.539 88.1472 398.494 88.2347 398.412C88.3222 398.33 88.3752 398.218 88.383 398.098V391.79C88.342 391.217 87.441 391.217 87.441 391.79Z" fill="#161616"/>
<path d="M103.866 390.11V396.418C103.874 396.538 103.927 396.65 104.014 396.732C104.102 396.814 104.217 396.859 104.337 396.859C104.457 396.859 104.572 396.814 104.66 396.732C104.747 396.65 104.8 396.538 104.808 396.418V390.11C104.767 389.537 103.866 389.537 103.866 390.11Z" fill="#161616"/>
<path d="M114.516 387.857V398.097C114.524 398.217 114.577 398.329 114.664 398.411C114.752 398.493 114.867 398.538 114.987 398.538C115.107 398.538 115.222 398.493 115.31 398.411C115.397 398.329 115.45 398.217 115.458 398.097V387.857C115.417 387.284 114.516 387.284 114.516 387.857Z" fill="#161616"/>
<path d="M124.181 391.954V395.313C124.189 395.433 124.242 395.545 124.329 395.627C124.417 395.709 124.532 395.754 124.652 395.754C124.772 395.754 124.887 395.709 124.975 395.627C125.062 395.545 125.115 395.433 125.123 395.313V391.954C125.123 391.829 125.073 391.709 124.985 391.621C124.897 391.533 124.777 391.483 124.652 391.483C124.527 391.483 124.407 391.533 124.319 391.621C124.231 391.709 124.181 391.829 124.181 391.954Z" fill="#161616"/>
<path d="M62.987 402.193V410.344C62.9948 410.464 63.0478 410.576 63.1353 410.658C63.2228 410.74 63.3381 410.785 63.458 410.785C63.5779 410.785 63.6932 410.74 63.7807 410.658C63.8682 410.576 63.9212 410.464 63.929 410.344V402.193C63.929 402.068 63.8794 401.948 63.791 401.86C63.7027 401.772 63.5829 401.722 63.458 401.722C63.3331 401.722 63.2133 401.772 63.125 401.86C63.0366 401.948 62.987 402.068 62.987 402.193Z" fill="#161616"/>
<path d="M84.614 402.481V410.919C84.6218 411.039 84.6748 411.151 84.7623 411.233C84.8498 411.315 84.9651 411.36 85.085 411.36C85.2049 411.36 85.3203 411.315 85.4077 411.233C85.4952 411.151 85.5482 411.039 85.556 410.919V402.481C85.556 402.356 85.5064 402.236 85.4181 402.148C85.3297 402.06 85.2099 402.01 85.085 402.01C84.9601 402.01 84.8403 402.06 84.752 402.148C84.6636 402.236 84.614 402.356 84.614 402.481Z" fill="#161616"/>
<path d="M75.644 403.18V408.792C75.6518 408.912 75.7048 409.024 75.7923 409.106C75.8797 409.188 75.9951 409.233 76.115 409.233C76.2348 409.233 76.3502 409.188 76.4377 409.106C76.5252 409.024 76.5782 408.912 76.586 408.792V403.18C76.586 403.055 76.5364 402.935 76.448 402.847C76.3597 402.759 76.2399 402.709 76.115 402.709C75.9901 402.709 75.8703 402.759 75.7819 402.847C75.6936 402.935 75.644 403.055 75.644 403.18Z" fill="#161616"/>
<path d="M78.716 401.334V405.963C78.7238 406.083 78.7768 406.195 78.8643 406.277C78.9518 406.359 79.0671 406.404 79.187 406.404C79.3069 406.404 79.4222 406.359 79.5097 406.277C79.5972 406.195 79.6502 406.083 79.658 405.963V401.334C79.6472 401.217 79.5929 401.107 79.5057 401.028C79.4186 400.948 79.3049 400.904 79.187 400.904C79.0691 400.904 78.9554 400.948 78.8683 401.028C78.7811 401.107 78.7268 401.217 78.716 401.334Z" fill="#161616"/>
<path d="M108.494 401.498V410.059C108.502 410.179 108.555 410.291 108.642 410.373C108.73 410.455 108.845 410.5 108.965 410.5C109.085 410.5 109.2 410.455 109.288 410.373C109.375 410.291 109.428 410.179 109.436 410.059V401.498C109.436 401.373 109.386 401.253 109.298 401.165C109.21 401.077 109.09 401.027 108.965 401.027C108.84 401.027 108.72 401.077 108.632 401.165C108.544 401.253 108.494 401.373 108.494 401.498Z" fill="#161616"/>
<path d="M100.753 401.334V403.423C100.761 403.543 100.814 403.655 100.901 403.737C100.989 403.819 101.104 403.864 101.224 403.864C101.344 403.864 101.459 403.819 101.547 403.737C101.634 403.655 101.687 403.543 101.695 403.423V401.334C101.684 401.217 101.63 401.107 101.543 401.028C101.456 400.948 101.342 400.904 101.224 400.904C101.106 400.904 100.992 400.948 100.905 401.028C100.818 401.107 100.764 401.217 100.753 401.334Z" fill="#161616"/>
<path d="M126.845 398.835V406.986C126.853 407.106 126.906 407.218 126.993 407.3C127.081 407.382 127.196 407.427 127.316 407.427C127.436 407.427 127.551 407.382 127.639 407.3C127.726 407.218 127.779 407.106 127.787 406.986V398.835C127.787 398.71 127.737 398.59 127.649 398.502C127.561 398.414 127.441 398.364 127.316 398.364C127.191 398.364 127.071 398.414 126.983 398.502C126.895 398.59 126.845 398.71 126.845 398.835Z" fill="#161616"/>
<path d="M130.941 404.692V409.607C130.949 409.727 131.002 409.839 131.089 409.921C131.177 410.003 131.292 410.048 131.412 410.048C131.532 410.048 131.647 410.003 131.735 409.921C131.822 409.839 131.875 409.727 131.883 409.607V404.692C131.842 404.119 130.941 404.119 130.941 404.692Z" fill="#161616"/>
<path d="M116.195 401.334V408.502C116.203 408.622 116.256 408.734 116.343 408.816C116.431 408.898 116.546 408.943 116.666 408.943C116.786 408.943 116.901 408.898 116.989 408.816C117.076 408.734 117.129 408.622 117.137 408.502V401.334C117.126 401.217 117.072 401.107 116.985 401.028C116.898 400.948 116.784 400.904 116.666 400.904C116.548 400.904 116.434 400.948 116.347 401.028C116.26 401.107 116.206 401.217 116.195 401.334Z" fill="#161616"/>
<path d="M70.852 412.024V421.158C70.8598 421.278 70.9128 421.39 71.0003 421.472C71.0877 421.554 71.2031 421.599 71.323 421.599C71.4428 421.599 71.5582 421.554 71.6457 421.472C71.7332 421.39 71.7862 421.278 71.794 421.158V412.024C71.794 411.899 71.7444 411.779 71.656 411.691C71.5677 411.603 71.4479 411.553 71.323 411.553C71.1981 411.553 71.0783 411.603 70.9899 411.691C70.9016 411.779 70.852 411.899 70.852 412.024Z" fill="#161616"/>
<path d="M77.982 422.797V413.663C77.9742 413.543 77.9212 413.431 77.8337 413.349C77.7462 413.267 77.6309 413.222 77.511 413.222C77.3911 413.222 77.2757 413.267 77.1883 413.349C77.1008 413.431 77.0478 413.543 77.04 413.663V422.797C77.04 422.922 77.0896 423.042 77.1779 423.13C77.2663 423.218 77.3861 423.268 77.511 423.268C77.6359 423.268 77.7557 423.218 77.844 423.13C77.9324 423.042 77.982 422.922 77.982 422.797Z" fill="#161616"/>
<path d="M80.928 422.551V419.028C80.9202 418.908 80.8672 418.796 80.7797 418.714C80.6923 418.632 80.5769 418.587 80.457 418.587C80.3371 418.587 80.2218 418.632 80.1343 418.714C80.0468 418.796 79.9938 418.908 79.986 419.028V422.551C79.9969 422.668 80.0512 422.778 80.1383 422.857C80.2254 422.936 80.3391 422.98 80.457 422.98C80.5749 422.98 80.6886 422.936 80.7757 422.857C80.8629 422.778 80.9172 422.668 80.928 422.551Z" fill="#161616"/>
<path d="M87.441 411.327V420.871C87.4488 420.991 87.5018 421.103 87.5893 421.185C87.6767 421.267 87.7921 421.312 87.912 421.312C88.0319 421.312 88.1472 421.267 88.2347 421.185C88.3222 421.103 88.3752 420.991 88.383 420.871V411.327C88.383 411.202 88.3334 411.082 88.245 410.994C88.1567 410.906 88.0369 410.856 87.912 410.856C87.7871 410.856 87.6673 410.906 87.5789 410.994C87.4906 411.082 87.441 411.202 87.441 411.327Z" fill="#161616"/>
<path d="M89.816 415.797V420.297C89.8238 420.417 89.8768 420.529 89.9643 420.611C90.0517 420.693 90.1671 420.738 90.287 420.738C90.4069 420.738 90.5222 420.693 90.6097 420.611C90.6972 420.529 90.7502 420.417 90.758 420.297V415.797C90.717 415.224 89.816 415.224 89.816 415.797Z" fill="#161616"/>
<path d="M93.048 414.114V419.029C93.0558 419.149 93.1088 419.261 93.1963 419.343C93.2837 419.425 93.3991 419.47 93.519 419.47C93.6388 419.47 93.7542 419.425 93.8417 419.343C93.9292 419.261 93.9822 419.149 93.99 419.029V414.114C93.949 413.541 93.048 413.541 93.048 414.114Z" fill="#161616"/>
<path d="M103.579 411.327V421.28C103.587 421.4 103.64 421.512 103.727 421.594C103.815 421.676 103.93 421.721 104.05 421.721C104.17 421.721 104.285 421.676 104.373 421.594C104.46 421.512 104.513 421.4 104.521 421.28V411.327C104.521 411.202 104.471 411.082 104.383 410.994C104.295 410.906 104.175 410.856 104.05 410.856C103.925 410.856 103.805 410.906 103.717 410.994C103.629 411.082 103.579 411.202 103.579 411.327Z" fill="#161616"/>
<path d="M114.229 414.974V420.463C114.237 420.583 114.29 420.695 114.377 420.777C114.465 420.859 114.58 420.904 114.7 420.904C114.82 420.904 114.935 420.859 115.023 420.777C115.11 420.695 115.163 420.583 115.171 420.463V414.974C115.171 414.849 115.121 414.729 115.033 414.641C114.945 414.553 114.825 414.503 114.7 414.503C114.575 414.503 114.455 414.553 114.367 414.641C114.279 414.729 114.229 414.849 114.229 414.974Z" fill="#161616"/>
<path d="M128.812 411.041V421.568C128.82 421.688 128.873 421.8 128.96 421.882C129.048 421.964 129.163 422.009 129.283 422.009C129.403 422.009 129.518 421.964 129.606 421.882C129.693 421.8 129.746 421.688 129.754 421.568V411.041C129.754 410.916 129.704 410.796 129.616 410.708C129.528 410.62 129.408 410.57 129.283 410.57C129.158 410.57 129.038 410.62 128.95 410.708C128.862 410.796 128.812 410.916 128.812 411.041Z" fill="#161616"/>
<path d="M133.314 416.202V421.24C133.322 421.36 133.375 421.472 133.462 421.554C133.55 421.636 133.665 421.681 133.785 421.681C133.905 421.681 134.02 421.636 134.108 421.554C134.195 421.472 134.248 421.36 134.256 421.24V416.202C134.245 416.084 134.191 415.975 134.104 415.896C134.017 415.816 133.903 415.772 133.785 415.772C133.667 415.772 133.553 415.816 133.466 415.896C133.379 415.975 133.325 416.084 133.314 416.202Z" fill="#161616"/>
<path d="M141.058 411.574V419.438C141.066 419.558 141.119 419.67 141.206 419.752C141.294 419.834 141.409 419.879 141.529 419.879C141.649 419.879 141.764 419.834 141.852 419.752C141.939 419.67 141.992 419.558 142 419.438V411.574C141.959 411.001 141.058 411.001 141.058 411.574Z" fill="#161616"/>
<path d="M82.32 435.046V425.912C82.3122 425.792 82.2592 425.68 82.1717 425.598C82.0842 425.516 81.9689 425.471 81.849 425.471C81.7291 425.471 81.6137 425.516 81.5263 425.598C81.4388 425.68 81.3858 425.792 81.378 425.912V435.046C81.3888 435.163 81.4431 435.273 81.5303 435.352C81.6174 435.432 81.7311 435.476 81.849 435.476C81.9669 435.476 82.0806 435.432 82.1677 435.352C82.2548 435.273 82.3092 435.163 82.32 435.046Z" fill="#161616"/>
<path d="M85.679 434.88V430.251C85.6712 430.131 85.6182 430.019 85.5307 429.937C85.4432 429.855 85.3279 429.81 85.208 429.81C85.0881 429.81 84.9728 429.855 84.8853 429.937C84.7978 430.019 84.7448 430.131 84.737 430.251V434.88C84.737 435.005 84.7866 435.125 84.875 435.213C84.9633 435.301 85.0831 435.351 85.208 435.351C85.3329 435.351 85.4527 435.301 85.541 435.213C85.6294 435.125 85.679 435.005 85.679 434.88Z" fill="#161616"/>
<path d="M95.141 424.231V434.758C95.1488 434.878 95.2018 434.99 95.2893 435.072C95.3767 435.154 95.4921 435.199 95.612 435.199C95.7319 435.199 95.8472 435.154 95.9347 435.072C96.0222 434.99 96.0752 434.878 96.083 434.758V424.231C96.083 424.106 96.0334 423.986 95.945 423.898C95.8567 423.81 95.7369 423.76 95.612 423.76C95.4871 423.76 95.3673 423.81 95.2789 423.898C95.1906 423.986 95.141 424.106 95.141 424.231Z" fill="#161616"/>
<path d="M103.579 425.91V432.382C103.587 432.502 103.64 432.614 103.727 432.696C103.815 432.778 103.93 432.823 104.05 432.823C104.17 432.823 104.285 432.778 104.373 432.696C104.46 432.614 104.513 432.502 104.521 432.382V425.91C104.521 425.785 104.471 425.665 104.383 425.577C104.295 425.489 104.175 425.439 104.05 425.439C103.925 425.439 103.805 425.489 103.717 425.577C103.629 425.665 103.579 425.785 103.579 425.91Z" fill="#161616"/>
<path d="M100.63 427.18V429.72C100.638 429.84 100.691 429.952 100.778 430.034C100.866 430.116 100.981 430.161 101.101 430.161C101.221 430.161 101.336 430.116 101.424 430.034C101.511 429.952 101.564 429.84 101.572 429.72V427.18C101.572 427.055 101.522 426.935 101.434 426.847C101.346 426.759 101.226 426.709 101.101 426.709C100.976 426.709 100.856 426.759 100.768 426.847C100.68 426.935 100.63 427.055 100.63 427.18Z" fill="#161616"/>
<path d="M118.857 423.25V434.186C118.865 434.306 118.918 434.418 119.005 434.5C119.093 434.582 119.208 434.627 119.328 434.627C119.448 434.627 119.563 434.582 119.651 434.5C119.738 434.418 119.791 434.306 119.799 434.186V423.25C119.799 423.125 119.749 423.005 119.661 422.917C119.573 422.829 119.453 422.779 119.328 422.779C119.203 422.779 119.083 422.829 118.995 422.917C118.907 423.005 118.857 423.125 118.857 423.25Z" fill="#161616"/>
<path d="M122.379 427.999V432.915C122.387 433.035 122.44 433.147 122.527 433.229C122.615 433.311 122.73 433.356 122.85 433.356C122.97 433.356 123.085 433.311 123.173 433.229C123.26 433.147 123.313 433.035 123.321 432.915V428C123.28 427.427 122.379 427.427 122.379 428V427.999Z" fill="#161616"/>
<path d="M131.35 423.776V434.016C131.358 434.136 131.411 434.248 131.498 434.33C131.586 434.412 131.701 434.457 131.821 434.457C131.941 434.457 132.056 434.412 132.144 434.33C132.231 434.248 132.284 434.136 132.292 434.016V423.776C132.281 423.659 132.227 423.549 132.14 423.47C132.053 423.39 131.939 423.346 131.821 423.346C131.703 423.346 131.589 423.39 131.502 423.47C131.415 423.549 131.361 423.659 131.35 423.776Z" fill="#161616"/>
<path d="M147.653 424.64V433.487C147.661 433.607 147.714 433.719 147.801 433.801C147.889 433.883 148.004 433.928 148.124 433.928C148.244 433.928 148.359 433.883 148.447 433.801C148.534 433.719 148.587 433.607 148.595 433.487V424.64C148.554 424.067 147.653 424.067 147.653 424.64Z" fill="#161616"/>
<path d="M150.151 428.45V432.669C150.159 432.789 150.212 432.901 150.299 432.983C150.387 433.065 150.502 433.11 150.622 433.11C150.742 433.11 150.857 433.065 150.945 432.983C151.032 432.901 151.085 432.789 151.093 432.669V428.45C151.093 428.325 151.043 428.205 150.955 428.117C150.867 428.029 150.747 427.979 150.622 427.979C150.497 427.979 150.377 428.029 150.289 428.117C150.201 428.205 150.151 428.325 150.151 428.45Z" fill="#161616"/>
<path d="M139.665 397.447V390.893C139.657 390.773 139.604 390.661 139.517 390.579C139.429 390.497 139.314 390.452 139.194 390.452C139.074 390.452 138.959 390.497 138.871 390.579C138.784 390.661 138.731 390.773 138.723 390.893V397.447C138.764 398.02 139.665 398.061 139.665 397.447Z" fill="#161616"/>
<path d="M145.318 388.227V397.034C145.326 397.154 145.379 397.266 145.466 397.348C145.554 397.43 145.669 397.475 145.789 397.475C145.909 397.475 146.024 397.43 146.112 397.348C146.199 397.266 146.252 397.154 146.26 397.034V388.227C146.219 387.654 145.318 387.613 145.318 388.227Z" fill="#161616"/>
<path d="M149.578 370.695C150.67 371.334 151.558 372.269 152.138 373.394C152.719 374.518 152.967 375.784 152.855 377.044C152.814 377.617 153.715 377.617 153.797 377.044C153.92 375.624 153.635 374.199 152.974 372.936C152.314 371.673 151.306 370.626 150.07 369.917C150.019 369.885 149.962 369.863 149.902 369.852C149.843 369.842 149.782 369.844 149.723 369.857C149.664 369.87 149.608 369.895 149.559 369.93C149.509 369.965 149.467 370.009 149.435 370.06C149.403 370.111 149.381 370.168 149.37 370.228C149.36 370.287 149.362 370.348 149.375 370.407C149.388 370.466 149.413 370.522 149.448 370.571C149.483 370.621 149.527 370.663 149.578 370.695Z" fill="#161616"/>
<path d="M55.777 401.128C55.2333 402.001 54.8988 402.987 54.7994 404.011C54.7 405.034 54.8385 406.067 55.204 407.028C55.404 407.561 56.31 407.356 56.104 406.782C55.7774 405.936 55.6518 405.026 55.7372 404.124C55.8226 403.222 56.1166 402.351 56.596 401.582C56.649 401.474 56.6584 401.35 56.6222 401.235C56.586 401.12 56.507 401.024 56.4016 400.966C56.2962 400.908 56.1725 400.893 56.0562 400.923C55.9399 400.954 55.8399 401.028 55.777 401.131V401.128Z" fill="#161616"/>
<path d="M51.149 396.5C48.7972 399.433 47.5632 403.105 47.667 406.863C47.6748 406.983 47.7278 407.095 47.8153 407.177C47.9028 407.259 48.0181 407.304 48.138 407.304C48.2579 407.304 48.3733 407.259 48.4607 407.177C48.5482 407.095 48.6012 406.983 48.609 406.863C48.5109 403.334 49.6563 399.883 51.845 397.114C52.173 396.704 51.517 396.049 51.145 396.5H51.149Z" fill="#161616"/>
<path d="M149.168 409.567C149.973 409.98 150.648 410.609 151.118 411.382C151.588 412.156 151.834 413.045 151.83 413.95C151.838 414.07 151.891 414.182 151.978 414.264C152.066 414.346 152.181 414.391 152.301 414.391C152.421 414.391 152.536 414.346 152.624 414.264C152.711 414.182 152.764 414.07 152.772 413.95C152.778 412.886 152.491 411.842 151.942 410.931C151.393 410.021 150.603 409.279 149.659 408.789C149.127 408.502 148.635 409.281 149.167 409.567H149.168Z" fill="#161616"/>
<path opacity="0.15" d="M106.692 373.972C111.497 373.262 116.401 374.185 120.619 376.593C122.027 377.434 123.321 378.452 124.469 379.624C124.346 381.508 124.182 383.392 124.059 385.277C118.038 385.523 112.059 385.768 106.036 385.977C106.855 386.018 113.409 386.387 116.972 391.711C118.166 393.518 118.859 395.61 118.979 397.773C118.589 400.565 117.473 403.207 115.743 405.433C113.718 407.986 110.981 409.882 107.879 410.881C109.033 411.488 110.055 412.318 110.884 413.323C111.714 414.329 112.335 415.49 112.712 416.738C113.159 418.388 113.159 420.126 112.712 421.776C108.739 426.077 104.766 430.391 100.793 434.719L155.516 435.333C156.723 434.697 157.708 433.71 158.343 432.503C158.935 431.277 159.172 429.91 159.028 428.556C158.883 427.202 158.362 425.916 157.524 424.843C154.657 421.197 148.144 422.467 147.407 422.631C148.443 421.859 149.277 420.85 149.84 419.688C150.404 418.525 150.679 417.245 150.643 415.954C150.454 413.999 149.514 412.193 148.022 410.916L139.338 410.302C140.089 409.496 140.658 408.536 141.004 407.49C141.35 406.444 141.467 405.335 141.345 404.24C141.154 402.944 140.626 401.72 139.814 400.693C139.001 399.665 137.933 398.868 136.716 398.383C140.607 398.342 143.966 398.26 146.628 398.183C154.37 397.983 156.128 397.855 157.528 396.383C159.412 394.335 160.028 390.362 158.142 387.904C157.318 386.892 156.179 386.186 154.906 385.897C151.875 385.774 148.844 385.61 145.813 385.487C146.593 385.513 147.371 385.385 148.102 385.111C148.833 384.836 149.503 384.42 150.073 383.887C150.638 383.227 151.057 382.456 151.304 381.623C151.551 380.79 151.62 379.915 151.507 379.054C151.43 377.156 150.64 375.357 149.295 374.016C147.288 372.255 144.707 372.746 139.995 372.992C136.309 373.192 132.581 372.828 128.895 372.992C121.192 373.316 113.409 373.685 106.692 373.972Z" fill="#3D3D3D"/>
<path d="M163.508 424.517H272.337C272.496 424.511 272.646 424.443 272.756 424.328C272.866 424.214 272.927 424.061 272.927 423.902C272.927 423.744 272.866 423.591 272.756 423.476C272.646 423.362 272.496 423.294 272.337 423.288H163.508C163.349 423.294 163.199 423.362 163.089 423.476C162.979 423.591 162.918 423.744 162.918 423.902C162.918 424.061 162.979 424.214 163.089 424.328C163.199 424.443 163.349 424.511 163.508 424.517Z" fill="#E8E8E8"/>
<path d="M283.765 425.542C302.65 423.91 321.636 423.814 340.536 425.255C341.314 425.337 341.314 424.108 340.536 424.026C321.636 422.586 302.65 422.682 283.765 424.313C282.987 424.354 282.987 425.583 283.765 425.542Z" fill="#E8E8E8"/>
<path d="M335.048 432.014C345.248 432.914 355.364 430.376 365.523 429.72C375.977 429.083 386.469 429.702 396.776 431.563C397.554 431.686 397.882 430.498 397.104 430.375C386.946 428.547 376.611 427.901 366.304 428.45C355.904 429.023 345.496 431.727 335.051 430.785C334.273 430.703 334.273 431.932 335.051 432.014H335.048Z" fill="#E8E8E8"/>
<path d="M341.437 423.74C337.162 420.467 333.223 416.777 329.681 412.722C328.903 411.822 328.165 410.922 327.428 410.022C326.864 409.379 326.37 408.678 325.954 407.93C325.61 407.044 325.511 406.082 325.667 405.145C325.667 403.22 324.561 403.302 323.291 401.991C321.366 399.984 321.079 397.076 320.506 394.491C319.927 392.148 319.046 389.889 317.885 387.773C315.304 382.573 314.117 376.632 312.56 371.061C312.437 371.307 312.273 371.553 312.15 371.798C317.557 371.061 323.414 375.116 327.715 378.065C329.914 379.576 332.021 381.217 334.023 382.98C336.03 384.78 339.102 387.322 337.996 390.353C337.97 390.443 337.964 390.537 337.981 390.629C337.997 390.722 338.034 390.809 338.09 390.884C338.145 390.959 338.217 391.021 338.3 391.064C338.384 391.106 338.476 391.129 338.569 391.131C341.928 391.254 344.469 394.613 346.269 397.111C348.028 399.49 349.461 402.094 350.529 404.853C352.669 410.391 353.305 416.397 352.372 422.261C352.249 423.039 353.437 423.367 353.56 422.589C354.631 416.019 353.792 409.28 351.143 403.174C349.828 400.167 348.105 397.355 346.023 394.818C344.098 392.483 341.763 389.985 338.523 389.862C338.727 390.111 338.918 390.371 339.096 390.64C340.038 388.1 338.563 385.766 336.843 383.963C334.583 381.661 332.099 379.589 329.429 377.778C324.596 374.337 318.001 369.709 311.734 370.61C311.658 370.63 311.587 370.665 311.525 370.714C311.463 370.762 311.411 370.823 311.373 370.891C311.334 370.96 311.31 371.036 311.302 371.114C311.294 371.192 311.301 371.272 311.324 371.347C312.924 377.041 314.109 383.021 316.772 388.347C318.086 390.986 319.063 393.779 319.68 396.662C319.981 398.945 320.934 401.092 322.424 402.847C323.124 403.584 324.349 403.994 324.472 405.059C324.554 406.042 324.226 406.738 324.595 407.803C325.373 409.974 327.38 411.94 328.855 413.619C332.479 417.742 336.499 421.501 340.855 424.842C341.428 425.252 342.043 424.187 341.428 423.736L341.437 423.74Z" fill="#E8E8E8"/>
<path d="M348.446 396.747C349.88 391.463 354.14 386.876 357.498 382.698C358.398 381.592 359.259 380.527 360.16 379.462C360.897 378.562 361.839 376.881 363.109 376.677C363.642 376.595 363.887 376.923 364.461 376.554C364.994 376.105 365.403 375.527 365.649 374.875C368.107 370.41 372.039 367.175 376.176 364.266C379.412 361.972 382.607 359.678 384.204 355.91C383.794 355.787 383.426 355.71 383.016 355.582C381.441 361.715 381.231 368.119 382.402 374.342C383.508 380.937 383.754 387.326 381.951 393.88C378.51 406.373 369.051 414.77 359.423 422.716C358.809 423.208 359.669 424.068 360.283 423.576C369.704 415.793 379.002 407.56 382.729 395.518C384.491 389.781 384.981 383.728 384.163 377.782C383.513 374.286 383.048 370.759 382.77 367.214C382.657 363.383 383.127 359.558 384.163 355.868C384.363 355.09 383.263 354.844 382.975 355.54C381.091 360.046 376.462 362.34 372.775 365.166C370.884 366.599 369.129 368.203 367.532 369.958C366.833 370.745 366.19 371.581 365.607 372.458C365.156 373.158 364.46 375.039 363.723 375.284C363.232 375.448 362.699 375.161 362.123 375.407C361.304 375.735 360.771 376.718 360.239 377.332C358.439 379.503 356.639 381.632 354.914 383.845C351.924 387.613 348.524 391.628 347.214 396.338C347.05 397.198 348.238 397.526 348.443 396.748L348.446 396.747Z" fill="#E8E8E8"/>
<path d="M317.229 378.11C320.915 380.731 323.701 384.254 326.445 387.818C329.353 391.504 332.22 395.232 334.924 399.082C340.124 406.455 344.673 414.36 347.089 423.126C347.132 423.284 347.237 423.417 347.379 423.498C347.521 423.579 347.689 423.599 347.847 423.556C348.005 423.512 348.138 423.408 348.219 423.266C348.3 423.124 348.32 422.956 348.277 422.798C345.777 413.705 341.027 405.513 335.577 397.898C332.915 394.171 330.129 390.566 327.303 386.962C324.477 383.317 321.609 379.753 317.803 377.091C317.189 376.599 316.574 377.664 317.23 378.115L317.229 378.11Z" fill="#E8E8E8"/>
<path d="M378.67 366.19C372.157 383.311 357.125 396.09 352.824 414.196C352.781 414.353 352.801 414.522 352.882 414.664C352.963 414.806 353.096 414.91 353.254 414.954C353.412 414.997 353.58 414.977 353.722 414.896C353.864 414.815 353.969 414.681 354.012 414.524C358.272 396.424 373.345 383.64 379.858 366.518C380.145 365.781 378.958 365.453 378.67 366.19Z" fill="#E8E8E8"/>
<path d="M368.594 369.099C369.212 374.746 368.838 380.457 367.488 385.975C367.467 386.053 367.461 386.134 367.47 386.215C367.48 386.295 367.506 386.373 367.546 386.443C367.586 386.513 367.639 386.575 367.703 386.625C367.767 386.675 367.84 386.711 367.918 386.733C367.996 386.754 368.078 386.76 368.158 386.75C368.238 386.741 368.316 386.715 368.386 386.675C368.457 386.635 368.518 386.582 368.568 386.518C368.618 386.454 368.655 386.381 368.676 386.303C370.038 380.677 370.426 374.86 369.823 369.103C369.741 368.325 368.512 368.325 368.594 369.103V369.099Z" fill="#E8E8E8"/>
<path d="M372.321 380.69C376.171 378.274 379.827 375.562 383.257 372.58C383.871 372.048 382.97 371.187 382.397 371.72C379.048 374.634 375.474 377.277 371.706 379.625C371.006 380.076 371.624 381.141 372.32 380.69H372.321Z" fill="#E8E8E8"/>
<path d="M317.68 388.882C320.506 388.8 324.48 387.982 327.06 389.333C327.76 389.702 328.371 388.633 327.674 388.268C324.766 386.712 320.834 387.531 317.68 387.654C316.861 387.695 316.861 388.924 317.68 388.883V388.882Z" fill="#E8E8E8"/>
<path d="M333.162 382.657C332.684 386.592 332.739 390.574 333.326 394.495C333.449 395.273 334.637 394.946 334.514 394.167C333.961 390.353 333.92 386.482 334.391 382.657C334.514 381.879 333.285 381.879 333.162 382.657Z" fill="#E8E8E8"/>
<path d="M307.973 438.445C314.609 438.814 321.162 437.339 327.798 437.462C334.147 437.585 340.332 439.262 346.681 438.24C347.459 438.117 347.132 436.929 346.353 437.052C339.881 438.117 333.491 436.233 327.02 436.233C320.671 436.233 314.363 437.585 307.973 437.216C307.195 437.134 307.195 438.363 307.973 438.445Z" fill="#E8E8E8"/>
<path d="M-40.274 430.908C-27.574 432.669 -15.001 429.843 -2.34498 428.983C4.33849 428.669 11.0363 428.888 17.685 429.638C24.403 430.252 31.12 430.538 37.879 430.58C45.579 430.621 53.321 430.416 61.022 430.17C61.8 430.129 61.8 428.9 61.022 428.941C52.379 429.187 43.696 429.433 35.053 429.31C26.574 429.187 18.218 428.245 9.78002 427.71C-6.84998 426.604 -23.357 432.01 -39.946 429.717C-40.724 429.635 -41.052 430.782 -40.274 430.905V430.908Z" fill="#E8E8E8"/>
<path d="M31.448 437.83C36.24 437.83 40.992 436.683 45.748 436.314C50.5722 435.945 55.414 435.863 60.248 436.068C61.026 436.109 61.026 434.88 60.248 434.839C55.4143 434.614 50.5712 434.696 45.748 435.085C40.997 435.454 36.204 436.601 31.448 436.601C31.2893 436.607 31.1392 436.675 31.0292 436.789C30.9192 436.904 30.8578 437.057 30.8578 437.215C30.8578 437.374 30.9192 437.527 31.0292 437.641C31.1392 437.756 31.2893 437.824 31.448 437.83Z" fill="#E8E8E8"/>
<path d="M5.43604 172.57V418.251C5.44244 418.41 5.50997 418.56 5.62451 418.67C5.73905 418.78 5.89171 418.841 6.05052 418.841C6.20934 418.841 6.36201 418.78 6.47655 418.67C6.59109 418.56 6.65862 418.41 6.66502 418.251V172.57C6.65862 172.411 6.59109 172.261 6.47655 172.151C6.36201 172.041 6.20934 171.98 6.05052 171.98C5.89171 171.98 5.73905 172.041 5.62451 172.151C5.50997 172.261 5.44244 172.411 5.43604 172.57Z" fill="#E8E8E8"/>
<path d="M108.576 157.578V368.607C108.582 368.766 108.65 368.916 108.765 369.026C108.879 369.136 109.032 369.197 109.191 369.197C109.349 369.197 109.502 369.136 109.617 369.026C109.731 368.916 109.799 368.766 109.805 368.607V157.578C109.799 157.419 109.731 157.269 109.617 157.159C109.502 157.049 109.349 156.988 109.191 156.988C109.032 156.988 108.879 157.049 108.765 157.159C108.65 157.269 108.582 157.419 108.576 157.578Z" fill="#E8E8E8"/>
<path d="M111.034 274.603C134.259 284.27 157.538 293.827 180.872 303.275C181.609 303.562 181.937 302.375 181.2 302.087C157.852 292.666 134.573 283.109 111.364 273.415C110.627 273.128 110.34 274.315 111.036 274.603H111.034Z" fill="#E8E8E8"/>
<path d="M176.079 302.454V421.076C176.085 421.235 176.153 421.385 176.268 421.495C176.382 421.605 176.535 421.666 176.694 421.666C176.852 421.666 177.005 421.605 177.12 421.495C177.234 421.385 177.302 421.235 177.308 421.076V302.454C177.302 302.295 177.234 302.145 177.12 302.035C177.005 301.925 176.852 301.864 176.694 301.864C176.535 301.864 176.382 301.925 176.268 302.035C176.153 302.145 176.085 302.295 176.079 302.454Z" fill="#E8E8E8"/>
<path d="M287.985 420.626V343.252C287.979 343.093 287.911 342.943 287.797 342.833C287.682 342.723 287.529 342.662 287.37 342.662C287.212 342.662 287.059 342.723 286.944 342.833C286.83 342.943 286.762 343.093 286.756 343.252V420.626C286.762 420.785 286.83 420.935 286.944 421.045C287.059 421.155 287.212 421.216 287.37 421.216C287.529 421.216 287.682 421.155 287.797 421.045C287.911 420.935 287.979 420.785 287.985 420.626Z" fill="#E8E8E8"/>
<path d="M276.555 346.037C301.582 335.264 326.691 324.451 350.489 311.098C357.289 307.289 364.006 303.234 370.56 298.933C371.215 298.482 370.601 297.417 369.946 297.868C347.09 312.819 322.432 324.615 297.528 335.593C290.36 338.747 283.151 341.86 275.983 344.932C275.205 345.301 275.86 346.325 276.556 346.038L276.555 346.037Z" fill="#E8E8E8"/>
<path d="M308.136 330.145V202.594C308.13 202.435 308.062 202.285 307.948 202.175C307.833 202.065 307.68 202.004 307.521 202.004C307.363 202.004 307.21 202.065 307.095 202.175C306.981 202.285 306.913 202.435 306.907 202.594V330.145C306.913 330.304 306.981 330.454 307.095 330.564C307.21 330.674 307.363 330.735 307.521 330.735C307.68 330.735 307.833 330.674 307.948 330.564C308.062 330.454 308.13 330.304 308.136 330.145Z" fill="#E8E8E8"/>
<path d="M300.967 205.096H418.647C418.806 205.09 418.956 205.022 419.066 204.907C419.176 204.793 419.237 204.64 419.237 204.481C419.237 204.323 419.176 204.17 419.066 204.055C418.956 203.941 418.806 203.873 418.647 203.867H300.967C300.804 203.867 300.648 203.932 300.533 204.047C300.417 204.162 300.353 204.318 300.353 204.481C300.353 204.644 300.417 204.801 300.533 204.916C300.648 205.031 300.804 205.096 300.967 205.096Z" fill="#E8E8E8"/>
<path d="M0.194053 173.921C28.8251 164.705 59.3821 162.698 89.0781 159.298C97.7614 158.315 106.445 157.318 115.129 156.308C115.907 156.226 115.907 154.997 115.129 155.079C99.6457 156.84 84.1491 158.615 68.6391 160.404C53.9391 162.083 39.1471 163.681 24.6061 166.504C16.2431 168.086 7.98177 170.165 -0.133935 172.73C-0.870935 172.976 -0.543947 174.164 0.194053 173.918V173.921Z" fill="#E8E8E8"/>
<path d="M14.244 203.74V183.26C14.2376 183.101 14.1701 182.951 14.0555 182.841C13.941 182.731 13.7883 182.67 13.6295 182.67C13.4707 182.67 13.318 182.731 13.2035 182.841C13.089 182.951 13.0214 183.101 13.015 183.26V203.74C13.0214 203.899 13.089 204.049 13.2035 204.159C13.318 204.269 13.4707 204.33 13.6295 204.33C13.7883 204.33 13.941 204.269 14.0555 204.159C14.1701 204.049 14.2376 203.899 14.244 203.74Z" fill="#E8E8E8"/>
<path d="M13.2601 183.178H25.3021C25.4607 183.172 25.6108 183.104 25.7208 182.989C25.8308 182.875 25.8923 182.722 25.8923 182.563C25.8923 182.405 25.8308 182.252 25.7208 182.137C25.6108 182.023 25.4607 181.955 25.3021 181.949H13.2601C13.1014 181.955 12.9513 182.023 12.8413 182.137C12.7313 182.252 12.6699 182.405 12.6699 182.563C12.6699 182.722 12.7313 182.875 12.8413 182.989C12.9513 183.104 13.1014 183.172 13.2601 183.178Z" fill="#E8E8E8"/>
<path d="M24.733 182.896V204.236C24.7394 204.395 24.807 204.545 24.9215 204.655C25.036 204.765 25.1887 204.826 25.3475 204.826C25.5063 204.826 25.659 204.765 25.7735 204.655C25.8881 204.545 25.9556 204.395 25.962 204.236V182.896C25.9556 182.737 25.8881 182.587 25.7735 182.477C25.659 182.367 25.5063 182.306 25.3475 182.306C25.1887 182.306 25.036 182.367 24.9215 182.477C24.807 182.587 24.7394 182.737 24.733 182.896Z" fill="#E8E8E8"/>
<path d="M13.7941 205.051H24.4841C24.6427 205.045 24.7928 204.977 24.9028 204.863C25.0128 204.748 25.0743 204.595 25.0743 204.437C25.0743 204.278 25.0128 204.125 24.9028 204.011C24.7928 203.896 24.6427 203.828 24.4841 203.822H13.7941C13.6354 203.828 13.4853 203.896 13.3753 204.011C13.2653 204.125 13.2039 204.278 13.2039 204.437C13.2039 204.595 13.2653 204.748 13.3753 204.863C13.4853 204.977 13.6354 205.045 13.7941 205.051Z" fill="#E8E8E8"/>
<path d="M48.815 203.577V183.097C48.8086 182.938 48.7411 182.788 48.6266 182.678C48.512 182.568 48.3594 182.507 48.2005 182.507C48.0417 182.507 47.8891 182.568 47.7745 182.678C47.66 182.788 47.5925 182.938 47.5861 183.097V203.577C47.5925 203.736 47.66 203.886 47.7745 203.996C47.8891 204.106 48.0417 204.167 48.2005 204.167C48.3594 204.167 48.512 204.106 48.6266 203.996C48.7411 203.886 48.8086 203.736 48.815 203.577Z" fill="#E8E8E8"/>
<path d="M47.873 182.97H59.915C60.0737 182.964 60.2238 182.896 60.3338 182.781C60.4438 182.667 60.5052 182.514 60.5052 182.355C60.5052 182.197 60.4438 182.044 60.3338 181.929C60.2238 181.815 60.0737 181.747 59.915 181.741H47.873C47.7923 181.741 47.7124 181.757 47.6379 181.788C47.5633 181.819 47.4956 181.864 47.4385 181.921C47.3815 181.978 47.3362 182.046 47.3053 182.12C47.2744 182.195 47.2585 182.275 47.2585 182.355C47.2585 182.436 47.2744 182.516 47.3053 182.591C47.3362 182.665 47.3815 182.733 47.4385 182.79C47.4956 182.847 47.5633 182.892 47.6379 182.923C47.7124 182.954 47.7923 182.97 47.873 182.97Z" fill="#E8E8E8"/>
<path d="M59.301 182.728V204.068C59.3074 204.227 59.375 204.377 59.4895 204.487C59.6041 204.597 59.7567 204.658 59.9155 204.658C60.0743 204.658 60.227 204.597 60.3416 204.487C60.4561 204.377 60.5236 204.227 60.53 204.068V182.728C60.5236 182.569 60.4561 182.419 60.3416 182.309C60.227 182.199 60.0743 182.138 59.9155 182.138C59.7567 182.138 59.6041 182.199 59.4895 182.309C59.375 182.419 59.3074 182.569 59.301 182.728Z" fill="#E8E8E8"/>
<path d="M48.366 204.841H59.057C59.2157 204.835 59.3658 204.767 59.4758 204.652C59.5858 204.538 59.6472 204.385 59.6472 204.226C59.6472 204.068 59.5858 203.915 59.4758 203.8C59.3658 203.686 59.2157 203.618 59.057 203.612H48.366C48.2073 203.618 48.0573 203.686 47.9473 203.8C47.8373 203.915 47.7758 204.068 47.7758 204.226C47.7758 204.385 47.8373 204.538 47.9473 204.652C48.0573 204.767 48.2073 204.835 48.366 204.841Z" fill="#E8E8E8"/>
<path d="M84.332 202.798V182.318C84.3256 182.159 84.2581 182.009 84.1436 181.899C84.029 181.789 83.8763 181.728 83.7175 181.728C83.5587 181.728 83.4061 181.789 83.2915 181.899C83.177 182.009 83.1094 182.159 83.103 182.318V202.798C83.1094 202.957 83.177 203.107 83.2915 203.217C83.4061 203.327 83.5587 203.388 83.7175 203.388C83.8763 203.388 84.029 203.327 84.1436 203.217C84.2581 203.107 84.3256 202.957 84.332 202.798Z" fill="#E8E8E8"/>
<path d="M83.344 182.197H95.386C95.5447 182.191 95.6948 182.123 95.8048 182.009C95.9148 181.894 95.9763 181.741 95.9763 181.583C95.9763 181.424 95.9148 181.271 95.8048 181.156C95.6948 181.042 95.5447 180.974 95.386 180.968H83.344C83.1854 180.974 83.0353 181.042 82.9253 181.156C82.8153 181.271 82.7538 181.424 82.7538 181.583C82.7538 181.741 82.8153 181.894 82.9253 182.009C83.0353 182.123 83.1854 182.191 83.344 182.197Z" fill="#E8E8E8"/>
<path d="M94.813 181.95V203.29C94.8195 203.449 94.887 203.599 95.0015 203.709C95.1161 203.819 95.2687 203.88 95.4276 203.88C95.5864 203.88 95.739 203.819 95.8536 203.709C95.9681 203.599 96.0357 203.449 96.0421 203.29V181.95C96.0421 181.787 95.9773 181.631 95.8621 181.515C95.7468 181.4 95.5905 181.335 95.4276 181.335C95.2646 181.335 95.1083 181.4 94.993 181.515C94.8778 181.631 94.813 181.787 94.813 181.95Z" fill="#E8E8E8"/>
<path d="M83.8751 204.068H94.5661C94.7248 204.062 94.8748 203.994 94.9848 203.88C95.0948 203.765 95.1563 203.612 95.1563 203.453C95.1563 203.295 95.0948 203.142 94.9848 203.027C94.8748 202.913 94.7248 202.845 94.5661 202.839H83.8751C83.7164 202.845 83.5663 202.913 83.4563 203.027C83.3463 203.142 83.2849 203.295 83.2849 203.453C83.2849 203.612 83.3463 203.765 83.4563 203.88C83.5663 203.994 83.7164 204.062 83.8751 204.068Z" fill="#E8E8E8"/>
<path d="M1.70605 261.33V342.268C1.71246 342.427 1.78001 342.577 1.89455 342.687C2.00909 342.797 2.16174 342.858 2.32056 342.858C2.47937 342.858 2.63203 342.797 2.74657 342.687C2.86111 342.577 2.92866 342.427 2.93506 342.268V261.33C2.93506 261.167 2.87032 261.011 2.75508 260.895C2.63984 260.78 2.48353 260.715 2.32056 260.715C2.15758 260.715 2.00129 260.78 1.88605 260.895C1.77081 261.011 1.70605 261.167 1.70605 261.33Z" fill="#E8E8E8"/>
<path d="M10.312 347.429V384.99C10.3184 385.149 10.386 385.299 10.5005 385.409C10.615 385.519 10.7677 385.58 10.9265 385.58C11.0853 385.58 11.238 385.519 11.3525 385.409C11.4671 385.299 11.5346 385.149 11.541 384.99V347.429C11.5346 347.27 11.4671 347.12 11.3525 347.01C11.238 346.9 11.0853 346.839 10.9265 346.839C10.7677 346.839 10.615 346.9 10.5005 347.01C10.386 347.12 10.3184 347.27 10.312 347.429Z" fill="#E8E8E8"/>
<path d="M-3.69595 170.398C9.46422 165.81 22.898 162.048 36.527 159.134C37.305 158.97 36.978 157.782 36.199 157.946C22.5687 160.854 9.13456 164.617 -4.02396 169.21C-4.76096 169.456 -4.43395 170.644 -3.69595 170.398Z" fill="#E8E8E8"/>
<path d="M112.017 280.46C125.862 285.66 139.338 291.847 152.773 298.032C153.473 298.36 154.125 297.295 153.387 296.967C139.829 290.741 126.271 284.515 112.345 279.272C111.608 278.985 111.28 280.172 112.017 280.46Z" fill="#E8E8E8"/>
<path d="M120.044 323.754V303.274C120.038 303.115 119.97 302.965 119.856 302.855C119.741 302.745 119.588 302.684 119.43 302.684C119.271 302.684 119.118 302.745 119.003 302.855C118.889 302.965 118.821 303.115 118.815 303.274V323.754C118.815 323.917 118.88 324.073 118.995 324.189C119.11 324.304 119.267 324.369 119.43 324.369C119.592 324.369 119.749 324.304 119.864 324.189C119.979 324.073 120.044 323.917 120.044 323.754Z" fill="#E8E8E8"/>
<path d="M119.103 303.193H131.145C131.304 303.187 131.454 303.119 131.564 303.005C131.674 302.89 131.735 302.737 131.735 302.578C131.735 302.42 131.674 302.267 131.564 302.152C131.454 302.038 131.304 301.97 131.145 301.964H119.103C118.94 301.964 118.784 302.029 118.669 302.144C118.553 302.259 118.489 302.416 118.489 302.578C118.489 302.741 118.553 302.898 118.669 303.013C118.784 303.128 118.94 303.193 119.103 303.193Z" fill="#E8E8E8"/>
<path d="M130.531 302.946V324.286C130.537 324.445 130.605 324.595 130.719 324.705C130.834 324.815 130.987 324.876 131.146 324.876C131.304 324.876 131.457 324.815 131.572 324.705C131.686 324.595 131.754 324.445 131.76 324.286V302.946C131.76 302.783 131.695 302.627 131.58 302.512C131.465 302.396 131.308 302.332 131.146 302.332C130.983 302.332 130.826 302.396 130.711 302.512C130.596 302.627 130.531 302.783 130.531 302.946Z" fill="#E8E8E8"/>
<path d="M119.595 325.066H130.286C130.445 325.06 130.595 324.992 130.705 324.877C130.815 324.763 130.876 324.61 130.876 324.451C130.876 324.293 130.815 324.14 130.705 324.025C130.595 323.911 130.445 323.843 130.286 323.837H119.595C119.436 323.843 119.286 323.911 119.176 324.025C119.066 324.14 119.005 324.293 119.005 324.451C119.005 324.61 119.066 324.763 119.176 324.877C119.286 324.992 119.436 325.06 119.595 325.066Z" fill="#E8E8E8"/>
<path d="M293.432 344.603C320.175 334.563 345.815 321.798 369.946 306.51C370.601 306.1 369.987 305.035 369.332 305.445C345.293 320.683 319.749 333.407 293.104 343.415C292.367 343.702 292.694 344.89 293.432 344.603Z" fill="#E8E8E8"/>
<path d="M322.307 200.955H419.097C419.256 200.949 419.406 200.881 419.516 200.766C419.626 200.652 419.687 200.499 419.687 200.34C419.687 200.182 419.626 200.029 419.516 199.914C419.406 199.8 419.256 199.732 419.097 199.726H322.307C322.148 199.732 321.998 199.8 321.888 199.914C321.778 200.029 321.717 200.182 321.717 200.34C321.717 200.499 321.778 200.652 321.888 200.766C321.998 200.881 322.148 200.949 322.307 200.955Z" fill="#E8E8E8"/>
<path d="M320.018 241.67V221.19C320.012 221.031 319.944 220.881 319.83 220.771C319.715 220.661 319.562 220.6 319.404 220.6C319.245 220.6 319.092 220.661 318.978 220.771C318.863 220.881 318.795 221.031 318.789 221.19V241.67C318.789 241.833 318.854 241.989 318.969 242.104C319.084 242.22 319.241 242.284 319.404 242.284C319.567 242.284 319.723 242.22 319.838 242.104C319.953 241.989 320.018 241.833 320.018 241.67Z" fill="#E8E8E8"/>
<path d="M319.072 221.107H331.114C331.273 221.101 331.423 221.033 331.533 220.918C331.643 220.804 331.704 220.651 331.704 220.492C331.704 220.334 331.643 220.181 331.533 220.066C331.423 219.952 331.273 219.884 331.114 219.878H319.072C318.913 219.884 318.763 219.952 318.653 220.066C318.543 220.181 318.482 220.334 318.482 220.492C318.482 220.651 318.543 220.804 318.653 220.918C318.763 221.033 318.913 221.101 319.072 221.107Z" fill="#E8E8E8"/>
<path d="M330.5 220.862V242.202C330.506 242.361 330.574 242.511 330.689 242.621C330.803 242.731 330.956 242.792 331.115 242.792C331.273 242.792 331.426 242.731 331.541 242.621C331.655 242.511 331.723 242.361 331.729 242.202V220.862C331.729 220.699 331.664 220.543 331.549 220.427C331.434 220.312 331.278 220.247 331.115 220.247C330.952 220.247 330.795 220.312 330.68 220.427C330.565 220.543 330.5 220.699 330.5 220.862Z" fill="#E8E8E8"/>
<path d="M319.605 242.98H330.296C330.455 242.974 330.605 242.906 330.715 242.791C330.825 242.677 330.886 242.524 330.886 242.365C330.886 242.207 330.825 242.054 330.715 241.939C330.605 241.825 330.455 241.757 330.296 241.751H319.605C319.442 241.751 319.286 241.816 319.171 241.931C319.055 242.046 318.991 242.202 318.991 242.365C318.991 242.528 319.055 242.685 319.171 242.8C319.286 242.915 319.442 242.98 319.605 242.98Z" fill="#E8E8E8"/>
<path d="M351.922 81.678C365.472 81.678 376.457 70.5097 376.457 56.733C376.457 42.9562 365.472 31.788 351.922 31.788C338.372 31.788 327.387 42.9562 327.387 56.733C327.387 70.5097 338.372 81.678 351.922 81.678Z" stroke="#E8E8E8" stroke-width="0.955" stroke-miterlimit="10"/>
<path d="M323.619 153.113C330.419 148.484 338.693 151.393 345.738 153.768C349.02 154.971 352.428 155.796 355.896 156.226C359.655 156.521 363.437 156.259 367.119 155.448C381.742 152.417 397.553 142.095 412.585 149.099C413.285 149.427 413.937 148.362 413.199 148.034C402.14 142.873 389.974 146.928 379.161 150.615C372.853 152.786 366.34 154.957 359.582 155.121C352.66 155.285 346.597 152.459 340.082 150.656C334.429 149.056 328.04 148.608 322.96 152.049C322.346 152.5 322.96 153.565 323.615 153.114L323.619 153.113Z" fill="#E8E8E8"/>
<path d="M17.401 130.79C29.239 134.19 40.871 128.619 51.972 125.137C58.034 123.253 64.424 121.737 70.814 122.556C77.327 123.416 83.266 126.529 89.246 129.11C95.308 131.731 101.616 133.902 108.334 132.837C109.112 132.714 108.785 131.526 108.006 131.649C95.185 133.697 84.454 123.662 72.329 121.532C60.491 119.443 49.229 125.096 38.168 128.372C31.491 130.338 24.568 131.526 17.729 129.56C17.5696 129.527 17.4036 129.556 17.265 129.641C17.1265 129.727 17.0259 129.862 16.9839 130.019C16.9419 130.177 16.9617 130.344 17.0393 130.487C17.1169 130.63 17.2463 130.738 17.401 130.789V130.79Z" fill="#E8E8E8"/>
<path d="M123.404 148.567C127.787 148.444 131.637 146.478 135.528 144.717C137.863 143.531 140.385 142.755 142.983 142.423C145.891 142.177 148.431 143.201 150.929 144.594C155.517 147.134 159.776 149.468 165.06 150.288C170.056 151.097 175.172 150.747 180.011 149.264C180.748 149.018 180.462 147.83 179.683 148.076C174.271 149.725 168.518 149.909 163.012 148.608C160.387 147.983 157.854 147.02 155.477 145.741C153.3 144.39 151.043 143.173 148.719 142.096C139.585 138.451 132.253 147.052 123.405 147.296C122.627 147.378 122.627 148.607 123.405 148.566L123.404 148.567Z" fill="#E8E8E8"/>
<path d="M249.113 110.39C260.913 115.879 274.14 115.633 286.674 113.216C300.846 110.472 314.199 104.205 328.863 104.45C337.154 104.627 345.333 106.408 352.948 109.693C353.685 110.021 354.3 108.956 353.562 108.628C341.263 103.288 327.613 101.886 314.486 104.614C307.318 106.13 300.396 108.628 293.309 110.471C286.603 112.268 279.723 113.339 272.788 113.666C264.884 114.057 256.998 112.584 249.768 109.366C249.031 108.997 248.416 110.066 249.113 110.39Z" fill="#E8E8E8"/>
<path d="M107.799 335.551C109.069 342.228 110.299 348.945 111.567 355.622C90.431 363.282 80.15 368.566 80.806 371.515C81.584 375.078 98.1867 375.215 130.614 371.925C129.221 357.998 127.829 344.058 126.436 330.104C120.21 331.947 113.984 333.749 107.799 335.551Z" fill="#161616" stroke="white" stroke-width="0.955" stroke-miterlimit="10"/>
<path d="M206.718 251.869C197.871 255.515 194.143 254.613 182.961 257.685C166.414 262.331 151.107 270.6 138.15 281.893L139.502 327.605C138.56 328.711 128.238 340.426 112.591 338.828C105.184 337.959 98.337 334.455 93.299 328.957C93.012 314.908 93.258 299.916 94.199 284.146C94.772 275.012 95.51 266.164 96.452 257.685C97.845 255.719 99.975 252.893 102.719 249.616C124.264 223.975 150.069 212.588 164.119 206.607C178.128 200.627 186.893 196.899 199.959 195.834C203.441 195.547 238.259 193.09 243.869 207.057C249.071 219.797 228.55 242.899 206.718 251.869Z" fill="white" stroke="#161616" stroke-width="0.955" stroke-miterlimit="10"/>
<path opacity="0.16" d="M241.617 202.757C233.834 197.391 216.672 220.247 182.511 241.792C149.661 262.477 132.457 262.149 122.545 282.261C119.514 288.361 116.36 298.031 114.435 307.861C112.501 317.883 111.882 328.113 112.592 338.295C115.705 338.16 118.794 337.693 121.808 336.902C128.264 335.172 134.253 332.024 139.339 327.686C138.888 312.162 138.397 296.638 137.946 281.155C146.263 274.358 155.401 268.633 165.146 264.115C188.207 253.424 196.846 258.015 215.855 247.075C220.238 244.575 245.019 230.281 244.445 211.603C244.279 208.614 244.236 204.559 241.617 202.757Z" fill="#3D3D3D"/>
<path opacity="0.25" d="M244.811 210.13C243.091 208.737 236.411 218.076 220.399 229.504C200.492 243.676 190.907 243.513 168.994 256.704C157.553 263.596 146.835 271.624 137.004 280.666C140.793 279.034 144.485 277.188 148.063 275.136C157.484 269.647 159.778 266.289 166.946 262.684C169.527 261.414 174.36 260.103 183.986 257.605C200.821 253.222 203.237 253.427 209.341 250.683C215.242 248.013 220.688 244.433 225.479 240.074C238.831 228.361 246.982 211.85 244.811 210.13Z" fill="#3D3D3D"/>
<path opacity="0.2" d="M137.454 281.115C132.211 299.998 126.982 318.894 121.766 337.804C124.652 337.045 127.441 335.959 130.081 334.568C133.681 332.654 136.945 330.165 139.743 327.2C138.969 311.835 138.232 296.475 137.454 281.115Z" fill="#3D3D3D"/>
<path d="M241.043 399.531C242.313 406.208 243.543 412.925 244.811 419.602C225.682 429.228 216.589 435.208 217.411 437.543C218.435 440.369 233.863 437.925 263.696 430.211C262.344 418.169 261.034 406.126 259.682 394.084C253.454 395.927 247.269 397.729 241.043 399.531Z" fill="#161616" stroke="white" stroke-width="0.955" stroke-miterlimit="10"/>
<path d="M257.427 191.37C258.861 202.429 260.704 219.1 261.605 239.458C262.957 270.875 260.991 288.365 260.663 311.589C260.321 340.245 262.487 368.877 267.135 397.156C261.182 401.109 254.32 403.481 247.197 404.047C240.073 404.613 232.923 403.355 226.42 400.392C225.52 382.943 223.92 364.392 221.341 344.892C217.013 312.254 210.375 279.964 201.475 248.266C196.56 241.466 191.604 234.708 186.688 227.909C204.588 215.252 222.474 202.609 240.346 189.98C246.001 190.469 251.693 190.919 257.427 191.37Z" fill="white" stroke="#161616" stroke-width="0.955" stroke-miterlimit="10"/>
<path d="M193.446 231.43C192.176 229.669 190.946 227.866 189.678 226.105C189.309 227.498 188.941 228.89 188.572 230.324C194.634 226.556 200.572 222.582 206.267 218.241C211.018 214.641 215.442 210.663 220.235 207.141C223.266 204.888 226.379 202.758 229.492 200.628C232.482 198.621 235.513 196.081 238.792 194.484C240.553 193.624 242.642 193.747 244.526 193.747C248.126 193.747 251.694 193.87 255.258 194.075C259.19 194.275 259.19 188.136 255.258 187.931C251.694 187.767 248.09 187.603 244.526 187.603C242.224 187.484 239.917 187.72 237.686 188.303C234.286 189.409 231.214 192.071 228.306 194.078C224.947 196.331 221.629 198.584 218.353 200.959C213.274 204.645 208.604 208.782 203.653 212.592C197.817 217.031 191.761 221.173 185.508 225.003C184.81 225.423 184.304 226.1 184.097 226.888C183.891 227.676 184 228.513 184.402 229.222C185.672 230.983 186.902 232.786 188.17 234.547C190.423 237.742 195.748 234.67 193.454 231.434L193.446 231.43Z" fill="white"/>
<path opacity="0.14" d="M216.712 196.286C223.508 216.348 229.048 236.813 233.301 257.563C242.983 305.307 245.783 354.19 241.616 402.727C243.986 403.574 246.474 404.044 248.989 404.12C258.205 404.366 264.841 399.041 266.971 397.198C264.395 384.259 262.549 371.186 261.441 358.04C258.41 322.2 262.219 301.883 262.834 271.409C263.321 245.64 261.47 219.879 257.304 194.444C243.746 195.057 230.215 195.671 216.712 196.286Z" fill="#3D3D3D"/>
<path opacity="0.2" d="M258.656 213.366C257.509 253.712 255.516 295.191 252.676 337.804C251.201 359.8 249.508 381.454 247.597 402.767C251.032 403.381 254.566 403.113 257.868 401.988C261.171 400.864 264.134 398.919 266.48 396.336C262.878 375.631 260.878 354.679 260.5 333.666C260.049 306.304 262.63 292.337 261.893 260.388C261.4 240.073 259.844 223.606 258.656 213.366Z" fill="#3D3D3D"/>
<path d="M91.128 46.9429C91.66 45.7139 86.418 43.1749 86.95 41.7429C87.482 40.2679 93.995 39.8999 98.378 43.1359C102.966 46.4949 102.678 51.4099 105.3 57.7179C108.29 64.8039 113 68.6539 120.169 74.5529C124.469 78.1169 141.264 91.4699 165.469 90.7319C174.834 90.4073 184.023 88.0891 192.421 83.9319C191.479 95.6879 190.496 107.484 189.554 119.24C182.282 120.924 174.792 121.464 167.354 120.84C134.754 118.014 113.819 92.8639 107.347 85.1219C101.774 78.4237 97.0041 71.0966 93.134 63.2899C87.6359 64.9773 81.8586 65.5618 76.134 65.0099C71.055 64.5179 64.993 62.9619 65.034 61.5279C65.075 59.6439 75.52 58.3739 75.434 57.7189C75.352 57.1459 67.119 59.3979 65.034 56.3259C63.396 53.9089 65.689 48.4619 69.54 46.2499C70.728 45.5949 72.08 45.1849 75.44 45.2259C84.533 45.2229 90.636 48.0489 91.128 46.9429Z" fill="white" stroke="#161616" stroke-width="0.955" stroke-miterlimit="10"/>
<path d="M64.91 53.988C66.999 53.496 69.416 54.52 71.546 54.602C73.428 54.6777 75.3123 54.5263 77.158 54.151C77.936 53.987 77.609 52.799 76.83 52.963C74.5114 53.4337 72.1308 53.5169 69.785 53.209C67.985 52.963 66.385 52.39 64.585 52.799C63.807 52.963 64.134 54.151 64.913 53.987L64.91 53.988Z" fill="#161616"/>
<path d="M66.633 49.9329C69.091 49.4409 71.262 50.4649 73.633 50.5879C75.7384 50.6414 77.8391 50.365 79.859 49.7689C80.0166 49.7254 80.1504 49.6211 80.231 49.479C80.3116 49.3368 80.3325 49.1685 80.289 49.0109C80.2455 48.8534 80.1412 48.7196 79.9991 48.639C79.8569 48.5583 79.6886 48.5374 79.531 48.5809C76.9424 49.3643 74.2043 49.5189 71.544 49.0319C69.8248 48.5553 68.0249 48.4436 66.26 48.7039C65.523 48.9039 65.85 50.0969 66.629 49.9329H66.633Z" fill="#161616"/>
<path d="M89.284 51.1629C90.2984 52.2439 91.5322 53.0955 92.9026 53.6607C94.2731 54.2259 95.7485 54.4916 97.23 54.4399C98.008 54.3989 98.008 53.1699 97.23 53.2109C95.9129 53.2848 94.596 53.0618 93.3767 52.5585C92.1573 52.0552 91.0665 51.2843 90.185 50.3029C90.0692 50.1918 89.9149 50.1296 89.7543 50.1295C89.5938 50.1293 89.4393 50.1911 89.3233 50.302C89.2072 50.4129 89.1384 50.5644 89.1313 50.7248C89.1242 50.8852 89.1792 51.0422 89.285 51.1629H89.284Z" fill="#161616"/>
<path opacity="0.18" d="M65.036 55.9959C65.159 54.8899 74.088 54.6029 82.28 55.7959C86.704 56.4099 91.005 57.0249 95.06 58.9499C103.907 63.0869 106.816 70.9919 111.403 78.2419C111.403 78.2419 121.684 94.3419 140.075 103.351C158.343 112.28 179.192 106.3 190.948 101.551L189.596 119.246C181.339 120.979 172.847 121.283 164.487 120.146C133.48 115.763 114.024 91.9239 106.282 82.4619C101.322 76.4059 96.9726 69.8741 93.298 62.9619C87.7948 65.0093 81.8985 65.7797 76.054 65.2149C71.098 64.6829 65.24 63.0439 65.281 61.6149C65.363 59.7719 75.234 58.6659 75.152 58.2559C75.111 58.0559 72.326 58.6659 68.885 57.8049C67.534 57.4699 64.995 56.6099 65.036 55.9959Z" fill="#3D3D3D"/>
<path opacity="0.24" d="M158.057 113.135C169.321 113.158 180.36 109.976 189.883 103.96C189.683 109.203 189.432 114.405 189.228 119.648C176.348 121.822 163.135 120.896 150.684 116.948C121.315 107.568 106.897 84.2209 103.17 77.7079C104.358 79.8339 123.651 112.685 158.057 113.135Z" fill="#3D3D3D"/>
<path opacity="0.19" d="M78.962 62.713C87.728 62.754 93.626 61.443 93.749 62.058C93.831 62.55 90.185 64.024 86.335 64.758C75.153 66.888 64.913 62.258 65.035 61.604C65.158 61.157 69.746 62.672 78.962 62.713Z" fill="#3D3D3D"/>
<path d="M88.547 6.02399C90.8316 6.02399 93.0649 6.70144 94.9644 7.97068C96.864 9.23992 98.3445 11.0439 99.2188 13.1546C100.093 15.2653 100.322 17.5878 99.8761 19.8285C99.4304 22.0691 98.3303 24.1273 96.7148 25.7428C95.0994 27.3582 93.0412 28.4583 90.8005 28.904C88.5598 29.3497 86.2373 29.121 84.1267 28.2467C82.016 27.3725 80.212 25.8919 78.9427 23.9924C77.6735 22.0928 76.996 19.8596 76.996 17.575C76.996 14.5115 78.213 11.5734 80.3792 9.4072C82.5455 7.24096 85.4835 6.02399 88.547 6.02399V6.02399Z" fill="#0CF2B4"/>
<path d="M86.212 29.862C93.4508 29.862 99.319 23.9754 99.319 16.714C99.319 9.45254 93.4508 3.56598 86.212 3.56598C78.9732 3.56598 73.105 9.45254 73.105 16.714C73.105 23.9754 78.9732 29.862 86.212 29.862Z" stroke="#161616" stroke-width="0.637" stroke-miterlimit="10"/>
<path d="M88.016 9.50597C85.435 9.34197 78.8 11.841 81.258 15.568C82.692 17.739 85.477 16.305 87.484 16.838C90.065 17.538 89.778 20.647 88.184 22.163C87.4036 22.8668 86.3838 23.246 85.3331 23.2232C84.2824 23.2003 83.2801 22.7771 82.531 22.04C81.958 21.508 81.056 22.368 81.671 22.9C84.907 25.849 90.682 24.17 90.682 19.377C90.7068 18.4082 90.3525 17.4681 89.6945 16.7566C89.0365 16.0452 88.1268 15.6187 87.159 15.568C85.643 15.368 81.384 16.51 82.367 13.397C83.022 11.267 86.176 10.612 88.061 10.735C88.839 10.776 88.839 9.54697 88.02 9.50597H88.016Z" fill="#161616"/>
<path d="M86.622 10.079C86.745 8.72701 86.868 7.41701 86.991 6.06501C87.073 5.28701 85.844 5.28701 85.762 6.06501C85.639 7.41701 85.516 8.72701 85.393 10.079C85.311 10.857 86.54 10.857 86.622 10.079Z" fill="#161616"/>
<path d="M85.8031 24.743C85.9261 25.685 86.049 26.668 86.131 27.61C86.213 28.388 87.4421 28.388 87.3601 27.61C87.2371 26.668 87.114 25.685 87.032 24.743C86.95 23.965 85.7211 23.965 85.8031 24.743Z" fill="#161616"/>
<path d="M204.793 81.022C200.842 81.2216 196.919 81.7975 193.078 82.742C190.541 83.3602 188.05 84.1541 185.623 85.118C181.696 92.9845 179.133 101.461 178.045 110.186C176.161 125.71 179.929 135.704 182.51 151.147C184.941 166.153 185.354 181.416 183.739 196.531C192.538 204.586 203.557 209.809 215.363 211.522C238.792 214.799 255.996 202.429 259.563 199.766C261.734 186.331 263.782 172.527 265.625 158.396C268.779 134.475 271.155 111.332 272.916 89.091C261.563 78.401 251.734 75.533 244.811 74.959C231.499 73.813 219.457 80.203 204.793 81.022Z" fill="#966BE8"/>
<path opacity="0.17" d="M223.185 91.345C226.715 94.9508 229.784 98.9817 232.319 103.345C247.27 129.314 238.013 159.625 233.876 173.06C229.666 186.732 223.231 199.616 214.829 211.194C219.835 212.041 224.931 212.22 229.984 211.726C240.591 210.591 250.695 206.614 259.23 200.216C263.08 178.343 266.357 155.078 268.897 130.501C270.372 116.083 271.478 102.033 272.297 88.476C270.052 86.3229 267.596 84.4018 264.965 82.742C259.681 79.342 251.365 74.058 241.986 75.697C230.025 77.746 223.963 89.706 223.185 91.345Z" fill="#3D3D3D" stroke="#966BE8" stroke-width="0.318"/>
<path opacity="0.11" d="M270.452 97.857C268.363 103.714 265.127 113.057 261.852 124.768C252.103 159.134 252.8 173.88 240.962 191.616C235.591 199.6 228.868 206.586 221.096 212.26C234.645 212.162 247.849 207.98 258.984 200.26C262.179 183.139 265.005 164.665 267.094 144.881C268.773 128.414 269.879 112.689 270.452 97.857Z" fill="#3D3D3D"/>
<path d="M251.447 176.707C250.587 175.107 251.488 172.734 252.84 171.464C255.34 169.088 259.885 169.989 261.933 172.57C262.22 172.939 263.612 174.659 263.039 176.134C261.81 179.123 253.208 179.902 251.447 176.707Z" fill="white" stroke="#161616" stroke-width="0.955" stroke-miterlimit="10"/>
<path d="M262.997 82.128C279.494 93.5317 292.454 109.343 300.397 127.758C302.804 133.361 304.735 139.157 306.172 145.084C300.955 157.232 293.058 168.042 283.072 176.706C278.985 180.235 274.569 183.362 269.883 186.045C267.067 189.187 263.983 192.079 260.667 194.688C258.046 196.777 254.482 199.562 253.667 198.866C253.012 198.293 254.158 195.466 255.92 193.5C257.243 192.17 258.813 191.112 260.542 190.386C258.899 190.582 257.348 191.251 256.077 192.311C253.619 194.236 253.742 196.038 252.513 196.325C249.932 196.939 243.993 190.713 244.894 184.405C245.631 179.121 250.833 176.295 252.594 175.312C256.041 173.468 259.994 172.793 263.858 173.387C270.002 163.843 276.146 154.34 282.29 144.797C280.07 143.004 277.964 141.075 275.982 139.022C273.156 136.114 265.209 127.84 261.4 116.494C256.28 101.257 260.99 87.207 262.997 82.128Z" fill="white" stroke="#161616" stroke-width="0.955" stroke-miterlimit="10"/>
<path d="M245.876 189.611C247.342 186.281 250.001 183.622 253.331 182.156C254.068 181.828 253.413 180.763 252.717 181.091C249.191 182.651 246.372 185.47 244.812 188.996C244.484 189.696 245.549 190.307 245.877 189.61L245.876 189.611Z" fill="#161616"/>
<path d="M250.381 195.298C249.111 191.448 252.839 187.475 255.911 185.713C256.046 185.629 256.144 185.495 256.183 185.34C256.222 185.186 256.199 185.022 256.119 184.884C256.039 184.745 255.909 184.643 255.756 184.599C255.602 184.556 255.438 184.573 255.297 184.648C251.733 186.696 247.719 191.202 249.197 195.625C249.443 196.362 250.631 196.035 250.385 195.297L250.381 195.298Z" fill="#161616"/>
<path opacity="0.18" d="M261.114 88.887C268.012 96.0006 274.442 103.553 280.365 111.497C290.765 125.383 295.93 132.346 296.299 139.678C296.954 153.278 286.755 170.278 273.32 176.747C269.429 178.631 259.312 182.441 253.495 189.895C251.816 192.025 250.095 194.974 250.71 195.629C251.243 196.161 253.21 194.769 253.864 195.429C254.642 196.207 252.758 198.583 253.291 199.115C253.946 199.77 257.591 197.436 261.278 194.486C264.273 192.052 267.068 189.381 269.634 186.499C273.963 184.03 278.061 181.179 281.881 177.979C292.52 168.989 300.895 157.622 306.33 144.798C305.087 140.008 303.54 135.302 301.701 130.708C297.164 119.312 290.785 108.74 282.818 99.414C276.993 92.6709 270.332 86.6972 262.998 81.637C262.342 84.054 261.73 86.47 261.114 88.887Z" fill="#3D3D3D"/>
<path opacity="0.21" d="M300.395 150.778C296.463 155.857 294.456 159.093 292.817 161.51C289.704 166.016 285.075 170.316 275.777 178.918C272.459 181.99 267.954 186.086 262.424 190.797C256.608 195.835 253.781 198.416 253.904 198.58C254.068 198.785 259.693 194.525 270.78 185.8C273.678 184.118 276.469 182.257 279.136 180.229C298.224 165.606 306.784 144.593 306.006 144.102C305.679 143.938 303.917 146.186 300.395 150.778Z" fill="#3D3D3D"/>
<path d="M196.232 13.8479C184.19 23.7189 184.681 43.748 189.392 56.693C191.747 63.0683 195.482 68.8448 200.328 73.61L198.362 87.864C202.95 89.9733 207.9 91.1831 212.944 91.428C228.919 92.206 240.344 82.867 243.46 80.164C240.634 70.702 237.808 61.2263 234.981 51.7369C234.612 49.075 233.998 44.979 233.343 39.9809C231.582 26.9559 231.664 26.2589 230.885 24.1289C230.557 23.2689 225.642 10.7759 214.214 8.56395C204.998 6.84295 197.379 12.9059 196.232 13.8479Z" fill="white" stroke="#161616" stroke-width="0.955" stroke-miterlimit="10"/>
<path d="M186.319 47.189C185.31 51.174 184.992 55.3024 185.377 59.395C185.705 62.836 186.277 68.816 190.577 74.595C193.994 79.0726 198.718 82.3776 204.096 84.053C203.831 83.2108 203.639 82.3472 203.523 81.472C203.42 80.5465 203.42 79.6125 203.523 78.687C206.349 80.243 209.217 81.759 212.043 83.316C219.211 76.721 221.587 70.659 222.406 66.276C223.061 62.835 223.471 56.527 224.987 44.976C225.274 42.928 225.806 39.242 228.141 38.299C228.727 38.0757 229.361 38.0112 229.98 38.1118C230.598 38.2124 231.179 38.4746 231.664 38.872C234.49 41.248 231.623 48.129 232.238 48.334C232.853 48.539 237.809 41.616 236.129 33.711C235.418 30.5521 233.811 27.6653 231.501 25.396C228.388 30.3113 224.933 35.378 221.138 40.596C218.721 43.914 216.305 47.027 213.929 50.058C212.773 50.7194 211.45 51.0319 210.12 50.958C209.245 50.8023 208.392 50.5411 207.58 50.18C204.221 49.238 202.419 53.211 199.101 52.68C196.401 52.229 196.152 49.321 193.162 49.239C191.728 49.198 191.155 49.853 189.68 49.567C188.344 49.1348 187.171 48.3052 186.319 47.189Z" fill="#161616" stroke="#161616" stroke-width="0.955" stroke-miterlimit="10"/>
<path d="M200.246 35.557C199.225 40.2921 198.568 45.0985 198.282 49.934C198.284 50.0434 198.314 50.1506 198.369 50.2448C198.425 50.339 198.505 50.4169 198.6 50.4707C198.695 50.5245 198.803 50.5524 198.913 50.5516C199.022 50.5508 199.13 50.5212 199.224 50.466C200.903 49.606 202.624 48.705 204.303 47.845C205.003 47.476 204.385 46.411 203.689 46.78C202.01 47.64 200.289 48.541 198.61 49.401C198.938 49.565 199.224 49.77 199.552 49.933C199.823 45.2066 200.466 40.509 201.477 35.884C201.6 35.106 200.412 34.778 200.248 35.556L200.246 35.557Z" fill="#161616"/>
<path d="M193.692 40.472C194.212 40.472 194.634 39.4082 194.634 38.096C194.634 36.7837 194.212 35.72 193.692 35.72C193.172 35.72 192.75 36.7837 192.75 38.096C192.75 39.4082 193.172 40.472 193.692 40.472Z" fill="#161616" stroke="#161616" stroke-width="0.955" stroke-miterlimit="10"/>
<path d="M209.585 40.472C210.286 40.472 210.855 39.4082 210.855 38.096C210.855 36.7837 210.286 35.72 209.585 35.72C208.884 35.72 208.315 36.7837 208.315 38.096C208.315 39.4082 208.884 40.472 209.585 40.472Z" fill="#161616" stroke="#161616" stroke-width="0.955" stroke-miterlimit="10"/>
<path d="M191.395 33.468C192.173 32.034 193.895 32.362 195.163 32.813C195.9 33.059 196.228 31.871 195.491 31.625C193.691 30.97 191.391 30.925 190.33 32.854C189.961 33.509 191.03 34.165 191.395 33.468Z" fill="#161616"/>
<path d="M206.882 31.7879C207.32 31.3446 207.849 31.0027 208.433 30.7861C209.017 30.5694 209.642 30.4835 210.263 30.5342C210.884 30.5849 211.486 30.7711 212.027 31.0796C212.568 31.3881 213.035 31.8115 213.395 32.3199C213.846 32.9339 214.911 32.3199 214.46 31.7059C214 31.0425 213.4 30.4879 212.702 30.081C212.005 29.6742 211.226 29.4249 210.422 29.3508C209.618 29.2766 208.808 29.3794 208.047 29.6519C207.287 29.9243 206.596 30.3599 206.022 30.9279C205.449 31.4599 206.309 32.3209 206.882 31.7879Z" fill="#161616"/>
<path d="M176.817 25.93C194.062 26.954 211.251 28.4013 228.386 30.272C230.721 30.518 230.721 26.831 228.386 26.586C211.223 24.702 194.034 23.2546 176.817 22.244C174.441 22.121 174.441 25.808 176.817 25.93Z" fill="#161616"/>
<path d="M187.958 23.392C188.483 17.7903 190.795 12.5058 194.553 8.31897C201.393 1.06897 214.053 -1.96203 223.881 4.18197C231.581 9.01497 235.719 18.354 234.326 27.857C218.883 26.3816 203.427 24.8933 187.958 23.392Z" fill="#966BE8"/>
<path opacity="0.69" d="M209.751 2.29698C207.744 3.97598 207.744 7.53998 208.44 11.308C209.578 16.38 211.529 21.2348 214.215 25.685C220.933 26.463 227.65 27.285 234.368 28.061C234.775 26.0398 234.886 23.97 234.696 21.917C234.305 18.7954 233.318 15.778 231.788 13.029C226.871 4.58998 214.009 -1.30802 209.751 2.29698Z" fill="#3A3A3A"/>
<path opacity="0.24" d="M230.802 50.385C229.708 50.9611 228.447 51.1353 227.238 50.877C230.716 57.4275 231.938 64.9414 230.717 72.2566C229.495 79.5718 225.897 86.2808 220.48 91.346C223.546 90.7208 226.548 89.8171 229.45 88.646C234.575 86.5541 239.321 83.6342 243.499 80.003L233.668 45.473C233.67 45.674 233.506 48.951 230.802 50.385Z" fill="#3D3D3D"/>
<path opacity="0.19" d="M215.647 28.921C216.319 31.8486 216.457 34.8731 216.057 37.85C215.389 42.431 213.524 46.7547 210.65 50.384C211.592 50.097 212.534 49.77 213.476 49.484C215.36 47.19 217.285 44.733 219.169 42.234C222.282 38.097 225.149 34.001 227.769 30.069C223.716 29.699 219.702 29.289 215.647 28.921Z" fill="#3D3D3D"/>
</svg>
