<svg width="375" height="377" viewBox="0 0 375 377" fill="none" xmlns="http://www.w3.org/2000/svg">
<path d="M358.227 234.801C358.185 241.538 358.102 248.316 358.061 255.053C358.061 256.716 358.019 258.38 358.019 260.001C358.019 261.124 357.769 262.538 358.227 263.619C358.934 265.449 361.304 264.95 362.178 266.488C362.267 266.202 362.336 265.91 362.386 265.615C359.35 267.115 358.56 270.48 358.311 273.599C358.103 276.593 357.978 281.417 361.887 281.999C361.852 281.622 361.797 281.247 361.721 280.876C355.816 283.576 358.186 294.142 360.681 298.383C362.626 301.435 365.105 304.111 368 306.283C369.58 307.572 371.16 308.783 372.782 310.026C373.738 310.775 374.695 311.481 375.61 312.226C376.11 312.6 378.23 313.765 378.31 314.472C378.452 314.27 378.605 314.076 378.767 313.89H378.85C378.939 314.176 379.008 314.468 379.058 314.763C379.1 314.721 379.1 314.68 379.141 314.638C379.474 313.931 378.434 313.307 378.06 314.014C378.018 314.056 378.018 314.097 377.977 314.139C377.897 314.284 377.873 314.454 377.912 314.616C377.95 314.777 378.048 314.919 378.185 315.012C378.299 315.122 378.444 315.194 378.601 315.216C378.758 315.239 378.918 315.211 379.058 315.137C379.308 315.054 379.558 314.804 379.515 314.555C379.349 313.266 378.06 312.684 377.062 311.935C375.607 310.771 374.109 309.648 372.654 308.484C369.853 306.442 367.212 304.19 364.754 301.747C362.058 299.072 360.294 295.601 359.722 291.847C359.265 288.687 358.849 283.613 362.342 281.991C362.799 281.783 362.716 280.91 362.176 280.868C358.849 280.368 359.307 275.628 359.556 273.092C359.805 270.597 360.512 267.977 362.966 266.771C363.105 266.679 363.204 266.538 363.243 266.376C363.281 266.214 363.257 266.043 363.174 265.898C362.301 264.398 360.18 264.692 359.39 263.361C358.766 262.361 359.182 260.034 359.224 258.828C359.224 257.165 359.266 255.501 359.266 253.879C359.308 247.558 359.349 241.196 359.432 234.879C359.441 234.798 359.434 234.716 359.41 234.637C359.387 234.559 359.348 234.487 359.296 234.424C359.243 234.361 359.179 234.31 359.106 234.272C359.033 234.235 358.954 234.213 358.872 234.208C358.791 234.202 358.709 234.213 358.632 234.24C358.555 234.267 358.484 234.309 358.424 234.364C358.363 234.419 358.315 234.485 358.281 234.56C358.247 234.634 358.228 234.714 358.226 234.796L358.227 234.801Z" fill="#E8E8E8"/>
<path d="M358.894 235.133C364.716 235.424 368.794 239.874 372.284 244.033C373.947 246.033 375.694 247.9 377.399 249.772C379.145 251.643 381.433 255.427 378.272 257.257C378.157 257.33 378.068 257.438 378.02 257.565C377.971 257.693 377.966 257.833 378.003 257.964C378.041 258.095 378.119 258.21 378.228 258.292C378.336 258.375 378.469 258.42 378.605 258.421C383.429 258.546 385.55 264.409 387.047 268.11C388.83 272.59 390.248 277.207 391.289 281.916C393.392 291.556 393.842 301.484 392.62 311.275C392.537 312.065 393.784 312.065 393.868 311.275C395.178 300.386 394.473 289.348 391.789 278.714C390.571 273.659 388.843 268.741 386.632 264.035C385.052 260.708 382.598 257.257 378.606 257.174C378.731 257.548 378.814 257.964 378.939 258.338C385.01 254.845 377.483 248.191 375.03 245.322C370.664 240.249 366.256 234.222 358.937 233.845C358.772 233.849 358.616 233.917 358.499 234.033C358.382 234.149 358.314 234.305 358.309 234.47C358.304 234.634 358.361 234.795 358.47 234.918C358.579 235.042 358.731 235.119 358.895 235.134L358.894 235.133Z" fill="#E8E8E8"/>
<path d="M350.368 207.605C343.382 208.105 339.681 199.912 340.845 194.005C341.968 188.225 347.623 184.149 353.403 184.316C361.013 184.482 364.922 191.926 363.55 198.871C362.344 205.071 356.106 209.641 349.869 207.188C349.12 206.897 348.788 208.103 349.536 208.394C352.01 209.275 354.712 209.271 357.183 208.384C359.655 207.497 361.743 205.781 363.092 203.529C364.512 201.029 365.192 198.177 365.052 195.305C364.912 192.434 363.959 189.661 362.302 187.311C358.892 182.737 352.363 182.111 347.415 184.317C344.988 185.354 342.924 187.091 341.487 189.305C340.05 191.519 339.306 194.112 339.348 196.751C339.473 202.656 343.839 209.309 350.326 208.851C351.158 208.809 351.199 207.562 350.368 207.603V207.605Z" fill="#E8E8E8"/>
<path d="M132.549 371.073C157.624 368.744 182.741 365.708 207.9 364.673C233.267 363.633 258.758 364.299 284.124 364.964C298.679 365.338 313.233 366.045 327.705 367.417C328.495 367.5 328.495 366.253 327.705 366.17C302.255 363.758 276.722 363.47 251.189 363.176C238.381 363.01 225.573 362.885 212.807 363.301C200.373 363.675 187.981 364.715 175.589 365.838L132.549 369.83C131.759 369.872 131.759 371.119 132.549 371.078V371.073Z" fill="#E8E8E8"/>
<path d="M263.04 352.693C273.478 354.647 283.791 354.564 294.311 353.608C305.123 352.608 315.893 351.986 326.747 351.487C348.537 350.531 370.328 349.657 392.076 348.742C404.51 348.201 416.944 347.702 429.376 347.162C430.166 347.12 430.166 345.873 429.376 345.914L363.922 348.659C342.464 349.574 320.882 350.031 299.466 351.859C293.644 352.359 287.822 353.023 282.001 353.107C275.751 353.177 269.51 352.62 263.371 351.444C262.581 351.361 262.248 352.567 263.038 352.692L263.04 352.693Z" fill="#E8E8E8"/>
<path d="M-19.9 343.881C-0.52132 344.422 18.857 344.338 38.235 343.631C39.025 343.589 39.025 342.342 38.235 342.383C18.8563 343.09 -0.521986 343.174 -19.9 342.633C-20.732 342.591 -20.732 343.839 -19.9 343.881Z" fill="#E8E8E8"/>
<path d="M1.26699 360.594C8.33599 359.094 15.822 360.053 22.974 360.386C30.168 360.76 37.321 361.093 44.515 361.467C59.153 362.215 73.749 362.967 88.387 363.667C89.177 363.709 89.177 362.461 88.387 362.419L43.687 360.174L21.356 359.051C14.578 358.718 7.67499 357.928 0.979989 359.384C0.189989 359.55 0.522989 360.756 1.27099 360.59L1.26699 360.594Z" fill="#E8E8E8"/>
<path d="M113.379 328.906C139.079 330.652 164.362 323.999 190.019 324.082C190.178 324.073 190.328 324.003 190.438 323.887C190.548 323.771 190.609 323.618 190.609 323.458C190.609 323.298 190.548 323.145 190.438 323.029C190.328 322.913 190.178 322.843 190.019 322.834C164.361 322.751 139.078 329.363 113.379 327.658C112.589 327.575 112.589 328.864 113.379 328.906Z" fill="#E8E8E8"/>
<path d="M94.125 199.662C94.3123 198.948 94.5629 198.252 94.874 197.583C95.082 197.292 95.248 197.042 95.456 196.751C96.329 196.668 97.244 196.543 98.117 196.46C98.366 196.626 98.574 197.125 98.741 197.375C99.3274 198.257 100.093 199.007 100.987 199.575C101.877 200.116 102.878 200.449 103.914 200.55C104.951 200.651 105.997 200.517 106.975 200.157C112.09 198.286 114.003 191.507 120.24 192.173C121.906 192.32 123.474 193.024 124.69 194.173C125.605 195.046 126.312 196.127 127.268 196.959C128.075 197.622 129.046 198.053 130.079 198.207C131.111 198.36 132.166 198.231 133.131 197.832C135.631 196.959 137.539 195.087 139.41 193.299C141.947 190.929 145.648 188.059 149.016 190.599C151.216 192.221 152.509 194.716 155.254 195.589C156.513 195.994 157.851 196.089 159.155 195.864C160.458 195.64 161.688 195.103 162.739 194.3C163.363 193.843 162.739 192.72 162.115 193.219C160.746 194.29 159.024 194.807 157.291 194.668C155.558 194.53 153.941 193.745 152.759 192.47C151.012 190.77 149.515 188.644 146.937 188.353C140.866 187.604 137.705 195.007 132.549 196.712C128.64 198.001 127.349 194.512 124.773 192.595C123.82 191.894 122.736 191.389 121.586 191.11C120.436 190.832 119.242 190.785 118.073 190.973C115.573 191.347 113.665 192.844 111.919 194.549C109.881 196.587 107.719 199.373 104.559 199.373C103.57 199.348 102.603 199.076 101.746 198.582C100.889 198.088 100.169 197.388 99.652 196.545C98.987 195.63 98.446 194.882 97.24 194.757C94.62 194.508 93.497 197.257 92.874 199.29C92.8377 199.451 92.8639 199.62 92.9473 199.763C93.0308 199.906 93.1652 200.012 93.3236 200.059C93.4819 200.106 93.6524 200.092 93.8006 200.019C93.9488 199.945 94.0636 199.819 94.122 199.664L94.125 199.662Z" fill="#E8E8E8"/>
<path d="M158.246 178.163C159.746 173.797 164.983 177.498 166.979 179.119C168.726 180.533 170.763 181.988 173.133 181.905C177.042 181.739 179.121 177.747 182.323 176.083C186.773 173.796 189.476 179.742 193.8 179.16C195.713 178.91 196.711 177.372 197.917 176.041C199.206 174.627 200.537 174.627 202.367 175.041C204.067 175.457 205.818 175.873 207.523 176.288C207.681 176.325 207.847 176.3 207.986 176.217C208.125 176.135 208.227 176.002 208.27 175.845C208.314 175.689 208.294 175.522 208.217 175.38C208.14 175.238 208.01 175.131 207.856 175.082C206.156 174.666 204.404 174.25 202.7 173.834C201.582 173.429 200.377 173.328 199.207 173.543C196.92 174.25 196.255 177.286 193.967 177.826C191.514 178.408 189.102 175.664 186.981 174.79C186.156 174.405 185.251 174.22 184.341 174.249C183.431 174.278 182.54 174.52 181.741 174.956C179.911 175.912 178.541 177.534 176.917 178.823C175.897 179.778 174.603 180.389 173.217 180.57C171.055 180.695 169.266 179.198 167.686 177.95C165.773 176.45 163.735 174.665 161.116 174.873C160.227 174.889 159.364 175.176 158.643 175.696C157.922 176.217 157.377 176.945 157.082 177.784C156.791 178.574 157.997 178.907 158.246 178.158V178.163Z" fill="#E8E8E8"/>
<path d="M346.251 56.819C345.877 64.595 345.627 72.413 345.544 80.231C345.553 80.3904 345.623 80.5403 345.739 80.6499C345.855 80.7596 346.008 80.8207 346.168 80.8207C346.328 80.8207 346.481 80.7596 346.597 80.6499C346.713 80.5403 346.783 80.3904 346.792 80.231C346.875 72.413 347.125 64.637 347.499 56.819C347.541 56.029 346.293 56.029 346.251 56.819Z" fill="#E8E8E8"/>
<path d="M347.086 57.404C356.692 56.073 366.464 54.784 376.029 57.03C376.187 57.0672 376.353 57.0419 376.492 56.9594C376.631 56.8769 376.733 56.7435 376.777 56.5874C376.82 56.4312 376.8 56.2644 376.723 56.1221C376.646 55.9797 376.517 55.8729 376.362 55.824C366.59 53.495 356.568 54.824 346.754 56.198C345.964 56.281 346.297 57.487 347.087 57.404H347.086Z" fill="#E8E8E8"/>
<path d="M375.235 84.443C375.443 100.243 375.152 116.089 374.32 131.891C374.278 132.681 375.526 132.681 375.568 131.891C376.399 116.091 376.704 100.275 376.483 84.443C376.474 84.2836 376.404 84.1337 376.288 84.024C376.172 83.9144 376.019 83.8533 375.859 83.8533C375.699 83.8533 375.546 83.9144 375.43 84.024C375.314 84.1337 375.244 84.2836 375.235 84.443Z" fill="#E8E8E8"/>
<path d="M346.584 100.65C346.792 102.65 346.875 104.725 347.249 106.68C347.313 107.122 347.468 107.545 347.704 107.924C347.94 108.303 348.253 108.628 348.621 108.88C351.241 110.58 355.483 109.587 358.352 109.421L370.62 108.672C372.45 108.547 375.361 108.048 374.238 105.512C373.905 104.763 372.824 105.429 373.157 106.136C373.365 106.593 371.036 107.342 370.62 107.425C369.944 107.508 369.263 107.55 368.582 107.55C367.376 107.633 366.129 107.716 364.923 107.758C362.47 107.924 360.016 108.049 357.563 108.215C355.317 108.34 352.822 108.797 350.577 108.298C347.749 107.633 348.124 103.058 347.832 100.688C347.749 99.856 346.501 99.856 346.585 100.646L346.584 100.65Z" fill="#E8E8E8"/>
<path d="M339.016 99.114C335.357 104.478 331.572 109.76 327.747 114.999C327.686 115.092 327.653 115.2 327.653 115.311C327.653 115.422 327.686 115.53 327.747 115.623C328.045 116.121 328.506 116.5 329.051 116.697C329.597 116.894 330.194 116.897 330.741 116.704C332.529 116.163 333.402 114.126 334.317 112.712C335.836 110.379 337.518 108.155 339.349 106.058C340.139 105.185 340.929 104.311 341.761 103.48C342.717 102.524 344.339 100.486 345.711 100.28C346.501 100.155 346.168 98.949 345.378 99.074C344.131 99.282 343.299 100.28 342.384 101.112C341.178 102.235 340.014 103.399 338.891 104.647C336.726 107.053 334.754 109.625 332.991 112.34C332.541 113.156 332.027 113.935 331.452 114.669C330.787 115.625 330.08 115.709 329.252 114.918C329.501 114.585 329.752 114.253 329.959 113.918C331.082 112.379 332.205 110.841 333.286 109.302C335.573 106.102 337.819 102.902 340.023 99.654C340.564 99.072 339.482 98.448 339.023 99.113L339.016 99.114Z" fill="#E8E8E8"/>
<path d="M345.503 100.649C348.063 100.694 350.579 99.9849 352.739 98.6094C354.898 97.2339 356.605 95.2531 357.646 92.914C359.476 88.631 358.478 83.058 354.61 80.231C350.16 77.031 344.464 79.441 341.01 82.931C338.859 84.9679 337.404 87.6305 336.852 90.541C336.678 91.6909 336.734 92.8641 337.018 93.992C337.18 94.6472 337.433 95.2768 337.767 95.863C337.85 96.029 339.767 98.732 338.931 98.691C338.141 98.608 338.141 99.855 338.931 99.939C339.204 99.9674 339.481 99.923 339.731 99.8103C339.982 99.6977 340.199 99.5207 340.359 99.2973C340.52 99.074 340.618 98.8123 340.645 98.5386C340.671 98.2649 340.625 97.9891 340.511 97.739C340.22 96.783 339.305 96.117 338.811 95.239C338.102 93.8559 337.854 92.2821 338.104 90.748C338.811 85.425 344.466 79.848 349.956 79.936C355.362 79.978 358.19 86.007 357.067 90.748C356.384 93.2715 354.873 95.4923 352.777 97.0534C350.68 98.6146 348.119 99.4256 345.506 99.356C345.339 99.3626 345.182 99.4334 345.066 99.5535C344.951 99.6737 344.886 99.8338 344.886 100C344.886 100.167 344.951 100.327 345.066 100.448C345.182 100.568 345.339 100.638 345.506 100.645L345.503 100.649Z" fill="#E8E8E8"/>
<path d="M351.408 61.81L351.366 61.768V62.641C351.907 62.017 355.649 62.059 356.647 61.934C358.227 61.768 359.847 61.643 361.429 61.56C363.011 61.477 364.629 61.394 366.253 61.352C366.96 61.352 370.661 61.685 370.91 61.019C370.619 61.768 371.825 62.1 372.116 61.352C372.158 61.269 372.158 61.227 372.199 61.144C372.234 61.0349 372.236 60.9182 372.207 60.8076C372.177 60.697 372.116 60.5972 372.032 60.52C371.117 59.605 369.454 60.02 368.248 60.02C365.961 60.02 363.715 60.103 361.428 60.27C359.307 60.395 357.186 60.603 355.028 60.811C353.947 60.936 351.244 60.769 350.454 61.684C350.344 61.8026 350.282 61.9585 350.282 62.1205C350.282 62.2824 350.344 62.4384 350.454 62.557L350.496 62.599C351.12 63.264 351.996 62.35 351.411 61.809L351.408 61.81Z" fill="#E8E8E8"/>
<path d="M350.825 67.88C354.968 68.3373 359.143 68.4209 363.3 68.13C364.09 68.088 364.09 66.841 363.3 66.882C359.254 67.1665 355.191 67.0969 351.157 66.674C350.367 66.591 350.034 67.797 350.824 67.88H350.825Z" fill="#E8E8E8"/>
<path d="M347.997 72.58C347.872 72.705 347.747 72.871 347.623 72.996C347.537 73.0863 347.479 73.1997 347.457 73.3224C347.435 73.445 347.449 73.5714 347.497 73.6862C347.546 73.801 347.627 73.8991 347.73 73.9686C347.834 74.038 347.955 74.0757 348.08 74.077C355.316 74.2014 362.552 73.8674 369.745 73.077C370.535 72.994 370.535 71.746 369.745 71.83C362.552 72.6203 355.316 72.9543 348.08 72.83C348.246 73.204 348.371 73.537 348.537 73.911C348.662 73.786 348.787 73.62 348.911 73.495C349.411 72.871 348.537 71.995 347.996 72.58H347.997Z" fill="#E8E8E8"/>
<path d="M356.939 79.3991C360.716 79.6905 364.514 79.5226 368.25 78.8991C369.04 78.7741 368.707 77.568 367.917 77.693C364.289 78.2807 360.603 78.4341 356.939 78.15C356.107 78.108 356.107 79.356 356.939 79.398V79.3991Z" fill="#E8E8E8"/>
<path d="M346.792 96.241C343.424 96.407 340.554 93.455 341.635 90.041C342.187 88.5593 343.094 87.2352 344.275 86.1842C345.457 85.1332 346.877 84.3871 348.413 84.011C349.104 83.8918 349.813 83.9269 350.488 84.1138C351.164 84.3007 351.79 84.6348 352.322 85.092C353.861 86.506 353.445 88.585 352.738 90.292C351.532 93.286 349.328 95.992 345.96 96.363C345.17 96.446 345.17 97.694 345.96 97.611C350.285 97.154 353.36 93.453 354.402 89.377C355.402 85.551 352.572 82.391 348.622 82.723C344.962 83.056 340.929 86.757 340.263 90.375C340.108 91.2933 340.164 92.2351 340.428 93.1282C340.692 94.0214 341.157 94.8423 341.787 95.5284C342.417 96.2145 343.196 96.7475 344.063 97.0868C344.93 97.426 345.864 97.5626 346.792 97.486C347.582 97.444 347.582 96.197 346.792 96.238V96.241Z" fill="#E8E8E8"/>
<path d="M347.499 84.556C345.836 88.132 344.299 91.75 342.925 95.41C342.634 96.159 343.84 96.491 344.131 95.743C345.503 92.167 346.959 88.632 348.581 85.181C348.914 84.433 347.874 83.809 347.5 84.557L347.499 84.556Z" fill="#E8E8E8"/>
<path d="M349.412 88.132C348.331 90.378 347.291 92.623 346.212 94.869C345.879 95.576 346.961 96.241 347.293 95.493C348.374 93.247 349.414 91.002 350.493 88.756C350.826 88.049 349.786 87.384 349.412 88.132Z" fill="#E8E8E8"/>
<path d="M40.273 20.225V31.619C40.282 31.7784 40.3517 31.9283 40.4677 32.0379C40.5838 32.1475 40.7374 32.2086 40.897 32.2086C41.0566 32.2086 41.2102 32.1475 41.3263 32.0379C41.4423 31.9283 41.512 31.7784 41.521 31.619V20.225C41.512 20.0656 41.4423 19.9157 41.3263 19.8061C41.2102 19.6964 41.0566 19.6353 40.897 19.6353C40.7374 19.6353 40.5838 19.6964 40.4677 19.8061C40.3517 19.9157 40.282 20.0656 40.273 20.225Z" fill="#E8E8E8"/>
<path d="M41.063 32.16H51.625C51.7844 32.151 51.9343 32.0813 52.0439 31.9653C52.1536 31.8492 52.2147 31.6956 52.2147 31.536C52.2147 31.3764 52.1536 31.2228 52.0439 31.1067C51.9343 30.9907 51.7844 30.921 51.625 30.912H41.063C40.9036 30.921 40.7537 30.9907 40.6441 31.1067C40.5344 31.2228 40.4733 31.3764 40.4733 31.536C40.4733 31.6956 40.5344 31.8492 40.6441 31.9653C40.7537 32.0813 40.9036 32.151 41.063 32.16Z" fill="#E8E8E8"/>
<path d="M52.374 30.829V18.437C52.3631 18.2791 52.2926 18.1313 52.1769 18.0233C52.0612 17.9153 51.9088 17.8553 51.7505 17.8553C51.5922 17.8553 51.4399 17.9153 51.3242 18.0233C51.2084 18.1313 51.138 18.2791 51.127 18.437V30.829C51.138 30.9869 51.2084 31.1347 51.3242 31.2427C51.4399 31.3507 51.5922 31.4107 51.7505 31.4107C51.9088 31.4107 52.0612 31.3507 52.1769 31.2427C52.2926 31.1347 52.3631 30.9869 52.374 30.829Z" fill="#E8E8E8"/>
<path d="M51.917 17.646H41.105C40.9456 17.655 40.7957 17.7247 40.6861 17.8407C40.5765 17.9568 40.5154 18.1103 40.5154 18.27C40.5154 18.4296 40.5765 18.5832 40.6861 18.6993C40.7957 18.8153 40.9456 18.885 41.105 18.894H51.917C52.0764 18.885 52.2263 18.8153 52.3359 18.6993C52.4456 18.5832 52.5067 18.4296 52.5067 18.27C52.5067 18.1103 52.4456 17.9568 52.3359 17.8407C52.2263 17.7247 52.0764 17.655 51.917 17.646Z" fill="#E8E8E8"/>
<path d="M45.554 32.825V45.508C45.563 45.6674 45.6327 45.8173 45.7487 45.9269C45.8648 46.0366 46.0184 46.0977 46.178 46.0977C46.3377 46.0977 46.4912 46.0366 46.6073 45.9269C46.7233 45.8173 46.793 45.6674 46.802 45.508V32.825C46.793 32.6656 46.7233 32.5157 46.6073 32.4061C46.4912 32.2964 46.3377 32.2354 46.178 32.2354C46.0184 32.2354 45.8648 32.2964 45.7487 32.4061C45.6327 32.5157 45.563 32.6656 45.554 32.825Z" fill="#E8E8E8"/>
<path d="M30.913 45.341C35.529 40.933 40.339 36.7053 45.343 32.658C45.967 32.158 45.093 31.286 44.47 31.785C39.48 35.819 34.698 40.019 30.04 44.468C29.458 45.009 30.331 45.882 30.913 45.341Z" fill="#E8E8E8"/>
<path d="M46.884 33.074L61.854 44.427C62.478 44.927 63.102 43.845 62.478 43.346L47.508 31.993C46.884 31.493 46.26 32.575 46.884 33.074Z" fill="#E8E8E8"/>
<path d="M26.093 46.839H34.368C34.5274 46.83 34.6773 46.7603 34.787 46.6443C34.8966 46.5282 34.9577 46.3747 34.9577 46.215C34.9577 46.0554 34.8966 45.9018 34.787 45.7857C34.6773 45.6697 34.5274 45.6 34.368 45.591H26.093C25.9336 45.6 25.7837 45.6697 25.6741 45.7857C25.5645 45.9018 25.5034 46.0554 25.5034 46.215C25.5034 46.3747 25.5645 46.5282 25.6741 46.6443C25.7837 46.7603 25.9336 46.83 26.093 46.839Z" fill="#E8E8E8"/>
<path d="M33.619 47.089V56.489C33.628 56.6484 33.6977 56.7983 33.8138 56.9079C33.9298 57.0176 34.0834 57.0787 34.243 57.0787C34.4027 57.0787 34.5562 57.0176 34.6723 56.9079C34.7883 56.7983 34.858 56.6484 34.867 56.489V47.089C34.867 47.0071 34.8509 46.9259 34.8195 46.8502C34.7882 46.7745 34.7422 46.7057 34.6842 46.6478C34.6263 46.5899 34.5575 46.5439 34.4818 46.5125C34.4061 46.4812 34.325 46.465 34.243 46.465C34.1611 46.465 34.0799 46.4812 34.0042 46.5125C33.9285 46.5439 33.8597 46.5899 33.8018 46.6478C33.7438 46.7057 33.6979 46.7745 33.6665 46.8502C33.6351 46.9259 33.619 47.0071 33.619 47.089Z" fill="#E8E8E8"/>
<path d="M25.177 46.506V57.482C25.186 57.6414 25.2557 57.7913 25.3717 57.9009C25.4878 58.0106 25.6414 58.0717 25.801 58.0717C25.9607 58.0717 26.1143 58.0106 26.2303 57.9009C26.3463 57.7913 26.416 57.6414 26.425 57.482V46.506C26.425 46.3405 26.3593 46.1818 26.2422 46.0648C26.1252 45.9478 25.9665 45.882 25.801 45.882C25.6355 45.882 25.4768 45.9478 25.3598 46.0648C25.2427 46.1818 25.177 46.3405 25.177 46.506Z" fill="#E8E8E8"/>
<path d="M25.677 58.233H33.37C33.5294 58.2239 33.6793 58.1543 33.7889 58.0382C33.8986 57.9222 33.9597 57.7686 33.9597 57.609C33.9597 57.4493 33.8986 57.2957 33.7889 57.1797C33.6793 57.0637 33.5294 56.994 33.37 56.985H25.677C25.5176 56.994 25.3677 57.0637 25.2581 57.1797C25.1484 57.2957 25.0873 57.4493 25.0873 57.609C25.0873 57.7686 25.1484 57.9222 25.2581 58.0382C25.3677 58.1543 25.5176 58.2239 25.677 58.233Z" fill="#E8E8E8"/>
<path d="M41.728 46.797V57.609C41.737 57.7684 41.8067 57.9182 41.9227 58.0279C42.0388 58.1375 42.1923 58.1986 42.352 58.1986C42.5116 58.1986 42.6652 58.1375 42.7812 58.0279C42.8973 57.9182 42.967 57.7684 42.976 57.609V46.797C42.976 46.6315 42.9102 46.4728 42.7932 46.3557C42.6762 46.2387 42.5175 46.173 42.352 46.173C42.1865 46.173 42.0278 46.2387 41.9108 46.3557C41.7937 46.4728 41.728 46.6315 41.728 46.797Z" fill="#E8E8E8"/>
<path d="M42.352 57.942H49.92C50.0794 57.933 50.2293 57.8633 50.3389 57.7473C50.4486 57.6312 50.5097 57.4776 50.5097 57.318C50.5097 57.1583 50.4486 57.0047 50.3389 56.8887C50.2293 56.7727 50.0794 56.703 49.92 56.694H42.352C42.1926 56.703 42.0428 56.7727 41.9331 56.8887C41.8235 57.0047 41.7624 57.1583 41.7624 57.318C41.7624 57.4776 41.8235 57.6312 41.9331 57.7473C42.0428 57.8633 42.1926 57.933 42.352 57.942Z" fill="#E8E8E8"/>
<path d="M42.768 47.421H49.468C49.6274 47.412 49.7773 47.3423 49.8869 47.2263C49.9966 47.1103 50.0576 46.9567 50.0576 46.797C50.0576 46.6374 49.9966 46.4838 49.8869 46.3678C49.7773 46.2517 49.6274 46.1821 49.468 46.173H42.768C42.6086 46.1821 42.4587 46.2517 42.3491 46.3678C42.2394 46.4838 42.1783 46.6374 42.1783 46.797C42.1783 46.9567 42.2394 47.1103 42.3491 47.2263C42.4587 47.3423 42.6086 47.412 42.768 47.421Z" fill="#E8E8E8"/>
<path d="M49.005 46.631V56.902C49.014 57.0614 49.0837 57.2113 49.1997 57.3209C49.3158 57.4306 49.4694 57.4917 49.629 57.4917C49.7886 57.4917 49.9422 57.4306 50.0583 57.3209C50.1743 57.2113 50.244 57.0614 50.253 56.902V46.631C50.244 46.4716 50.1743 46.3217 50.0583 46.2121C49.9422 46.1024 49.7886 46.0413 49.629 46.0413C49.4694 46.0413 49.3158 46.1024 49.1997 46.2121C49.0837 46.3217 49.014 46.4716 49.005 46.631Z" fill="#E8E8E8"/>
<path d="M59.36 46.631C59.235 49.331 59.152 52.037 59.152 54.74C59.163 54.8979 59.2334 55.0458 59.3492 55.1537C59.4649 55.2617 59.6172 55.3217 59.7755 55.3217C59.9338 55.3217 60.0862 55.2617 60.2019 55.1537C60.3176 55.0458 60.3881 54.8979 60.399 54.74C60.399 52.04 60.482 49.334 60.607 46.631C60.649 45.841 59.401 45.841 59.36 46.631Z" fill="#E8E8E8"/>
<path d="M59.9 46.923C62.645 46.632 65.389 46.299 68.134 46.008C68.924 45.925 68.924 44.677 68.134 44.76C65.389 45.051 62.645 45.384 59.9 45.675C59.11 45.758 59.068 47.006 59.9 46.923Z" fill="#E8E8E8"/>
<path d="M67.719 45.633C67.4203 48.3911 67.5183 51.1777 68.01 53.908C68.135 54.698 69.341 54.365 69.216 53.575C68.7591 50.9523 68.675 48.2782 68.966 45.632C69.049 44.842 67.802 44.842 67.718 45.632L67.719 45.633Z" fill="#E8E8E8"/>
<path d="M60.318 55.821L68.552 54.573C69.342 54.448 69.009 53.242 68.219 53.367L59.985 54.615C59.195 54.74 59.528 55.904 60.318 55.821Z" fill="#E8E8E8"/>
<path d="M45.387 58.316C43.8681 60.6482 42.5068 63.0793 41.312 65.593C40.979 66.3 42.06 66.965 42.393 66.217C43.5949 63.7069 44.956 61.2763 46.468 58.94C46.884 58.275 45.803 57.651 45.387 58.316Z" fill="#E8E8E8"/>
<path d="M45.762 58.815C47.2875 60.866 48.6237 63.0513 49.754 65.344C50.128 66.051 51.209 65.427 50.835 64.72C49.6831 62.4392 48.3481 60.2558 46.843 58.191C46.386 57.526 45.304 58.149 45.762 58.815Z" fill="#E8E8E8"/>
<path d="M39.067 67.21C39.94 67.21 40.814 67.21 41.728 67.252C42.1312 67.259 42.5337 67.2867 42.934 67.335C43.683 67.377 43.599 67.127 43.724 67.792C43.8759 69.5391 43.8202 71.298 43.558 73.032C43.475 73.822 44.722 73.822 44.806 73.032C44.889 71.784 44.972 70.495 44.972 69.248C45.105 68.4005 45.0483 67.534 44.806 66.711C44.432 66.087 43.558 66.17 42.935 66.129C41.6457 66.0457 40.3567 66.004 39.068 66.004C38.278 65.962 38.278 67.21 39.068 67.21H39.067Z" fill="#E8E8E8"/>
<path d="M38.235 67.174C38.36 68.629 38.485 70.043 38.609 71.499C38.692 72.663 38.526 74.368 38.983 75.491C39.029 75.6817 39.1344 75.8529 39.2839 75.98C39.4334 76.107 39.6193 76.1833 39.815 76.198C40.896 76.406 42.515 75.865 43.599 75.698C44.389 75.573 44.056 74.409 43.266 74.492C42.4138 74.7355 41.5323 74.8613 40.646 74.866C39.856 74.658 40.022 73.577 39.981 72.745C39.815 70.874 39.648 69.045 39.481 67.173C39.398 66.383 38.15 66.341 38.233 67.173L38.235 67.174Z" fill="#E8E8E8"/>
<path d="M47.633 67.007C47.543 68.2245 47.5153 69.4457 47.55 70.666C47.6872 71.7006 47.7706 72.7417 47.8 73.785C48.008 73.743 48.216 73.66 48.424 73.619C48.382 73.619 48.341 73.577 48.258 73.577C48.4001 73.7788 48.5527 73.9731 48.715 74.159V73.993C48.5729 74.1948 48.4204 74.3891 48.258 74.575C48.2807 74.5778 48.3037 74.5754 48.3253 74.5682C48.3469 74.5609 48.3666 74.5488 48.383 74.533C49.173 74.367 48.84 73.161 48.05 73.327C48.0274 73.3242 48.0044 73.3265 47.9828 73.3338C47.9611 73.3411 47.9414 73.3531 47.925 73.369C47.7928 73.3972 47.6747 73.4709 47.5912 73.5773C47.5077 73.6836 47.4641 73.8159 47.468 73.951V74.117C47.4721 74.2501 47.5187 74.3783 47.601 74.483C47.6832 74.5878 47.7967 74.6634 47.925 74.699C49.006 74.907 49.006 73.909 48.965 73.119C48.7708 71.0452 48.743 68.9592 48.882 66.881C48.924 66.174 47.676 66.216 47.634 67.006L47.633 67.007Z" fill="#E8E8E8"/>
<path d="M48.382 67.299C48.382 67.008 51.043 66.925 51.418 66.966C52.458 67.132 52.25 67.215 52.418 67.966C52.473 68.5337 52.445 69.1064 52.335 69.666C52.293 70.706 52.293 71.704 52.335 72.743C52.335 73.325 52.751 75.072 52.46 75.488C52.746 75.3991 53.0377 75.3296 53.333 75.28C53.291 75.28 53.25 75.238 53.208 75.238C53.291 75.487 53.416 75.695 53.499 75.945C53.499 75.903 53.541 75.862 53.541 75.82C53.5782 75.6624 53.553 75.4964 53.4704 75.3571C53.3879 75.2177 53.2545 75.1157 53.0984 75.0726C52.9422 75.0295 52.7755 75.0486 52.6331 75.1259C52.4908 75.2031 52.3839 75.3326 52.335 75.487C52.335 75.529 52.293 75.57 52.293 75.612C52.2546 75.7454 52.2624 75.8879 52.3153 76.0162C52.3681 76.1446 52.4628 76.2513 52.584 76.319C52.626 76.319 52.667 76.361 52.709 76.361C52.8558 76.4341 53.0237 76.4533 53.1832 76.4153C53.3428 76.3773 53.4839 76.2845 53.582 76.153C53.873 75.737 53.748 75.321 53.707 74.822C53.665 73.699 53.582 72.535 53.582 71.412C53.582 70.289 53.624 69.125 53.665 68.002C53.7986 67.4584 53.74 66.8853 53.499 66.38C52.792 65.424 50.546 65.715 49.632 65.839C48.592 65.964 47.22 66.089 47.132 67.339C47.132 68.087 48.38 68.087 48.38 67.297L48.382 67.299Z" fill="#E8E8E8"/>
<path d="M48.507 75.739C49.7501 75.662 50.9976 75.7743 52.207 76.072C52.3646 76.1093 52.5306 76.0839 52.67 76.0014C52.8094 75.9189 52.9113 75.7855 52.9544 75.6294C52.9976 75.4733 52.9784 75.3065 52.9012 75.1641C52.8239 75.0217 52.6944 74.9149 52.54 74.866C51.2286 74.4998 49.8645 74.3592 48.506 74.45C47.674 74.533 47.674 75.781 48.506 75.739H48.507Z" fill="#E8E8E8"/>
<path d="M64.142 56.071C63.142 58.271 62.271 60.562 61.481 62.849C61.232 63.598 62.437 63.93 62.687 63.182C63.436 60.982 64.267 58.816 65.224 56.695C65.557 55.946 64.475 55.323 64.143 56.071H64.142Z" fill="#E8E8E8"/>
<path d="M57.781 65.925C59.8599 65.3284 62.0195 65.0619 64.181 65.135C64.971 65.177 64.971 63.929 64.181 63.887C61.9056 63.8094 59.6321 64.0901 57.444 64.719C57.2896 64.7679 57.1601 64.8748 57.0828 65.0171C57.0055 65.1595 56.9865 65.3263 57.0296 65.4824C57.0727 65.6386 57.1746 65.7719 57.314 65.8545C57.4534 65.937 57.6194 65.9623 57.777 65.925H57.781Z" fill="#E8E8E8"/>
<path d="M57.738 65.344C57.5023 66.4701 57.5167 67.6341 57.78 68.754C57.8908 70.1512 57.9186 71.5536 57.863 72.954C57.78 74.784 58.237 74.992 60.063 74.825C61.311 74.7 63.016 75.033 63.473 73.661C63.7621 72.1675 63.9042 70.6492 63.897 69.128C64.022 67.628 64.188 66.092 64.313 64.595C64.396 63.805 63.149 63.805 63.065 64.595C62.899 66.342 62.732 68.13 62.565 69.876C62.5369 70.6415 62.4675 71.405 62.357 72.163C62.107 73.327 61.983 73.411 60.777 73.535C60.403 73.577 60.07 73.618 59.696 73.66C58.989 73.909 58.781 73.702 59.072 72.995C59.024 72.2882 59.0381 71.5784 59.114 70.874C59.072 69.294 58.449 67.174 58.906 65.674C59.197 64.884 57.991 64.551 57.742 65.341L57.738 65.344Z" fill="#E8E8E8"/>
<path d="M65.889 57.235C66.8374 58.7077 67.6982 60.2351 68.467 61.809C68.8 62.516 69.881 61.892 69.548 61.185C68.7862 59.6074 67.9252 58.0797 66.97 56.611C66.513 55.904 65.431 56.528 65.889 57.235Z" fill="#E8E8E8"/>
<path d="M67.303 63.639H73.541C73.7004 63.6299 73.8503 63.5603 73.9599 63.4442C74.0696 63.3282 74.1307 63.1746 74.1307 63.015C74.1307 62.8553 74.0696 62.7018 73.9599 62.5857C73.8503 62.4697 73.7004 62.4 73.541 62.391H73.167C73.0076 62.4 72.8577 62.4697 72.7481 62.5857C72.6384 62.7018 72.5774 62.8553 72.5774 63.015C72.5774 63.1746 72.6384 63.3282 72.7481 63.4442C72.8577 63.5603 73.0076 63.6299 73.167 63.639H73.541C73.7004 63.6299 73.8503 63.5603 73.9599 63.4442C74.0696 63.3282 74.1307 63.1746 74.1307 63.015C74.1307 62.8553 74.0696 62.7018 73.9599 62.5857C73.8503 62.4697 73.7004 62.4 73.541 62.391H67.303C67.1375 62.391 66.9788 62.4567 66.8618 62.5738C66.7448 62.6908 66.679 62.8495 66.679 63.015C66.679 63.1805 66.7448 63.3392 66.8618 63.4562C66.9788 63.5732 67.1375 63.639 67.303 63.639Z" fill="#E8E8E8"/>
<path d="M66.679 63.597C66.845 65.177 66.97 66.757 67.012 68.338C67.054 69.461 66.679 71.374 67.178 72.413C67.469 73.037 67.843 73.12 68.509 73.12C70.0991 72.9939 71.6815 72.7856 73.25 72.496C73.3751 72.4549 73.4853 72.3777 73.5666 72.2742C73.6479 72.1706 73.6968 72.0453 73.707 71.914C73.665 69.086 73.624 66.3 73.582 63.472C73.573 63.3126 73.5033 63.1627 73.3873 63.0531C73.2713 62.9434 73.1176 62.8823 72.958 62.8823C72.7984 62.8823 72.6448 62.9434 72.5287 63.0531C72.4127 63.1627 72.343 63.3126 72.334 63.472C72.376 66.3 72.417 69.086 72.459 71.914C72.6011 71.7122 72.7537 71.5179 72.916 71.332C71.916 71.457 70.916 71.582 69.922 71.748C69.589 71.79 68.633 72.081 68.342 71.831C68.134 71.665 68.342 70.376 68.342 70.131C68.3 67.969 68.176 65.806 67.968 63.685C67.843 62.812 66.596 62.812 66.679 63.602V63.597Z" fill="#E8E8E8"/>
<path d="M20.517 67.009C22.6469 65.0159 24.8968 63.1551 27.254 61.437C27.878 60.98 27.254 59.898 26.63 60.356C24.1815 62.1331 21.8482 64.0636 19.644 66.136C19.062 66.677 19.935 67.55 20.517 67.009Z" fill="#E8E8E8"/>
<path d="M26.883 60.894C28.114 62.6524 29.1593 64.5339 30.002 66.508C30.335 67.257 31.416 66.591 31.083 65.884C30.2258 63.917 29.1813 62.037 27.964 60.27C27.507 59.605 26.425 60.228 26.883 60.894Z" fill="#E8E8E8"/>
<path d="M14.99 69.295C16.113 69.212 17.19 69.129 18.317 69.045C18.8129 68.9637 19.3145 68.9219 19.817 68.92C20.399 68.712 20.566 68.754 20.317 69.086C20.148 69.3125 20.0734 69.5957 20.109 69.876C19.7141 71.9462 19.5053 74.0476 19.485 76.155C19.859 75.989 20.192 75.864 20.566 75.698C20.5146 75.6507 20.4723 75.5945 20.441 75.532C19.9 74.95 19.027 75.823 19.568 76.405C19.6195 76.4523 19.6618 76.5085 19.693 76.571C19.784 76.6551 19.8972 76.7112 20.0193 76.7325C20.1413 76.7538 20.2669 76.7395 20.381 76.6913C20.4951 76.6431 20.5928 76.563 20.6626 76.4606C20.7323 76.3582 20.771 76.2378 20.774 76.114C20.8213 74.3322 20.9739 72.5548 21.231 70.791C21.356 70.042 21.896 68.791 21.439 68.046C21.065 67.464 20.439 67.589 19.859 67.63C18.237 67.755 16.659 67.88 15.035 68.004C14.203 68.129 14.203 69.376 14.993 69.293L14.99 69.295Z" fill="#E8E8E8"/>
<path d="M15.82 68.088H15.654C15.5478 68.093 15.4441 68.1217 15.3505 68.1721C15.2568 68.2224 15.1757 68.2932 15.113 68.379C14.448 69.502 14.489 71.456 14.281 72.745L13.408 78.234C13.366 78.567 13.491 78.941 13.824 78.983C15.7046 79.4229 17.6737 79.2927 19.48 78.609C20.229 78.318 19.896 77.109 19.147 77.403C17.5586 78.0242 15.8203 78.1545 14.157 77.777C14.282 78.026 14.448 78.277 14.573 78.526C14.698 77.694 16.153 69.336 15.737 69.294C16.61 69.419 16.61 68.171 15.82 68.088Z" fill="#E8E8E8"/>
<path d="M27.131 67.8801L27.089 67.922H27.962C27.92 67.922 27.92 67.8801 27.879 67.8801V68.753C28.1962 68.7154 28.5157 68.7014 28.835 68.711C29.292 68.669 29.791 68.628 30.249 68.628C31.1232 68.5933 31.9987 68.6211 32.869 68.711C32.703 68.337 32.578 68.0041 32.412 67.6301C32.3349 67.6748 32.2648 67.7308 32.204 67.796C31.414 67.879 31.414 69.1271 32.204 69.0441C32.4187 69.0378 32.6296 68.9864 32.8231 68.8932C33.0166 68.8 33.1883 68.667 33.327 68.503C33.4129 68.4127 33.4705 68.2993 33.4929 68.1767C33.5152 68.0541 33.5012 67.9276 33.4527 67.8128C33.4042 67.698 33.3232 67.5999 33.2197 67.5305C33.1162 67.4611 32.9946 67.4234 32.87 67.422C31.6664 67.3249 30.4575 67.3109 29.252 67.3801C28.67 67.4221 27.464 67.2971 27.052 67.8371C26.9925 67.8931 26.9451 67.9608 26.9128 68.0358C26.8804 68.1109 26.8637 68.1918 26.8637 68.2735C26.8637 68.3553 26.8804 68.4362 26.9128 68.5112C26.9451 68.5863 26.9925 68.6539 27.052 68.71C27.094 68.71 27.094 68.7521 27.135 68.7521C27.1911 68.8115 27.2587 68.8589 27.3338 68.8913C27.4089 68.9237 27.4898 68.9404 27.5715 68.9404C27.6533 68.9404 27.7341 68.9237 27.8092 68.8913C27.8843 68.8589 27.9519 68.8115 28.008 68.7521L28.05 68.71C28.55 68.169 27.676 67.296 27.135 67.878L27.131 67.8801Z" fill="#E8E8E8"/>
<path d="M26.633 68.172C26.508 69.872 26.383 71.582 26.3 73.287C26.258 74.243 25.718 76.697 26.3 77.57C26.4096 77.764 26.576 77.9198 26.7767 78.0165C26.9775 78.1132 27.203 78.1462 27.423 78.111C27.9812 78.0078 28.5256 77.84 29.045 77.611C30.0478 77.3411 31.0838 77.2152 32.122 77.237C32.2799 77.2261 32.4277 77.1556 32.5357 77.0399C32.6437 76.9242 32.7037 76.7718 32.7037 76.6135C32.7037 76.4553 32.6437 76.3029 32.5357 76.1872C32.4277 76.0714 32.2799 76.001 32.122 75.99C31.199 75.9839 30.2782 76.0815 29.377 76.281C28.961 76.364 28.171 76.822 27.797 76.738C27.506 76.946 27.381 76.904 27.464 76.572C27.4224 76.2266 27.4224 75.8774 27.464 75.532C27.506 73.12 27.714 70.667 27.88 68.255C27.8894 68.171 27.8816 68.0859 27.8572 68.005C27.8328 67.924 27.7922 67.8489 27.738 67.784C27.6837 67.7192 27.6169 67.666 27.5415 67.6277C27.4661 67.5893 27.3838 67.5667 27.2994 67.5611C27.215 67.5555 27.1304 67.567 27.0506 67.595C26.9708 67.623 26.8975 67.6669 26.8352 67.724C26.7728 67.7811 26.7226 67.8502 26.6877 67.9272C26.6528 68.0042 26.6338 68.0875 26.632 68.172H26.633Z" fill="#E8E8E8"/>
<path d="M31.998 68.297C31.6582 71.0836 31.5055 73.8899 31.541 76.697C31.55 76.8564 31.6197 77.0063 31.7357 77.1159C31.8518 77.2256 32.0054 77.2867 32.165 77.2867C32.3246 77.2867 32.4782 77.2256 32.5943 77.1159C32.7103 77.0063 32.78 76.8564 32.789 76.697C32.7535 73.8899 32.9061 71.0836 33.246 68.297C33.371 67.507 32.123 67.507 31.998 68.297Z" fill="#E8E8E8"/>
<path d="M364.174 242.744C373.98 264.327 380.86 287.123 384.634 310.527C384.759 311.317 385.965 310.985 385.84 310.194C382.025 286.691 375.103 263.799 365.256 242.12C364.923 241.413 363.842 242.037 364.175 242.744H364.174Z" fill="#E8E8E8"/>
<path d="M359.932 265.532C366.649 267.343 372.474 271.542 376.316 277.342C376.773 278.007 377.855 277.384 377.397 276.718C373.385 270.639 367.293 266.233 360.264 264.326C360.106 264.289 359.94 264.314 359.801 264.397C359.662 264.479 359.56 264.612 359.517 264.769C359.474 264.925 359.493 265.091 359.57 265.234C359.647 265.376 359.777 265.483 359.931 265.532H359.932Z" fill="#E8E8E8"/>
<path d="M376.151 248.274C373.848 252.033 372.334 256.221 371.702 260.583C371.577 261.373 372.783 261.706 372.908 260.916C373.524 256.659 374.995 252.571 377.233 248.898C377.649 248.233 376.567 247.609 376.152 248.274H376.151Z" fill="#E8E8E8"/>
<path d="M367.293 314.393C376.733 316.68 386.339 314.975 395.778 313.852C406.002 312.806 416.273 312.279 426.551 312.272C426.71 312.263 426.86 312.193 426.97 312.077C427.08 311.961 427.141 311.808 427.141 311.648C427.141 311.488 427.08 311.335 426.97 311.219C426.86 311.103 426.71 311.033 426.551 311.024C416.529 311.19 406.507 311.398 396.568 312.524C386.962 313.647 377.19 315.518 367.625 313.189C367.469 313.157 367.307 313.186 367.172 313.269C367.036 313.352 366.937 313.483 366.895 313.636C366.853 313.79 366.87 313.953 366.944 314.094C367.018 314.235 367.142 314.342 367.292 314.395L367.293 314.393Z" fill="#E8E8E8"/>
<path d="M348.955 190.804C344.838 191.594 339.806 187.644 339.931 183.277C340.097 178.328 346.293 176.665 350.244 176.623C354.61 176.623 357.688 179.991 356.644 184.399C356.142 186.273 355.03 187.927 353.484 189.099C352.611 189.806 349.076 192.384 348.078 191.137C347.578 190.513 346.706 191.386 347.205 192.01C348.536 193.673 351.28 191.968 352.694 191.178C354.949 189.923 356.698 187.924 357.643 185.522C359.306 180.657 356.354 175.791 351.243 175.422C346.378 175.048 338.851 177.293 338.726 183.281C338.643 188.521 344.381 192.929 349.326 192.014C350.075 191.889 349.742 190.683 348.952 190.808L348.955 190.804Z" fill="#E8E8E8"/>
<path d="M29.752 210.39C28.2076 212.145 26.8683 214.071 25.76 216.129C25.386 216.836 26.467 217.46 26.841 216.753C27.9146 214.79 29.1982 212.949 30.669 211.263C31.169 210.681 30.295 209.763 29.754 210.39H29.752Z" fill="#161616"/>
<path d="M29.711 210.889C30.959 212.635 32.211 214.34 33.454 216.089C33.911 216.754 34.993 216.131 34.535 215.465C33.287 213.718 32.035 212.013 30.792 210.265C30.292 209.6 29.212 210.223 29.711 210.889Z" fill="#161616"/>
<path d="M29.628 213.343C30.002 228.022 30.335 242.702 30.709 257.423C30.718 257.582 30.7877 257.732 30.9037 257.842C31.0198 257.952 31.1733 258.013 31.333 258.013C31.4926 258.013 31.6462 257.952 31.7623 257.842C31.8783 257.732 31.948 257.582 31.957 257.423C31.583 242.744 31.25 228.064 30.876 213.343C30.834 212.553 29.587 212.511 29.628 213.343Z" fill="#161616"/>
<path d="M32.081 258.588H87.472C87.6314 258.579 87.7813 258.509 87.8909 258.393C88.0006 258.277 88.0616 258.124 88.0616 257.964C88.0616 257.804 88.0006 257.651 87.8909 257.535C87.7813 257.419 87.6314 257.349 87.472 257.34H32.081C31.9216 257.349 31.7717 257.419 31.6621 257.535C31.5524 257.651 31.4913 257.804 31.4913 257.964C31.4913 258.124 31.5524 258.277 31.6621 258.393C31.7717 258.509 31.9216 258.579 32.081 258.588Z" fill="#161616"/>
<path d="M85.059 257.339C86.348 257.839 87.596 258.339 88.885 258.839C88.719 258.381 88.511 257.924 88.344 257.467C87.7315 258.564 86.8428 259.481 85.766 260.128C85.5605 260.259 85.4139 260.465 85.3572 260.703C85.3005 260.94 85.338 261.19 85.4618 261.4C85.5857 261.61 85.7862 261.764 86.0213 261.829C86.2563 261.895 86.5075 261.866 86.722 261.75C88.091 260.95 89.2242 259.802 90.007 258.423C90.0781 258.3 90.1205 258.163 90.1311 258.022C90.1417 257.88 90.1202 257.738 90.0681 257.606C90.0161 257.474 89.9349 257.356 89.8307 257.26C89.7264 257.164 89.6018 257.092 89.466 257.051C88.177 256.551 86.929 256.051 85.64 255.551C84.434 255.093 83.94 256.882 85.058 257.339H85.059Z" fill="#161616"/>
<path d="M44.514 256.215C50.377 244.447 51.292 231.181 54.744 218.664C55.617 215.464 56.491 211.719 58.902 209.307C62.437 205.772 66.928 208.267 68.383 212.426C69.464 215.586 69.506 219.246 69.714 222.573C69.922 226.149 70.088 229.726 70.296 233.302C70.753 240.954 71.544 248.647 74.122 255.924C74.372 256.673 75.577 256.34 75.328 255.591C72.628 247.94 71.876 239.831 71.461 231.763C71.253 227.813 71.087 223.82 70.796 219.87C70.547 216.71 70.422 213.258 68.925 210.389C68.3811 209.229 67.5334 208.238 66.4718 207.52C65.4102 206.803 64.1743 206.386 62.895 206.314C60.195 206.314 57.946 208.185 56.574 210.348C54.786 213.217 53.954 216.835 53.123 220.079C52.208 223.697 51.46 227.356 50.711 231.016C49.048 239.416 47.343 247.858 43.475 255.592C43.059 256.299 44.14 256.923 44.515 256.216L44.514 256.215Z" fill="#4C4C4C"/>
<path d="M50.212 204.651C49.38 203.445 51.085 201.823 52.083 203.151C53.039 204.399 51.251 205.646 50.253 204.69C49.671 204.149 48.798 205.023 49.38 205.563C49.8221 205.966 50.3886 206.207 50.9859 206.245C51.5832 206.283 52.1756 206.115 52.665 205.771C52.9234 205.585 53.1406 205.347 53.3028 205.073C53.4651 204.799 53.569 204.494 53.6081 204.178C53.6471 203.862 53.6205 203.541 53.5298 203.235C53.4391 202.93 53.2863 202.647 53.081 202.403C52.8951 202.139 52.6565 201.916 52.3803 201.748C52.1041 201.581 51.7962 201.472 51.476 201.429C51.1557 201.386 50.83 201.41 50.5194 201.499C50.2088 201.588 49.92 201.74 49.671 201.946C49.2094 202.353 48.9061 202.91 48.8146 203.518C48.7232 204.127 48.8494 204.748 49.171 205.273C49.587 205.938 50.671 205.315 50.211 204.649L50.212 204.651Z" fill="#4C4C4C"/>
<path d="M59.402 199.121C58.737 198.165 60.192 197.291 60.816 198.289C61.481 199.37 59.61 200.576 58.986 199.37C58.612 198.663 57.572 199.287 57.905 199.994C58.0453 200.253 58.2372 200.48 58.4688 200.661C58.7004 200.842 58.9668 200.974 59.2515 201.048C59.5362 201.122 59.8331 201.137 60.1237 201.091C60.4143 201.046 60.6925 200.941 60.941 200.784C61.4812 200.486 61.8811 199.986 62.0527 199.393C62.2242 198.801 62.1535 198.164 61.856 197.624C61.5644 197.133 61.0953 196.773 60.5457 196.618C59.9961 196.463 59.408 196.525 58.903 196.792C58.4353 197.095 58.1042 197.569 57.98 198.113C57.8559 198.656 57.9484 199.227 58.238 199.703C58.779 200.41 59.86 199.786 59.402 199.121Z" fill="#4C4C4C"/>
<path d="M55.784 189.972C55.451 189.016 56.491 188.017 57.323 188.808C58.155 189.599 57.198 190.721 56.242 190.388C55.493 190.139 55.161 191.344 55.909 191.594C56.3812 191.75 56.8922 191.743 57.3599 191.574C57.8276 191.405 58.2251 191.084 58.4887 190.662C58.7522 190.24 58.8667 189.742 58.8136 189.248C58.7606 188.754 58.5431 188.291 58.196 187.935C57.8376 187.568 57.3599 187.341 56.849 187.296C56.3382 187.25 55.8278 187.389 55.41 187.686C55.0062 187.974 54.7067 188.385 54.5567 188.857C54.4066 189.33 54.4141 189.838 54.578 190.306C54.869 191.055 56.078 190.763 55.784 189.973V189.972Z" fill="#4C4C4C"/>
<path d="M71.669 201.075C71.544 200.992 71.711 201.117 71.752 201.2V201.325H71.918C72.0463 201.333 72.1725 201.361 72.292 201.408C72.1498 201.206 71.9973 201.012 71.835 200.826V201.826C71.9771 201.624 72.1296 201.43 72.292 201.244C71.9753 201.375 71.6259 201.404 71.292 201.327C70.543 201.078 70.211 202.283 70.959 202.533C71.5041 202.715 72.0977 202.685 72.622 202.45C72.872 202.325 73.079 202.159 73.079 201.868V200.868C73.0814 200.733 73.0372 200.602 72.954 200.496C72.8707 200.39 72.7535 200.316 72.622 200.286C71.957 200.12 71.166 200.036 70.751 200.702C70.6579 200.82 70.592 200.957 70.5581 201.104C70.5242 201.251 70.5231 201.403 70.555 201.55C70.5868 201.697 70.6507 201.835 70.7421 201.955C70.8336 202.074 70.9503 202.172 71.084 202.241C71.2292 202.322 71.3993 202.345 71.5609 202.306C71.7224 202.268 71.8637 202.17 71.957 202.033C72.032 201.865 72.0439 201.676 71.9904 201.501C71.9369 201.325 71.8217 201.174 71.666 201.077L71.669 201.075Z" fill="#4C4C4C"/>
<path d="M141.115 35.528C141.323 35.611 140.865 37.69 141.073 38.189C141.232 38.4896 141.464 38.7459 141.747 38.9346C142.03 39.1233 142.356 39.2386 142.695 39.27C143.573 39.3528 144.449 39.1002 145.148 38.563C145.896 38.106 147.685 36.525 148.225 38.272C148.35 38.646 147.934 39.561 148.059 40.06C148.433 41.723 150.013 41.64 151.136 40.767C151.502 40.4233 151.837 40.0475 152.136 39.644C152.552 38.644 153.176 38.438 153.966 39.02C153.963 39.2614 154.006 39.5011 154.091 39.727C154.507 40.351 154.715 40.767 155.546 40.727C156.336 40.685 156.336 39.438 155.546 39.479C155.588 39.479 154.673 37.608 154.174 37.4C153.874 37.3036 153.556 37.2796 153.245 37.3302C152.934 37.3808 152.64 37.5045 152.386 37.691C152.03 37.9227 151.709 38.2027 151.43 38.523C150.806 39.147 150.848 40.062 149.85 39.438C148.894 38.856 149.684 37.938 149.018 37.109C147.937 35.737 146.107 36.485 144.943 37.234C144.278 37.65 142.614 39.147 142.198 36.943C142.156 36.652 142.406 36.194 142.406 35.903C142.453 35.6341 142.409 35.3571 142.281 35.116C142.153 34.8749 141.948 34.6834 141.699 34.572C141.034 34.072 140.41 35.154 141.117 35.528H141.115Z" fill="#282828"/>
<path d="M97.618 132.794C98.118 138.616 98.618 144.438 99.157 150.26C99.168 150.418 99.2384 150.566 99.3542 150.674C99.4699 150.782 99.6222 150.842 99.7805 150.842C99.9388 150.842 100.091 150.782 100.207 150.674C100.323 150.566 100.393 150.418 100.404 150.26C100.404 150.135 100.446 149.969 100.446 149.844C100.529 149.054 99.282 149.054 99.198 149.844C99.198 149.969 99.156 150.135 99.156 150.26H100.403C99.903 144.438 99.403 138.616 98.864 132.794C98.781 132.004 97.533 131.962 97.616 132.794H97.618Z" fill="#353434"/>
<path d="M98.576 133.252C100.323 132.878 103.358 132.337 104.689 133.793C105.895 135.082 105.604 137.619 105.77 139.365C106.061 142.858 106.352 146.351 106.643 149.803C106.726 150.593 107.974 150.593 107.891 149.803C107.475 144.813 107.434 139.573 106.602 134.625C105.978 130.758 101.154 131.465 98.244 132.047C97.454 132.213 97.787 133.419 98.577 133.253L98.576 133.252Z" fill="#353434"/>
<path d="M109.22 109.798C110.551 123.102 111.009 136.48 110.592 149.844C110.55 150.634 111.798 150.634 111.84 149.844C112.256 136.48 111.798 123.103 110.468 109.798C110.385 109.008 109.137 108.966 109.22 109.798Z" fill="#353434"/>
<path d="M110.716 109.798C112.527 109.903 114.323 110.181 116.08 110.63C118.201 111.379 117.868 115.204 118.08 117.159C118.454 120.943 118.704 124.727 118.953 128.512C119.41 136.371 119.577 144.231 119.743 152.09C119.754 152.248 119.824 152.396 119.94 152.504C120.056 152.612 120.208 152.672 120.367 152.672C120.525 152.672 120.677 152.612 120.793 152.504C120.909 152.396 120.979 152.248 120.99 152.09C120.782 143.025 120.574 133.918 119.95 124.852C119.659 120.61 119.45 116.327 118.786 112.127C118.204 108.551 113.921 109.008 111.051 108.551C110.261 108.509 109.928 109.674 110.718 109.799L110.716 109.798Z" fill="#353434"/>
<path d="M121.28 101.98C122.694 117.78 124.122 133.568 125.563 149.345C125.646 150.135 126.894 150.135 126.811 149.345C125.397 133.545 123.969 117.757 122.528 101.98C122.486 101.19 121.239 101.19 121.28 101.98Z" fill="#353434"/>
<path d="M122.071 102.604C124.07 102.216 126.115 102.118 128.142 102.313C129.847 102.479 131.053 102.813 131.136 104.642C131.178 105.266 131.178 105.931 131.178 106.555C131.303 109.674 131.428 112.793 131.594 115.911C132.135 127.846 132.758 139.739 133.382 151.674C133.424 152.464 134.671 152.464 134.63 151.674C133.965 138.783 133.299 125.933 132.717 113.042C132.592 110.342 132.468 107.678 132.384 104.975C132.342 103.769 132.342 102.563 131.22 101.775C130.021 101.181 128.689 100.908 127.353 100.985C125.471 100.875 123.584 101.015 121.739 101.401C120.949 101.567 121.282 102.773 122.072 102.607L122.071 102.604Z" fill="#353434"/>
<path d="M88.677 97.987C87.305 100.687 85.977 103.393 84.602 106.096C84.228 106.803 85.309 107.427 85.683 106.72C87.055 104.02 88.383 101.314 89.758 98.611C90.091 97.904 89.009 97.239 88.677 97.987Z" fill="#161616"/>
<path d="M88.843 99.235C89.4033 101.631 90.7323 103.778 92.627 105.348C93.251 105.848 94.127 104.974 93.5 104.475C91.7782 103.056 90.5665 101.114 90.049 98.944C90.0104 98.7841 89.9099 98.6461 89.7695 98.5603C89.6291 98.4745 89.4604 98.448 89.3005 98.4865C89.1406 98.5251 89.0025 98.6257 88.9167 98.766C88.8309 98.9064 88.8044 99.0751 88.843 99.235Z" fill="#161616"/>
<path d="M87.97 99.818C87.7161 118.043 90.097 136.209 95.039 153.753C95.0879 153.907 95.1948 154.037 95.3371 154.114C95.4795 154.191 95.6462 154.211 95.8024 154.167C95.9585 154.124 96.0919 154.022 96.1744 153.883C96.257 153.744 96.2822 153.578 96.245 153.42C91.3346 135.985 88.9675 117.932 89.217 99.82C89.206 99.6621 89.1356 99.5143 89.0199 99.4063C88.9041 99.2983 88.7518 99.2383 88.5935 99.2383C88.4352 99.2383 88.2829 99.2983 88.1671 99.4063C88.0514 99.5143 87.9809 99.6621 87.97 99.82V99.818Z" fill="#161616"/>
<path d="M96.537 154.833C106.27 153.918 116.029 153.433 125.813 153.378C134.92 153.336 144.775 152.962 153.176 157.078C153.883 157.411 154.507 156.371 153.8 155.997C145.649 152.005 136.334 152.088 127.435 152.13C117.122 152.13 106.822 152.615 96.535 153.585C95.745 153.668 95.745 154.916 96.535 154.833H96.537Z" fill="#161616"/>
<path d="M148.06 152.796C150.301 154.149 152.44 155.664 154.46 157.329L154.585 156.329C152.885 157.618 151.217 158.907 149.512 160.196C148.888 160.696 149.512 161.776 150.136 161.277C151.836 159.988 153.504 158.699 155.209 157.41C155.29 157.358 155.359 157.289 155.41 157.208C155.462 157.127 155.495 157.035 155.507 156.939C155.519 156.844 155.509 156.747 155.48 156.655C155.45 156.564 155.4 156.48 155.334 156.41C153.243 154.672 151.018 153.1 148.681 151.71C148.538 151.627 148.367 151.605 148.207 151.648C148.048 151.691 147.911 151.795 147.828 151.939C147.746 152.082 147.723 152.252 147.766 152.412C147.809 152.572 147.914 152.708 148.057 152.791L148.06 152.796Z" fill="#161616"/>
<path d="M91.837 120.901L93.708 123.147C93.7783 123.212 93.8622 123.262 93.9536 123.291C94.045 123.321 94.1419 123.33 94.2372 123.318C94.3326 123.306 94.4241 123.273 94.5055 123.222C94.5868 123.171 94.656 123.103 94.708 123.022C98.035 116.493 101.32 109.922 104.688 103.394C105.561 101.731 106.767 103.103 108.015 103.56C108.803 103.824 109.659 103.795 110.427 103.477C112.427 102.728 113.754 100.649 114.669 98.82C116.169 95.701 117.497 92.458 118.952 89.297C119.326 88.424 119.742 87.55 120.116 86.719C120.295 86.036 120.591 85.3889 120.989 84.806C122.278 83.642 125.439 86.306 126.52 86.968C128.308 88.049 130.886 90.461 133.22 89.837C134.967 89.38 135.798 87.467 136.297 85.886C138.511 78.8498 141.976 72.271 146.527 66.466C146.623 66.3666 146.683 66.2384 146.699 66.1011C146.715 65.9639 146.685 65.8253 146.614 65.7069C146.543 65.5884 146.434 65.4967 146.306 65.4459C146.177 65.3952 146.036 65.3882 145.903 65.426C143.769 66.1352 141.772 67.2039 139.998 68.586C139.416 69.043 140.164 69.875 140.747 69.586C142.369 68.796 144.032 67.964 145.654 67.174C145.363 67.049 145.03 66.925 144.739 66.8C145.239 69.3 145.739 71.79 146.194 74.285C146.36 75.075 147.566 74.742 147.4 73.952C146.9 71.452 146.4 68.962 145.945 66.467C145.918 66.376 145.871 66.2921 145.808 66.2217C145.744 66.1513 145.665 66.096 145.577 66.0601C145.49 66.0242 145.395 66.0086 145.3 66.0142C145.205 66.0199 145.113 66.0468 145.03 66.093C143.408 66.883 141.745 67.715 140.123 68.505L140.872 69.505C142.474 68.236 144.291 67.2644 146.236 66.636C146.028 66.303 145.82 65.929 145.612 65.596C141.974 70.0698 139.017 75.0571 136.838 80.396C136.256 81.81 135.757 83.265 135.299 84.721C134.925 85.885 134.343 88.38 132.799 88.63C131.052 88.921 128.807 86.93 127.393 86.052C125.979 85.174 124.607 84.222 123.151 83.432C121.488 82.559 120.451 82.891 119.616 84.513C118.036 87.632 116.747 90.959 115.291 94.161C114.21 96.573 112.838 101.438 109.885 102.228C107.885 102.769 106.059 99.775 104.271 101.521C103.231 102.521 102.691 104.39 102.071 105.638C101.115 107.509 100.2 109.338 99.243 111.21C97.372 114.91 95.459 118.61 93.588 122.31L94.588 122.185L92.717 119.939C92.176 119.398 91.303 120.272 91.844 120.895L91.837 120.901Z" fill="#161616"/>
<path d="M272.855 17.563C268.78 15.317 267.033 9.62001 269.611 5.58701C272.231 1.47001 278.593 0.722007 282.294 3.75701C286.078 6.91701 286.12 13.405 282.502 16.69C278.759 20.142 272.48 19.227 269.402 15.401C268.902 14.777 268.03 15.65 268.529 16.274C269.988 17.9896 271.95 19.2022 274.137 19.7396C276.324 20.2771 278.625 20.112 280.713 19.268C282.658 18.3853 284.263 16.8924 285.283 15.0157C286.304 13.1389 286.685 10.9806 286.368 8.868C286.145 6.76458 285.205 4.80202 283.705 3.31018C282.206 1.81834 280.238 0.888164 278.134 0.675998C273.934 0.175998 269.443 2.256 267.863 6.332C267.035 8.56216 267.023 11.0136 267.83 13.2516C268.637 15.4896 270.21 17.3695 272.271 18.558C272.936 19.015 273.56 17.934 272.853 17.558L272.855 17.563Z" fill="#353434"/>
<path d="M290.902 25.215C289.155 21.971 293.647 18.395 295.892 21.888C297.892 24.965 292.981 27.294 291.401 24.425C291.027 23.718 289.946 24.342 290.32 25.049C290.838 25.8962 291.652 26.522 292.603 26.806C293.555 27.0901 294.578 27.0125 295.476 26.588C295.963 26.3784 296.397 26.0628 296.746 25.6641C297.095 25.2655 297.351 24.794 297.494 24.2839C297.638 23.7739 297.666 23.2382 297.577 22.7159C297.487 22.1936 297.282 21.6979 296.976 21.265C296.7 20.7758 296.325 20.3491 295.876 20.0118C295.426 19.6745 294.912 19.4338 294.365 19.3049C293.818 19.176 293.251 19.1617 292.698 19.2629C292.145 19.3642 291.62 19.5787 291.154 19.893C290.247 20.5622 289.61 21.5342 289.358 22.6328C289.107 23.7313 289.257 24.8837 289.782 25.881C290.239 26.546 291.32 25.923 290.905 25.216L290.902 25.215Z" fill="#353434"/>
<path d="M269.029 339.759H367.168C367.327 339.75 367.477 339.68 367.587 339.564C367.697 339.448 367.758 339.295 367.758 339.135C367.758 338.975 367.697 338.822 367.587 338.706C367.477 338.59 367.327 338.52 367.168 338.511H269.029C268.863 338.511 268.705 338.577 268.588 338.694C268.471 338.811 268.405 338.97 268.405 339.135C268.405 339.301 268.471 339.459 268.588 339.576C268.705 339.693 268.863 339.759 269.029 339.759Z" fill="#161616"/>
<path d="M174.756 358.639H240.044C240.203 358.63 240.353 358.56 240.463 358.444C240.573 358.328 240.634 358.175 240.634 358.015C240.634 357.855 240.573 357.702 240.463 357.586C240.353 357.47 240.203 357.4 240.044 357.391H174.756C174.597 357.4 174.447 357.47 174.337 357.586C174.227 357.702 174.166 357.855 174.166 358.015C174.166 358.175 174.227 358.328 174.337 358.444C174.447 358.56 174.597 358.63 174.756 358.639Z" fill="#161616"/>
<path d="M239.212 353.65H295.767C295.926 353.641 296.076 353.571 296.186 353.455C296.296 353.339 296.357 353.186 296.357 353.026C296.357 352.866 296.296 352.713 296.186 352.597C296.076 352.481 295.926 352.411 295.767 352.402H239.212C239.053 352.411 238.903 352.481 238.793 352.597C238.683 352.713 238.622 352.866 238.622 353.026C238.622 353.186 238.683 353.339 238.793 353.455C238.903 353.571 239.053 353.641 239.212 353.65Z" fill="#161616"/>
<path d="M87.221 350.239H104.271C104.514 350.231 104.744 350.129 104.913 349.954C105.082 349.78 105.176 349.546 105.176 349.303C105.176 349.06 105.082 348.827 104.913 348.652C104.744 348.478 104.514 348.376 104.271 348.368H87.221C86.9782 348.376 86.748 348.478 86.579 348.652C86.4101 348.827 86.3156 349.06 86.3156 349.303C86.3156 349.546 86.4101 349.78 86.579 349.954C86.748 350.129 86.9782 350.231 87.221 350.239Z" fill="#161616"/>
<path d="M110.092 350.239H115.914C116.157 350.231 116.387 350.129 116.556 349.954C116.725 349.78 116.819 349.546 116.819 349.303C116.819 349.06 116.725 348.827 116.556 348.652C116.387 348.478 116.157 348.376 115.914 348.368H110.092C109.849 348.376 109.619 348.478 109.45 348.652C109.281 348.827 109.187 349.06 109.187 349.303C109.187 349.546 109.281 349.78 109.45 349.954C109.619 350.129 109.849 350.231 110.092 350.239Z" fill="#161616"/>
<path d="M63.02 274.722C63.81 274.847 64.891 275.845 65.72 280.585L73.08 281.085C75.118 279.385 77.155 277.675 79.193 275.929C79.484 277.592 79.858 280.046 80.193 283.04C80.942 289.985 80.484 291.648 80.942 295.515C81.6437 301.153 83.559 306.573 86.556 311.4C89.966 316.764 92.211 316.931 94.873 322.17C96.5037 325.463 97.5052 329.031 97.826 332.691C98.242 332.649 103.526 332.234 106.891 336.35C108.43 338.263 110.135 341.839 108.845 344.667C107.598 347.412 104.728 346.996 99.53 351.528C97.7 353.108 95.954 354.688 96.37 355.936C96.786 357.225 99.031 356.976 102.982 359.096C105.061 360.219 106.059 360.796 106.392 361.796C107.64 365.414 99.738 370.986 98.574 371.818C94.748 374.479 90.091 376.559 89.509 375.727C88.636 374.479 98.034 367.618 96.62 364.957C95.58 362.957 89.675 365.457 88.303 363.257C86.803 360.845 92.087 354.815 94.915 351.53C100.363 345.209 103.815 343.63 103.232 341.508C102.608 339.262 97.868 337.765 95.414 339.308C93.335 340.597 93.751 343.508 92.961 345.421C91.461 349.08 84.311 352.075 59.693 349.33C60.4345 347.848 61.4997 346.552 62.8096 345.537C64.1196 344.522 65.6409 343.815 67.261 343.467C65.7974 341.103 65.2881 338.27 65.8365 335.544C66.3849 332.818 67.95 330.402 70.214 328.788C68.551 325.503 66.887 321.927 65.307 318.018C64.307 315.481 63.394 313.028 62.607 310.658C60.0497 310.8 57.5264 310.019 55.496 308.458C52.377 305.713 53.625 302.345 50.381 299.892C47.345 297.563 43.727 298.603 43.104 296.607C43.0143 296.122 43.0513 295.622 43.2116 295.156C43.3719 294.69 43.6501 294.273 44.019 293.946C45.599 292.446 48.427 293.197 51.504 294.029C54.5023 294.864 57.371 296.109 60.029 297.729C58.0342 294.925 56.8933 291.603 56.744 288.165C56.449 281.338 60.609 274.389 63.02 274.722Z" fill="#161616" stroke="#B2B2B2"/>
<path d="M61.564 304.579C58.695 305.827 59.776 314.268 60.815 321.961C61.6779 328.324 62.9841 334.618 64.724 340.799C58.902 345.29 59.193 346.579 59.36 346.912C59.901 348.035 63.768 347.369 64.974 347.162C66.4202 347.008 67.8277 346.599 69.132 345.956C72.084 344.002 70.546 338.056 69.632 328.574C68.301 314.851 69.882 309.112 65.474 305.827C64.891 305.37 62.978 303.956 61.564 304.579Z" fill="#161616" stroke="#B2B2B2"/>
<path d="M33.121 321.795C33.5269 321.622 33.9165 321.413 34.285 321.171C34.202 321.129 34.202 321.795 34.202 321.961C34.0969 322.551 34.055 323.15 34.077 323.749C34.1039 323.933 34.1677 324.11 34.2646 324.27C34.3614 324.429 34.4894 324.567 34.6408 324.675C34.7922 324.784 34.9639 324.861 35.1457 324.902C35.3275 324.943 35.5157 324.946 35.699 324.913C36.133 324.855 36.5391 324.667 36.863 324.372C37.0864 324.163 37.3225 323.969 37.57 323.79C37.6346 324.133 37.6764 324.481 37.695 324.83C37.7398 325.222 37.9326 325.583 38.234 325.838C38.5354 326.093 38.9228 326.223 39.317 326.202C40.107 326.119 40.107 324.871 39.317 324.954C38.901 324.996 38.776 322.754 38.069 322.501C37.9259 322.452 37.7741 322.434 37.6236 322.448C37.473 322.463 37.3273 322.509 37.196 322.584C36.572 322.875 35.657 324.206 35.366 323.042C35.158 322.169 36.031 320.921 35.241 320.173C34.492 319.466 33.241 320.298 32.541 320.673C32.3921 320.75 32.2799 320.883 32.2292 321.043C32.1785 321.203 32.1933 321.377 32.2705 321.525C32.3477 321.674 32.4809 321.787 32.6407 321.837C32.8006 321.888 32.9741 321.873 33.123 321.796L33.121 321.795Z" fill="white" stroke="#B2B2B2"/>
<path d="M61.731 288.279C61.9032 288.124 62.1073 288.008 62.329 287.939C62.5507 287.871 62.7847 287.852 63.0145 287.884C63.2443 287.916 63.4643 287.997 63.6593 288.123C63.8542 288.249 64.0193 288.416 64.143 288.612C64.476 289.112 65.266 288.654 64.933 288.155C64.7324 287.843 64.4669 287.578 64.1546 287.379C63.8424 287.179 63.4907 287.049 63.1236 286.998C62.7564 286.946 62.3826 286.975 62.0275 287.081C61.6724 287.187 61.3444 287.369 61.066 287.614C60.65 288.03 61.316 288.695 61.731 288.279Z" fill="white" stroke="#B2B2B2"/>
<path d="M70.63 287.987C70.9987 287.625 71.4903 287.415 72.0068 287.4C72.5233 287.385 73.0265 287.565 73.416 287.904C73.873 288.32 74.539 287.655 74.081 287.239C73.5163 286.72 72.7729 286.438 72.0059 286.454C71.2388 286.469 70.5074 286.78 69.964 287.322C69.548 287.738 70.214 288.403 70.629 287.987H70.63Z" fill="white" stroke="#B2B2B2"/>
<path d="M63.352 292.853C62.895 293.768 60.94 296.928 63.061 297.178C63.934 297.261 64.761 296.471 65.261 295.889C65.9222 295.026 66.4296 294.055 66.761 293.02C67.052 292.271 65.846 291.939 65.555 292.687C65.1825 293.865 64.509 294.926 63.601 295.764C63.393 295.93 63.268 296.221 63.351 295.847C63.4043 295.596 63.5029 295.356 63.642 295.14C63.891 294.599 64.142 294.059 64.432 293.518C64.765 292.728 63.683 292.104 63.351 292.853H63.352Z" fill="#EC615B" stroke="#B2B2B2"/>
<path d="M64.471 293.518C64.9799 293.253 65.4664 292.947 65.926 292.603C65.76 292.645 65.593 292.645 65.426 292.686C65.468 292.686 65.509 292.728 65.551 292.728C65.426 292.645 65.301 292.52 65.177 292.437C65.177 292.187 65.135 292.187 64.969 292.479C64.848 292.609 64.7367 292.748 64.636 292.895C64.4421 293.134 64.2615 293.384 64.095 293.643C63.721 294.225 63.388 294.807 63.055 295.431C62.681 296.138 63.762 296.762 64.136 296.055C64.51 295.39 64.885 294.683 65.3 294.055C65.633 293.555 66.34 293.015 66.381 292.392C66.391 292.285 66.3794 292.177 66.3469 292.075C66.3143 291.973 66.2615 291.878 66.1916 291.797C66.1218 291.715 66.0362 291.649 65.9401 291.601C65.8439 291.553 65.7392 291.525 65.632 291.519C65.5001 291.513 65.3686 291.537 65.2465 291.587C65.1245 291.637 65.0148 291.713 64.925 291.81C64.5682 292.094 64.1771 292.331 63.761 292.517C63.137 292.725 63.761 293.806 64.468 293.517L64.471 293.518Z" fill="#EC615B" stroke="#B2B2B2"/>
<path d="M63.228 292.811C63.9096 292.827 64.575 292.602 65.1073 292.176C65.6397 291.75 66.005 291.15 66.139 290.482C66.222 289.9 65.349 289.65 65.224 290.232C65.1558 290.708 64.9135 291.141 64.544 291.448C64.1745 291.755 63.7042 291.915 63.224 291.895C62.6 291.853 62.6 292.768 63.224 292.81L63.228 292.811Z" fill="white" stroke="#B2B2B2"/>
<path d="M65.35 290.191C65.4263 291.006 65.8154 291.761 66.4357 292.296C67.0559 292.83 67.8592 293.104 68.677 293.06C69.259 293.018 69.259 292.06 68.677 292.104C68.1055 292.159 67.5349 291.991 67.0851 291.634C66.6353 291.277 66.3413 290.76 66.265 290.191C66.223 289.609 65.309 289.609 65.35 290.191Z" fill="white" stroke="#B2B2B2"/>
<path d="M318.058 211.804C304.293 228.479 290.543 245.141 276.806 261.789L341.553 277.882C342.915 261.91 339.774 245.876 332.488 231.598C328.692 224.318 323.828 217.646 318.058 211.804Z" fill="#0CF2B4" stroke="white"/>
<path d="M272.772 265.157C294.562 270.646 316.366 276.122 338.184 281.583C337.472 291.86 333.461 301.632 326.748 309.445C308.784 294.682 290.792 279.92 272.772 265.157Z" fill="#966BE8" stroke="#707070"/>
<path d="M269.57 190.513C309.601 190.513 342.052 223.783 342.052 264.825C342.052 305.867 309.601 339.137 269.57 339.137C229.539 339.137 197.088 305.866 197.088 264.825C197.088 223.784 229.539 190.513 269.57 190.513Z" stroke="#FAFAFA" stroke-width="3"/>
<path d="M270.488 263.244C270.542 263.211 270.603 263.189 270.666 263.179C270.729 263.169 270.793 263.172 270.855 263.188C270.917 263.203 270.975 263.231 271.026 263.269C271.078 263.307 271.121 263.355 271.153 263.41C271.195 263.244 271.195 263.077 271.236 262.91C271.194 262.993 271.07 262.952 271.028 262.91C270.951 262.887 270.871 262.88 270.792 262.889C270.713 262.898 270.636 262.922 270.566 262.961C270.496 262.999 270.435 263.052 270.386 263.114C270.336 263.177 270.3 263.249 270.279 263.326C270.241 263.48 270.263 263.643 270.34 263.782C270.417 263.92 270.544 264.025 270.695 264.074C270.938 264.159 271.2 264.173 271.451 264.114C271.701 264.055 271.929 263.925 272.109 263.741C272.197 263.647 272.265 263.536 272.309 263.415C272.353 263.294 272.371 263.166 272.363 263.037C272.356 262.909 272.322 262.783 272.264 262.668C272.206 262.553 272.125 262.451 272.026 262.369C271.72 262.049 271.301 261.862 270.858 261.846C270.415 261.831 269.984 261.988 269.656 262.286C269.59 262.34 269.536 262.406 269.496 262.481C269.456 262.556 269.432 262.639 269.425 262.723C269.418 262.808 269.428 262.893 269.454 262.974C269.48 263.055 269.523 263.13 269.578 263.194C269.634 263.258 269.702 263.31 269.779 263.347C269.855 263.384 269.938 263.406 270.023 263.41C270.108 263.415 270.193 263.402 270.273 263.373C270.352 263.345 270.426 263.3 270.488 263.242V263.244Z" fill="#161616"/>
<path d="M314.316 206.855C301.044 226.162 286.789 244.775 271.609 262.62C271.109 263.244 271.983 264.12 272.482 263.493C287.741 245.573 302.066 226.877 315.397 207.479C315.855 206.814 314.773 206.19 314.316 206.855Z" fill="#161616"/>
<path d="M270.983 264.034C294.436 268.234 317.724 273.196 340.845 278.921C341.003 278.958 341.169 278.933 341.308 278.85C341.447 278.768 341.549 278.635 341.592 278.478C341.636 278.322 341.616 278.155 341.539 278.013C341.462 277.871 341.332 277.764 341.178 277.715C318.057 272.018 294.77 267.055 271.316 262.828C270.526 262.703 270.193 263.909 270.983 264.034Z" fill="#161616"/>
<path d="M270.9 263.826C288.657 280.085 306.954 295.735 325.791 310.775C326.415 311.275 327.291 310.401 326.664 309.902C307.868 294.89 289.571 279.24 271.772 262.953C271.19 262.412 270.272 263.286 270.899 263.826H270.9Z" fill="#161616"/>
<path opacity="0.21" d="M269.611 190.68C271.15 197.541 272.189 207.314 268.405 217.294C259.797 240.082 234.805 241.205 225.324 259.794C220.167 269.898 218.88 286.615 235.18 315.723V330.402C229.617 327.303 224.485 323.486 219.918 319.049C200.498 300.049 197.504 275.219 196.88 265.779C196.922 258.959 197.88 236.795 214.221 217C217.921 212.509 231.063 197.123 253.435 192.174C258.746 191.022 264.178 190.52 269.611 190.68Z" fill="#6D6C6C"/>
<path d="M146.521 307.282C149.39 314.518 152.26 321.712 155.087 328.947C153.387 332.69 150.762 338.22 147.144 344.832C142.403 353.482 140.158 356.393 140.906 357.266C141.987 358.514 149.015 355.395 176.294 334.977C174.594 330.236 172.842 325.454 171.137 320.589C168.642 313.522 166.216 306.522 163.86 299.589C158.123 302.167 152.343 304.731 146.521 307.282Z" fill="#161616" stroke="#C4C4C4"/>
<path d="M223.203 180.533C227.819 188.392 224.534 200.577 224.076 202.199C221.539 211.639 215.801 212.553 194.759 232.472C181.577 244.989 177.793 250.062 175.006 255.635C171.984 261.784 170.055 268.411 169.306 275.221C171.011 285.201 172.716 295.14 174.421 305.121C168.754 308.823 162.593 311.707 156.121 313.687C151.364 315.135 146.472 316.096 141.521 316.556C135.22 300.93 133.03 283.95 135.159 267.237C138.735 240.748 152.749 223.407 164.393 209.019C179.686 190.284 198.671 174.897 220.168 163.816C219.323 167.932 219.61 172.201 221 176.167C221.581 177.695 222.319 179.158 223.203 180.533Z" fill="#966BE8"/>
<path opacity="0.2" d="M216.3 169.264C212.014 180.984 206.272 192.119 199.209 202.407C182.367 226.9 169.934 228.896 159.995 251.643C155.493 262.275 152.74 273.566 151.845 285.077C150.996 294.647 151.345 304.286 152.885 313.77C155.742 313.669 158.577 313.222 161.327 312.439C166.169 311.045 170.652 308.619 174.468 305.328C173.761 301.96 172.721 296.97 171.557 290.857C169.977 282.374 169.187 278.091 169.187 275.057C169.187 266.116 172.971 259.38 176.048 254.015C177.504 251.478 181.748 244.451 196.591 230.852C212.268 216.505 218.797 214.01 222.914 203.489C224.559 199.394 225.365 195.01 225.284 190.598C224.908 179.664 218.753 172.009 216.3 169.264Z" fill="#6D6C6C"/>
<path opacity="0.27" d="M225.239 194.006C216.714 201.159 204.53 211.846 190.516 225.569C170.181 245.53 166.563 251.351 164.983 254.262C160.575 262.371 153.007 280.835 160.492 311.649C162.945 310.649 165.482 309.528 168.143 308.239C170.264 307.199 172.301 306.118 174.214 305.079C172.551 295.346 170.887 285.601 169.224 275.845C169.379 270.612 170.449 265.447 172.384 260.583C174.079 256.546 176.287 252.744 178.954 249.272C182.364 244.614 185.654 241.454 192.095 235.341C197.251 230.434 202.242 225.278 207.606 220.62C217.254 212.261 221.578 209.974 223.906 203.529C224.988 200.477 225.442 197.238 225.239 194.006Z" fill="#6D6C6C"/>
<path d="M192.306 306.367L211.269 320.967C202.869 342.258 202.869 347.789 204.569 348.745C207.397 350.367 216.669 340.345 221.951 332.985C225.709 327.701 228.743 321.939 230.975 315.852C228.397 312.567 225.444 309.152 222.159 305.664C218.003 301.248 213.603 297.068 208.981 293.143C203.451 297.593 197.878 301.959 192.306 306.367Z" fill="#161616" stroke="#D3D3D3"/>
<path d="M257.176 180.532C260.876 190.346 258.632 199.832 258.049 202.197C253.807 219.829 238.049 234.383 232.475 239.457C222.952 248.19 215.051 252.557 210.643 264.2C209.407 267.393 208.596 270.735 208.231 274.139C211.267 281.084 214.303 288.014 217.338 294.931C214.006 302.255 208.763 308.547 202.16 313.145C198.944 315.34 195.446 317.089 191.76 318.345C185.439 311.899 168.306 292.771 169.221 267.196C169.928 247.568 181.031 231.766 189.597 219.496C198.205 207.229 200.409 208.726 211.263 193.048C220.663 179.448 222.449 173.254 230.35 170.509C238.293 167.723 249.936 169.261 255.05 176.164C255.94 177.525 256.654 178.992 257.176 180.532Z" fill="#966BE8"/>
<path opacity="0.24" d="M237.841 178.661C238.562 184.667 238.182 190.755 236.718 196.625C230.064 222.366 205.696 224.611 193.969 252.473C191.682 257.921 186.359 271.103 190.559 286.364C193.803 298.257 201.371 305.992 205.659 309.735C208.307 308.334 210.631 306.392 212.479 304.035C214.683 301.207 216.154 297.879 216.762 294.346C213.809 287.235 210.857 280.083 207.946 272.972C208.682 268.581 210.129 264.339 212.229 260.413C215.805 253.676 220.129 250.266 225.702 245.235C235.932 236.045 242.461 230.223 248.116 222.197C251.692 217.082 256.89 209.555 258.595 198.535C259.668 191.504 259.2 184.325 257.223 177.493C250.774 177.913 244.286 178.287 237.841 178.661Z" fill="#966BE8"/>
<path opacity="0.25" d="M259.006 192.01C254.049 201.118 248.123 209.665 241.332 217.501C224.532 236.838 213.138 240.871 205.32 255.759C201.952 262.159 198.874 272.725 202.659 289.692C207.441 291.605 212.265 293.518 217.047 295.472C214.011 288.319 211.017 281.209 207.982 274.056C208.346 269.093 209.749 264.262 212.099 259.876C214.719 255.052 217.63 252.516 224.034 246.694C234.634 237.046 239.961 232.223 242.123 229.811C247.072 224.363 252.478 218.251 255.888 208.811C257.867 203.427 258.921 197.746 259.006 192.01Z" fill="#6D6C6C"/>
<path d="M157.791 122.564C156.239 119.009 153.974 115.81 151.137 113.164C146.646 109.047 140.367 106.095 139.369 107.301C138.953 107.801 138.995 109.547 146.563 117.901" fill="white"/>
<path d="M157.791 122.564C156.239 119.009 153.974 115.81 151.137 113.164C146.646 109.047 140.367 106.095 139.369 107.301C138.953 107.801 138.995 109.547 146.563 117.901" stroke="#161616" stroke-width="2" stroke-miterlimit="10"/>
<path d="M142.113 115.744C139.45 117.325 137.343 119.693 136.083 122.522C135.224 124.17 134.945 126.06 135.293 127.886C136.249 131.545 140.657 133.086 141.032 133.25C142.82 133.874 143.278 133.416 144.567 134.165C146.646 135.371 146.567 136.993 148.102 138.49C151.262 141.526 157.666 140.32 157.958 139.031C158.124 138.324 156.295 137.659 156.458 136.37C156.541 135.58 157.331 135.247 157.872 134.748C160.783 132.087 157.997 124.31 157.498 123.021C156.87 121.305 156.061 119.66 155.086 118.114" fill="white"/>
<path d="M142.113 115.744C139.45 117.325 137.343 119.693 136.083 122.522C135.224 124.17 134.945 126.06 135.293 127.886C136.249 131.545 140.657 133.086 141.032 133.25C142.82 133.874 143.278 133.416 144.567 134.165C146.646 135.371 146.567 136.993 148.102 138.49C151.262 141.526 157.666 140.32 157.958 139.031C158.124 138.324 156.295 137.659 156.458 136.37C156.541 135.58 157.331 135.247 157.872 134.748C160.783 132.087 157.997 124.31 157.498 123.021C156.87 121.305 156.061 119.66 155.086 118.114" stroke="#161616" stroke-width="2" stroke-miterlimit="10"/>
<path d="M134.586 127.346C135.031 128.612 135.734 129.772 136.651 130.754C137.567 131.735 138.676 132.515 139.909 133.046C142.487 134.086 144.4 132.713 144.442 129.969C144.433 129.81 144.363 129.66 144.247 129.55C144.131 129.44 143.978 129.379 143.818 129.379C143.658 129.379 143.505 129.44 143.389 129.55C143.273 129.66 143.203 129.81 143.194 129.969C143.152 133.169 139.994 132.007 138.412 130.718C137.216 129.748 136.31 128.468 135.792 127.018C135.501 126.269 134.292 126.561 134.586 127.351V127.346Z" fill="#161616"/>
<path d="M137.705 123.936C138.952 126.265 140.616 128.843 143.194 129.799C145.523 130.672 146.894 129.258 147.144 127.054C147.227 126.264 145.98 126.264 145.897 127.054C145.523 130.339 142.321 128.054 141.197 126.888C140.225 125.818 139.413 124.614 138.785 123.312C138.411 122.605 137.329 123.229 137.704 123.936H137.705Z" fill="#161616"/>
<path d="M141.448 118.323C142.143 120.019 142.993 121.647 143.985 123.188C144.692 124.228 145.69 125.725 147.062 125.974C150.306 126.598 149.262 121.982 148.642 120.402C148.351 119.654 147.142 119.986 147.436 120.735C147.727 121.442 148.351 122.897 148.101 123.687C147.394 125.974 145.481 123.146 145.065 122.564C144.073 121.023 143.223 119.395 142.528 117.699C142.195 116.95 141.114 117.574 141.447 118.323H141.448Z" fill="#161616"/>
<path d="M142.071 116.451C143.319 115.827 144.857 116.951 145.73 117.782C146.565 118.639 147.216 119.658 147.643 120.776C147.934 121.524 149.143 121.192 148.849 120.443C147.809 117.865 144.732 113.743 141.449 115.37C140.742 115.703 141.366 116.784 142.073 116.451H142.071Z" fill="#161616"/>
<path d="M232.268 103.685C233.599 107.636 231.561 111.004 225.868 121.15C216.304 138.033 215.721 139.53 213.517 142.192C208.317 148.43 205.366 151.964 199.917 154.252C189.978 158.411 178.958 154.752 172.929 152.464C168.453 150.735 164.252 148.368 160.454 145.436C158.624 143.936 157.21 142.775 156.296 142.068C154.383 140.529 153.51 139.868 152.761 138.533C152.284 137.67 151.973 136.725 151.846 135.747C151.222 131.297 155.63 127.555 155.963 127.264C150.682 128.512 148.852 128.264 148.519 127.514C147.729 125.851 153.468 119.738 157.501 121.114C159.414 121.738 160.37 123.9 161.077 125.48C162.081 127.736 162.441 130.226 162.117 132.674C165.415 134.946 169.049 136.686 172.887 137.83C179.67 139.776 186.851 139.863 193.679 138.08C195.8 134.67 199.251 129.098 203.451 122.153C214.928 103.107 217.964 97.078 223.245 96.994C227.194 96.948 231.103 100.233 232.268 103.685Z" fill="white" stroke="#161616" stroke-width="2" stroke-miterlimit="10"/>
<path d="M155.586 128.345C152.01 128.179 151.511 132.795 151.053 135.414C151.469 135.456 151.885 135.539 152.259 135.58C152.406 133.988 152.949 132.458 153.839 131.13C153.922 130.987 153.944 130.816 153.901 130.656C153.858 130.497 153.754 130.36 153.61 130.278C153.467 130.195 153.297 130.172 153.137 130.215C152.977 130.258 152.841 130.363 152.758 130.506C151.136 133.126 150.138 136.369 152.384 138.948L153.257 138.075C152.95 137.812 152.702 137.487 152.53 137.122C152.358 136.756 152.265 136.358 152.257 135.954C151.841 135.996 151.425 136.079 151.051 136.12C151.253 136.781 151.518 137.422 151.841 138.033C152.215 138.74 153.297 138.116 152.922 137.409C152.616 136.907 152.392 136.359 152.257 135.787C152.091 135.122 150.968 135.246 151.051 135.953C151.12 137.087 151.609 138.154 152.423 138.947C153.005 139.529 153.837 138.656 153.296 138.074C151.466 135.953 152.631 133.25 153.878 131.129C153.504 130.921 153.171 130.713 152.797 130.505C151.789 132.018 151.188 133.765 151.05 135.578C151.008 136.285 152.173 136.451 152.256 135.744C152.589 133.831 152.88 129.506 155.583 129.589C156.373 129.631 156.373 128.383 155.583 128.342L155.586 128.345Z" fill="white"/>
<path opacity="0.21" d="M225.906 98.694C222.23 108.54 217.694 118.044 212.35 127.094C205.53 138.694 201.95 144.518 195.799 147.594C183.157 153.873 163.654 149.632 157.084 137.614C155.428 134.491 154.584 131.002 154.63 127.467C152.586 128.279 150.323 128.352 148.23 127.675C142.907 125.554 142.408 117.612 139.58 117.695C137.709 117.778 136.336 121.313 135.837 122.602C135.08 124.178 134.819 125.947 135.088 127.675C135.753 130.627 138.872 132.956 142.781 133.705C144.332 134.431 145.729 135.448 146.898 136.699C148.27 138.199 148.645 139.36 150.098 140.067C151.221 140.563 152.472 140.694 153.674 140.441C156.541 142.767 159.555 144.905 162.698 146.841C171.264 152.081 181.619 158.401 193.346 156.241C197.544 155.406 201.514 153.678 204.986 151.174C208.77 148.637 212.845 144.812 220.58 130.881C224.704 123.442 228.41 115.778 231.68 107.926C232.02 107.052 232.177 106.118 232.141 105.18C232.105 104.243 231.877 103.324 231.472 102.478C230.937 101.43 230.146 100.535 229.174 99.8732C228.201 99.2118 227.077 98.8063 225.906 98.694Z" fill="#6D6C6C"/>
<path opacity="0.22" d="M147.228 127.595C146.646 128.011 146.895 128.843 146.188 129.466C145.727 129.786 145.167 129.933 144.608 129.882C144.636 130.588 144.448 131.286 144.067 131.882C143.485 132.714 142.695 132.882 142.736 133.213C142.819 133.587 143.983 133.379 145.106 134.003C145.778 134.415 146.325 135.003 146.686 135.703C149.431 133.083 152.175 130.503 154.92 127.885C153.449 128.505 151.821 128.651 150.263 128.301C148.933 127.886 147.939 127.096 147.228 127.595Z" fill="#6D6C6C"/>
<path d="M231.935 95.534C229.149 98.32 227.693 101.481 224.866 107.801C221.195 115.44 218.807 123.63 217.797 132.045C216.466 144.354 219.585 147.145 217.09 156.289C215.552 161.835 212.812 166.974 209.064 171.342C214.3 176.608 220.653 180.629 227.652 183.11C238.509 186.783 250.285 186.695 261.086 182.861C264.786 172.881 268.446 162.9 272.147 152.961C272.189 144.519 272.521 137.325 272.854 131.753C273.686 118.446 275.054 108.253 275.931 102.062C276.931 94.785 277.969 88.672 278.759 84.181C271.172 84.5709 263.617 85.4319 256.137 86.759C238.007 90.081 233.724 93.745 231.935 95.534Z" fill="white" stroke="#161616" stroke-width="2" stroke-miterlimit="10"/>
<path opacity="0.19" d="M253.975 87.0511C256.734 93.6201 258.365 100.607 258.799 107.719C260.088 129.177 249.734 145.977 241.874 158.702C236.883 166.768 231.087 174.307 224.574 181.202C228.766 183.402 233.289 184.905 237.964 185.652C245.668 186.857 253.553 186.025 260.836 183.24C264.329 173.177 267.781 163.155 271.274 153.091C271.482 146.23 271.856 139.119 272.397 131.883C273.644 115 275.682 99.1561 278.177 84.4351L253.975 87.0511Z" fill="#6D6C6C"/>
<path opacity="0.11" d="M261.415 85.761C265.499 96.1104 267.342 107.208 266.821 118.322C264.821 156.039 234.967 178.869 229.811 182.695C233.883 184.152 238.138 185.034 242.453 185.315C248.514 185.7 254.591 184.88 260.334 182.903C264.16 172.84 268.027 162.818 271.853 152.754C271.853 143.564 272.186 133.754 272.976 123.354C273.976 110.369 275.658 97.4461 278.015 84.6381L261.415 85.761Z" fill="#6D6C6C"/>
<path d="M277.221 83.641C281.933 85.2605 286.067 88.224 289.114 92.166C293.106 97.614 293.979 104.184 291.692 125.018C289.571 144.396 287.742 148.555 287.035 160.199C286.411 170.219 286.927 180.278 288.574 190.181L302.796 186.813C306.491 187.73 309.878 189.61 312.61 192.261C314.149 193.761 317.392 196.918 316.477 199.497C315.895 201.16 313.777 201.997 312.859 202.325C311.289 202.893 309.604 203.065 307.952 202.825C304.501 202.617 301.052 202.492 297.598 202.325C295.105 202.198 292.606 202.198 290.113 202.325C294.313 205.943 296.101 208.272 295.561 209.311C294.813 210.683 289.822 209.727 280.549 206.483C280.133 203.115 279.468 198 278.47 191.762C275.892 175.462 274.02 169.639 272.77 160.989C271.481 152.048 271.897 143.981 272.77 127.889C273.437 116.493 274.643 101.441 277.221 83.641Z" fill="white" stroke="#161616" stroke-width="2" stroke-miterlimit="10"/>
<path d="M296.516 196.79C299.716 195.459 303.045 196.208 306.122 197.58C308.79 198.619 311.243 200.141 313.358 202.071C313.94 202.612 314.813 201.738 314.231 201.198C311.799 198.993 308.959 197.284 305.872 196.166C302.753 194.877 299.385 194.295 296.141 195.625C295.476 195.874 295.808 197.08 296.515 196.789L296.516 196.79Z" fill="#161616"/>
<path d="M300.593 192.966C306.124 191.885 312.693 195.166 315.73 199.866C316.187 200.531 317.269 199.908 316.811 199.242C313.401 194.042 306.411 190.592 300.26 191.798C299.47 191.923 299.803 193.129 300.593 192.962V192.966Z" fill="#161616"/>
<path d="M305.374 190.097C307.519 190.308 309.585 191.02 311.404 192.176C312.111 192.55 312.735 191.469 312.028 191.095C310.012 189.845 307.736 189.077 305.375 188.849C304.585 188.807 304.585 190.055 305.375 190.096L305.374 190.097Z" fill="#161616"/>
<path opacity="0.16" d="M277.803 84.639C280.954 91.7046 283.15 99.1585 284.332 106.804C287.95 130.84 279.051 143.357 280.632 169.347C281.227 178.787 283.045 188.111 286.038 197.084C290.66 195.575 295.55 195.063 300.385 195.584C304.585 196.084 306.664 196.333 308.744 197.83C310.824 199.327 312.029 201.323 314.15 201.198C314.627 201.197 315.096 201.079 315.517 200.854C315.937 200.63 316.296 200.305 316.562 199.909C317.685 197.871 314.608 194.378 313.568 193.209C310.831 190.169 307.281 187.975 303.338 186.888L288.617 189.882C287.118 183.289 286.31 176.558 286.205 169.797C286.08 162.312 287.411 153.246 290.114 135.365C290.614 132.038 291.237 125.343 292.526 111.911C292.942 107.503 293.275 103.553 291.777 98.687C291.028 96.234 289.199 90.661 283.793 87.168C281.983 85.9384 279.947 85.0789 277.803 84.639Z" fill="#6D6C6C"/>
<path opacity="0.22" d="M286.91 202.074C287.758 204.21 289.165 206.077 290.985 207.48C292.44 208.561 294.977 209.892 295.435 209.351C296.017 208.686 293.813 205.026 290.403 203.196C289.316 202.613 288.133 202.233 286.91 202.074Z" fill="#6D6C6C"/>
<path opacity="0.4" d="M291.568 118.863C285.967 134.095 283.561 150.317 284.499 166.519C285.059 175.603 286.678 184.591 289.323 193.299C287.624 186.854 286.62 180.246 286.329 173.588C285.829 161.154 288.075 154.168 290.404 131.338C290.986 126.057 291.36 121.691 291.568 118.863Z" fill="#6D6C6C"/>
<path opacity="0.22" d="M299.969 192.01C299.886 191.51 304.044 189.598 308.161 190.51C313.692 191.758 316.27 197.579 316.727 198.702C314.213 195.697 310.827 193.546 307.038 192.548C303.169 191.677 300.009 192.426 299.969 192.01Z" fill="#6D6C6C"/>
<path d="M216.632 75.116C214.885 76.738 214.511 80.148 213.804 86.843C213.014 94.536 212.681 98.443 214.304 100.4C217.257 103.976 223.619 104.184 228.027 102.23C233.227 99.901 235.013 94.87 235.471 93.622C237.509 87.842 236.843 79.109 230.689 75.117C226.526 72.371 220.084 71.914 216.632 75.116Z" fill="#212121"/>
<path d="M225.614 81.187C226.238 84.181 229.565 84.431 232.392 89.213C234.042 92.1148 234.904 95.3979 234.892 98.736C238.789 98.6592 242.627 97.7601 246.153 96.0975C249.678 94.4348 252.813 92.0462 255.352 89.088C254.312 87.388 252.774 84.888 250.944 81.894C243.044 69.211 241.879 68.213 240.298 67.794C233.889 66.259 224.408 75.615 225.614 81.187Z" fill="white" stroke="#3B3B3B" stroke-width="2" stroke-miterlimit="10"/>
<path opacity="0.74" d="M214.22 89.0461C214.294 90.157 214.594 91.2412 215.1 92.2326C215.607 93.224 216.311 94.1017 217.168 94.8124C218.025 95.5231 219.018 96.0518 220.086 96.3663C221.154 96.6808 222.275 96.7744 223.38 96.6416C224.486 96.5088 225.552 96.1522 226.516 95.5936C227.479 95.035 228.318 94.2862 228.982 93.3926C229.647 92.4991 230.122 91.4797 230.38 90.3965C230.637 89.3132 230.671 88.1889 230.48 87.092C231.687 88.4833 232.644 90.0736 233.308 91.7921C233.856 93.1898 234.193 94.6612 234.308 96.1581C233.684 97.1981 230.441 102.358 224.369 103.352C223.329 103.518 217.424 104.392 214.638 100.852C213.562 99.1983 213.024 97.2517 213.099 95.28C213.041 93.1472 213.423 91.0252 214.22 89.0461Z" fill="#161616"/>
<path d="M196.754 46.256C194.841 49.791 195.299 53.367 196.213 60.356C197.294 68.256 198.713 74.869 200.413 79.235C200.535 79.5543 200.762 79.8227 201.057 79.9963C201.352 80.1699 201.696 80.2386 202.035 80.191C203.09 79.9386 204.12 79.5906 205.112 79.1511C206.476 81.5841 208.249 83.7644 210.352 85.597C214.094 88.7784 218.697 90.776 223.576 91.3361C228.752 89.4278 233.163 85.8791 236.135 81.231C237.872 78.4176 239.005 75.2738 239.462 71.999C239.945 67.6835 239.165 63.3206 237.216 59.44C238.504 58.682 239.577 57.6086 240.335 56.3211C242.248 52.9531 242.165 47.38 239.129 45.883C236.842 44.76 233.229 46.008 230.771 49.21C229.724 47.3711 228.437 45.679 226.945 44.178C224.746 41.9241 222.152 40.0919 219.293 38.772C211.808 35.819 200.663 39.062 196.754 46.256Z" fill="white" stroke="#3B3B3B" stroke-width="2" stroke-miterlimit="10"/>
<path d="M238.547 76.156C236.749 80.2378 234.563 84.1371 232.018 87.8L233.018 87.675C232.768 87.384 232.518 87.051 232.311 86.76C232.263 87.0069 232.235 87.2575 232.228 87.509C233.277 86.6198 234.175 85.5669 234.888 84.391C234.514 84.183 234.181 83.975 233.807 83.767C233.327 84.9127 232.416 85.8239 231.27 86.304L232.018 87.304C234.179 85.26 236.142 83.0167 237.881 80.604C238.338 79.939 237.257 79.315 236.8 79.98C235.13 82.308 233.236 84.4669 231.145 86.426C230.604 86.926 231.311 87.674 231.894 87.426C233.231 86.8373 234.299 85.7691 234.888 84.432C234.971 84.2886 234.993 84.1183 234.95 83.9584C234.908 83.7985 234.803 83.6622 234.66 83.5795C234.516 83.4967 234.346 83.4743 234.186 83.5172C234.026 83.56 233.89 83.6646 233.807 83.808C233.116 84.8659 232.291 85.8302 231.353 86.677C231.251 86.7707 231.186 86.8982 231.171 87.0359C231.156 87.1736 231.191 87.3122 231.27 87.426C231.514 87.858 231.823 88.2504 232.185 88.59C232.255 88.6555 232.339 88.7047 232.431 88.7343C232.522 88.7638 232.619 88.773 232.714 88.7611C232.81 88.7492 232.901 88.7165 232.983 88.6653C233.064 88.6142 233.133 88.5458 233.185 88.465C235.739 84.8075 237.927 80.9073 239.716 76.821C239.965 76.073 238.884 75.449 238.552 76.156H238.547Z" fill="#161616"/>
<path d="M207.443 82.352C210.312 81.603 211.976 79.192 213.431 76.821C213.847 76.156 212.766 75.532 212.35 76.197C211.061 78.276 209.605 80.48 207.11 81.187C206.32 81.353 206.653 82.559 207.443 82.351V82.352Z" fill="#161616"/>
<path d="M211.434 75.947C211.825 75.9595 212.209 76.0552 212.561 76.2276C212.912 76.4 213.223 76.6452 213.472 76.947C214.013 77.571 214.886 76.656 214.345 76.074C213.983 75.6541 213.537 75.315 213.035 75.0787C212.534 74.8423 211.988 74.714 211.434 74.702C210.602 74.66 210.602 75.908 211.434 75.95V75.947Z" fill="#161616"/>
<path d="M209.854 68.462V68.337C209.854 68.1715 209.788 68.0128 209.671 67.8958C209.554 67.7788 209.395 67.713 209.23 67.713C209.065 67.713 208.906 67.7788 208.789 67.8958C208.672 68.0128 208.606 68.1715 208.606 68.337V68.462C208.61 68.6263 208.677 68.7826 208.793 68.8988C208.909 69.0149 209.066 69.082 209.23 69.086C209.392 69.075 209.544 69.0057 209.659 68.891C209.774 68.7763 209.843 68.6239 209.854 68.462Z" fill="#161616"/>
<path d="M212.64 65.136C212.798 65.125 212.946 65.0546 213.054 64.9388C213.162 64.8231 213.222 64.6708 213.222 64.5125C213.222 64.3542 213.162 64.2018 213.054 64.0861C212.946 63.9704 212.798 63.8999 212.64 63.889C212.482 63.8999 212.334 63.9704 212.226 64.0861C212.118 64.2018 212.058 64.3542 212.058 64.5125C212.058 64.6708 212.118 64.8231 212.226 64.9388C212.334 65.0546 212.482 65.125 212.64 65.136Z" fill="#161616"/>
<path d="M212.266 68.296C212.424 68.2851 212.572 68.2146 212.68 68.0989C212.788 67.9832 212.848 67.8308 212.848 67.6725C212.848 67.5142 212.788 67.3619 212.68 67.2462C212.572 67.1304 212.424 67.06 212.266 67.049C212.108 67.06 211.96 67.1304 211.852 67.2462C211.744 67.3619 211.684 67.5142 211.684 67.6725C211.684 67.8308 211.744 67.9832 211.852 68.0989C211.96 68.2146 212.108 68.2851 212.266 68.296Z" fill="#161616"/>
<path d="M196.464 58.399C194.074 57.6416 192.027 56.066 190.684 53.949C188.147 49.624 190.184 44.592 191.184 42.222C191.725 40.891 193.222 37.606 200.457 31.161C205.946 26.212 208.732 23.761 211.851 22.387C222.996 17.522 234.39 22.179 236.469 23.052C239.546 24.3 241.792 25.838 246.241 28.832C251.647 32.491 255.098 34.862 257.801 38.937C261.086 43.927 259.09 45.216 261.918 50.83C266.409 59.73 272.605 58.648 276.306 66.882C276.93 68.254 280.381 75.906 276.472 82.601C273.272 88.049 266.741 90.001 261.917 89.878C253.143 89.628 247.57 82.226 244.41 77.985C240.341 72.4814 237.814 65.9914 237.091 59.185C241.125 56.773 242.497 52.448 241.083 49.704C240.043 47.75 237.174 45.795 234.637 46.876C233.733 47.3337 232.983 48.0465 232.481 48.9263C231.978 49.806 231.744 50.8139 231.809 51.825C228.144 52.4591 224.373 51.9775 220.985 50.4427C217.597 48.9078 214.749 46.3904 212.809 43.217C209.194 44.6168 205.877 46.6913 203.037 49.33C200.29 51.9085 198.06 54.9863 196.464 58.399Z" fill="#212121" stroke="#707070"/>
<path opacity="0.24" d="M223.577 60.811C226.789 63.8477 229.362 67.4954 231.145 71.54C233.293 76.5425 234.137 82.0077 233.599 87.425C235.099 84.8881 236.551 82.352 238.048 79.774C240.46 85.18 242.83 90.586 245.242 95.95C247.571 95.4279 249.73 94.3274 251.521 92.75C252.956 91.4816 254.104 89.9224 254.889 88.176C248.54 83.6627 243.573 77.4713 240.543 70.295C239.089 66.8012 238.136 63.119 237.715 59.358C241.291 56.821 242.622 52.746 241.291 49.835C240.459 47.964 238.047 45.593 235.344 46.342C234.158 46.7292 233.152 47.5312 232.51 48.6008C231.869 49.6704 231.635 50.9356 231.851 52.164C228.213 52.6256 224.519 52.069 221.179 50.5562C217.839 49.0434 214.983 46.6336 212.931 43.595C214.054 50.955 216.882 54.948 219.252 57.235C220.749 58.773 221.373 58.773 223.577 60.811Z" fill="#6D6C6C"/>
<path opacity="0.24" d="M237.716 62.807C237.425 62.807 237.591 67.09 237.175 71.041C236.732 75.1306 235.622 79.12 233.89 82.851C235.857 81.588 237.499 79.8799 238.684 77.8647C239.869 75.8496 240.563 73.584 240.71 71.251C240.202 70.4697 239.757 69.6494 239.379 68.798C237.924 65.468 237.965 62.807 237.716 62.807Z" fill="#6D6C6C"/>
<path opacity="0.19" d="M239.171 77.24C240.506 78.6267 241.922 79.932 243.413 81.149C248.944 85.765 254.313 88.385 254.474 88.094C254.635 87.803 249.401 85.682 245.409 79.943C242.909 76.367 241.458 72.125 240.835 72.333C240.544 72.416 240.793 73.414 240.294 75.033C240.015 75.8136 239.638 76.5553 239.171 77.24Z" fill="#6D6C6C"/>
<path opacity="0.74" d="M243.787 27.294C247.79 34.2031 251.386 41.3399 254.557 48.668C261.169 64.096 260.628 68.337 259.713 71.082C257.675 77.282 252.02 80.771 248.651 82.435C251.183 86.0271 254.962 88.5473 259.251 89.504C260.457 89.753 267.734 91.126 273.265 86.094C276.046 83.5026 277.778 79.9791 278.13 76.194C278.879 69.208 274.72 63.968 273.389 62.471C271.642 60.517 271.268 60.971 267.189 57.023C264.029 53.987 262.489 52.449 261.575 50.536C260.12 47.417 261.075 46.086 259.375 42.136C258.633 40.453 257.698 38.8619 256.589 37.395C252.561 31.951 246.74 28.749 243.787 27.294Z" fill="#161616"/>
<path d="M206.402 63.142C206.818 63.974 206.818 65.18 206.277 65.429C205.736 65.72 204.697 64.929 204.323 64.015C204.032 63.225 204.115 62.102 204.656 61.894C205.238 61.684 206.069 62.433 206.402 63.142Z" fill="#161616"/>
<path d="M202.992 62.183C204.454 61.6822 205.957 61.3065 207.483 61.06C208.065 60.977 207.816 60.06 207.234 60.145C205.708 60.3915 204.205 60.7672 202.743 61.268C202.683 61.2844 202.627 61.3124 202.577 61.3505C202.528 61.3886 202.487 61.436 202.456 61.4901C202.425 61.5441 202.405 61.6037 202.397 61.6655C202.389 61.7272 202.394 61.79 202.41 61.85C202.426 61.9101 202.454 61.9664 202.492 62.0156C202.531 62.0649 202.578 62.1061 202.632 62.1371C202.686 62.168 202.746 62.188 202.807 62.1959C202.869 62.2038 202.932 62.1994 202.992 62.183Z" fill="#161616"/>
</svg>
