<svg width="29" height="28" viewBox="0 0 29 28" fill="none" xmlns="http://www.w3.org/2000/svg">
<path d="M16.547 3.45801C18.8316 3.45801 21.0648 4.13546 22.9644 5.4047C24.8639 6.67394 26.3445 8.47796 27.2187 10.5886C28.093 12.6993 28.3218 15.0218 27.8761 17.2625C27.4304 19.5032 26.3302 21.5614 24.7148 23.1768C23.0994 24.7922 21.0412 25.8924 18.8005 26.3381C16.5598 26.7838 14.2373 26.555 12.1266 25.6807C10.016 24.8065 8.21194 23.326 6.9427 21.4264C5.67346 19.5268 4.996 17.2936 4.996 15.009C4.996 11.9455 6.21298 9.00745 8.37921 6.84122C10.5454 4.67498 13.4835 3.45801 16.547 3.45801V3.45801Z" fill="#F5F5F5"/>
<path d="M14.212 27.296C21.4508 27.296 27.319 21.4094 27.319 14.148C27.319 6.88656 21.4508 1 14.212 1C6.97322 1 1.10501 6.88656 1.10501 14.148C1.10501 21.4094 6.97322 27.296 14.212 27.296Z" stroke="#161616" stroke-width="0.637" stroke-miterlimit="10"/>
<path d="M16.016 6.93999C13.435 6.77599 6.80002 9.27499 9.25802 13.002C10.692 15.173 13.477 13.739 15.484 14.272C18.065 14.972 17.778 18.081 16.184 19.597C15.4036 20.3008 14.3838 20.68 13.3331 20.6572C12.2824 20.6343 11.2801 20.2111 10.531 19.474C9.95801 18.942 9.05601 19.802 9.67101 20.334C12.907 23.283 18.682 21.604 18.682 16.811C18.7068 15.8422 18.3525 14.9021 17.6945 14.1907C17.0365 13.4792 16.1268 13.0527 15.159 13.002C13.643 12.802 9.38403 13.944 10.367 10.831C11.022 8.70099 14.176 8.04599 16.061 8.16899C16.839 8.20999 16.839 6.98099 16.02 6.93999H16.016Z" fill="#161616"/>
<path d="M14.622 7.51303C14.745 6.16103 14.868 4.85103 14.991 3.49903C15.073 2.72103 13.844 2.72103 13.762 3.49903C13.639 4.85103 13.516 6.16103 13.393 7.51303C13.311 8.29103 14.54 8.29103 14.622 7.51303Z" fill="#161616"/>
<path d="M13.803 22.177C13.926 23.119 14.049 24.102 14.131 25.044C14.213 25.822 15.442 25.822 15.36 25.044C15.237 24.102 15.114 23.119 15.032 22.177C14.95 21.399 13.721 21.399 13.803 22.177Z" fill="#161616"/>
</svg>
