<svg width="375" height="280" viewBox="0 0 375 280" fill="none" xmlns="http://www.w3.org/2000/svg">
<path d="M333.088 242.212C327.081 236.025 322.502 228.597 319.672 220.451C319.572 220.644 319.447 220.836 319.351 221.029C320.089 220.869 320.795 220.74 321.534 220.58C321.625 220.557 321.707 220.507 321.769 220.438C321.832 220.368 321.873 220.282 321.886 220.189C321.9 220.096 321.886 220.002 321.846 219.917C321.806 219.832 321.742 219.761 321.662 219.713C318.902 218.237 318.581 213.486 317.971 210.758C317.171 207.195 316.43 203.633 315.789 200.07C314.441 192.752 313.403 185.381 312.676 177.956C312.419 178.084 312.195 178.245 311.938 178.373C317.304 181.536 322.403 185.132 327.184 189.125C331.484 192.752 335.784 196.635 338.835 201.386C342.109 206.425 343.682 212.523 344.644 218.365C345.812 224.801 345.659 231.408 344.195 237.783C344.164 237.906 344.182 238.035 344.245 238.145C344.309 238.254 344.412 238.334 344.534 238.368C344.656 238.402 344.787 238.386 344.897 238.325C345.008 238.263 345.09 238.161 345.126 238.04C347.533 228.315 346.314 217.948 343.232 208.512C340.247 199.493 333.507 192.978 326.285 187.136C321.911 183.607 317.288 180.399 312.452 177.536C312.378 177.496 312.294 177.475 312.209 177.475C312.124 177.476 312.041 177.498 311.968 177.54C311.894 177.582 311.832 177.642 311.787 177.714C311.743 177.786 311.718 177.868 311.714 177.953C312.485 185.881 313.608 193.745 315.084 201.544C315.822 205.428 316.625 209.311 317.555 213.131C318.165 215.731 318.582 219.131 321.182 220.545C321.209 220.254 321.252 219.964 321.31 219.678C320.572 219.839 319.866 219.967 319.128 220.127C319.068 220.142 319.011 220.168 318.961 220.206C318.912 220.244 318.871 220.291 318.841 220.345C318.81 220.4 318.792 220.46 318.786 220.522C318.78 220.584 318.787 220.646 318.807 220.705C321.691 229.007 326.358 236.577 332.48 242.883C332.865 243.332 333.539 242.658 333.09 242.209L333.088 242.212Z" fill="#E8E8E8"/>
<path d="M312.771 178.758C324.398 195.598 332.399 214.67 336.265 234.766C336.393 235.376 337.324 235.119 337.196 234.509C333.306 214.32 325.262 195.16 313.573 178.245C313.252 177.764 312.417 178.245 312.773 178.759L312.771 178.758Z" fill="#E8E8E8"/>
<path d="M316.622 206.425C321.469 207.484 326.572 208.672 329.942 212.62C330.327 213.101 331.033 212.395 330.616 211.946C327.15 207.87 321.886 206.586 316.879 205.495C316.269 205.367 316.012 206.295 316.622 206.426V206.425Z" fill="#E8E8E8"/>
<path d="M329.397 206.49C329.027 202.013 329.766 197.514 331.548 193.39C331.805 192.812 330.97 192.331 330.714 192.909C328.842 197.176 328.059 201.841 328.435 206.486C328.499 207.096 329.462 207.096 329.398 206.486L329.397 206.49Z" fill="#E8E8E8"/>
<path d="M337.132 197.663C339.443 183.284 349.297 172.115 358.732 161.683C358.475 161.523 358.186 161.362 357.932 161.202C355.717 169.13 360.917 176.48 362.811 183.926C363.809 188.048 364.345 192.268 364.411 196.508C364.475 198.594 364.443 200.708 364.379 202.799C364.39 203.832 364.304 204.863 364.122 205.88C363.801 207.26 362.26 209.411 360.622 207.966L360.044 208.736C362.868 210.212 361.844 214.449 361.392 216.92C360.97 220.256 359.7 223.428 357.701 226.132C354.588 229.983 350.127 232.84 348.65 237.783C348.457 238.393 349.388 238.617 349.581 238.04C351.41 232.006 357.862 229.117 360.526 223.533C361.825 220.543 362.596 217.35 362.805 214.097C363.03 211.818 362.805 209.09 360.526 207.935C360.077 207.71 359.499 208.32 359.948 208.705C360.426 209.126 361.034 209.371 361.67 209.4C362.306 209.429 362.933 209.24 363.448 208.865C364.009 208.401 364.459 207.817 364.765 207.156C365.07 206.495 365.223 205.774 365.213 205.046C365.663 200.129 365.566 195.178 364.924 190.282C364.323 185.54 363.093 180.899 361.265 176.482C359.371 171.732 357.413 166.693 358.858 161.525C358.882 161.424 358.873 161.318 358.833 161.222C358.792 161.126 358.723 161.046 358.634 160.992C358.545 160.939 358.441 160.915 358.337 160.924C358.234 160.934 358.136 160.976 358.058 161.044C348.526 171.604 338.544 182.933 336.201 197.444C336.101 198.022 337.036 198.278 337.132 197.669V197.663Z" fill="#E8E8E8"/>
<path d="M356.839 164.476C350.164 180.95 346.019 198.34 344.546 216.054C344.482 216.664 345.446 216.664 345.509 216.054C346.991 198.428 351.124 181.126 357.77 164.733C357.995 164.187 357.064 163.933 356.839 164.476Z" fill="#E8E8E8"/>
<path d="M265.109 214.899C272.973 216.599 280.643 212.813 288.218 211.304C296.578 209.689 305.166 209.645 313.542 211.176C314.152 211.276 314.409 210.376 313.799 210.245C306.05 208.834 298.119 208.736 290.337 209.956C286.391 210.669 282.49 211.612 278.654 212.78C274.321 213.968 269.86 214.93 265.398 213.968C264.756 213.84 264.498 214.738 265.109 214.899Z" fill="#E8E8E8"/>
<path d="M363.387 211.946C367.945 211.079 372.438 212.171 376.835 213.262C381.135 214.289 385.469 215.22 389.866 215.99C398.357 217.451 406.934 218.353 415.543 218.69C416.153 218.722 416.153 217.759 415.543 217.727C406.401 217.375 397.295 216.377 388.294 214.742C383.929 213.942 379.628 212.942 375.327 211.918C371.315 210.955 367.239 210.249 363.127 211.051C362.549 211.151 362.806 212.078 363.384 211.951L363.387 211.946Z" fill="#E8E8E8"/>
<path d="M0.605008 185.05C11.967 182.418 23.329 179.369 34.851 177.7C46.358 176.107 58.0088 175.827 69.579 176.866C91.854 178.792 113.486 184.633 135.312 189.159C147.339 191.789 159.532 193.591 171.805 194.551C172.415 194.583 172.415 193.62 171.805 193.588C149.274 192.047 127.384 186.302 105.366 181.616C83.477 176.994 61.202 173.656 38.799 176.224C25.799 177.733 13.09 181.167 0.348004 184.124C-0.261996 184.252 -0.00499189 185.183 0.605008 185.055V185.05Z" fill="#E8E8E8"/>
<path d="M91.758 178.759C110.598 177.122 129.058 172.693 147.316 167.943C165.996 163.064 184.676 158.143 203.356 153.179C222.004 148.268 240.619 143.229 259.331 138.447C268.601 135.906 278.056 134.092 287.608 133.023C296.835 132.199 306.12 132.242 315.339 133.151C336.839 135.141 357.77 140.886 378.539 146.599C378.662 146.63 378.791 146.612 378.901 146.549C379.01 146.485 379.09 146.381 379.124 146.259C379.158 146.138 379.142 146.007 379.081 145.897C379.02 145.786 378.917 145.704 378.796 145.668C360.533 140.629 342.174 135.59 323.334 133.086C313.948 131.765 304.466 131.261 294.993 131.578C285.703 132.02 276.474 133.321 267.423 135.462C258.179 137.58 249.032 140.116 239.853 142.555L211.737 149.969C192.8 154.944 173.853 159.929 154.895 164.926C134.129 170.382 113.234 175.903 91.762 177.764C91.152 177.864 91.152 178.823 91.762 178.764L91.758 178.759Z" fill="#E8E8E8"/>
<path d="M40.052 236.467L63.578 237.334C71.217 237.623 78.888 238.072 86.527 238.134C93.973 238.198 101.163 236.754 108.481 235.434C116.126 234.044 123.84 233.069 131.59 232.513C140.22 231.887 148.879 231.759 157.524 232.128C158.134 232.16 158.134 231.197 157.524 231.165C142.377 230.51 127.203 231.402 112.237 233.829C104.598 235.081 97.023 237.006 89.288 237.167C81.713 237.36 74.042 236.782 66.468 236.493L40.085 235.53C39.443 235.466 39.443 236.43 40.053 236.461L40.052 236.467Z" fill="#E8E8E8"/>
<path d="M24.292 278.513C24.773 278.866 25.255 279.187 25.736 279.54C26.185 279.861 26.699 279.155 26.314 278.77L21.914 274.18C21.183 273.519 20.5068 272.8 19.892 272.03C19.057 270.81 19.924 270.23 20.117 269.238C20.342 268.211 19.317 267.638 18.737 266.991C17.5005 265.565 16.5621 263.906 15.977 262.112C13.313 254.826 12.382 246.612 12.125 238.907L11.644 239.388C19.732 238.65 24.418 246.288 27.114 252.74C30.131 259.897 32.891 267.376 33.244 275.24C33.276 275.85 34.239 275.85 34.207 275.24C33.822 266.831 30.807 258.679 27.407 251.04C24.583 244.653 19.479 237.688 11.616 238.394C11.4895 238.397 11.369 238.449 11.2795 238.539C11.19 238.628 11.1383 238.748 11.135 238.875C11.2838 243.005 11.6913 247.121 12.355 251.2C12.9218 255.237 13.9006 259.205 15.276 263.043C15.7954 264.421 16.5086 265.718 17.394 266.895C18.036 267.695 19.127 268.404 18.742 269.595C18.582 270.076 18.261 270.333 18.293 270.911C18.357 272.323 19.893 273.479 20.764 274.377L25.61 279.416L26.188 278.646C25.707 278.293 25.225 277.972 24.744 277.619C24.263 277.33 23.781 278.165 24.295 278.519L24.292 278.513Z" fill="#E8E8E8"/>
<path d="M30.263 256.655C33.0559 249.32 37.9587 242.977 44.353 238.425C44.1322 238.356 43.907 238.302 43.679 238.264C45.4697 242.36 46.7004 246.678 47.338 251.102C47.438 250.909 47.563 250.717 47.659 250.524C46.889 250.749 46.118 250.973 45.316 251.198C45.2458 251.219 45.1811 251.255 45.1268 251.304C45.0724 251.353 45.0298 251.414 45.0021 251.482C44.9744 251.549 44.9622 251.623 44.9665 251.696C44.9708 251.769 44.9915 251.84 45.027 251.904C45.927 254.055 46.921 256.494 45.927 258.773C45.092 260.667 43.295 262.079 42.043 263.652C39.7957 266.471 37.9786 269.608 36.651 272.96C36.426 273.538 37.357 273.794 37.582 273.217C39.4297 268.881 42.0263 264.905 45.253 261.47C46.4685 260.247 47.2081 258.631 47.339 256.912C47.251 254.997 46.7474 253.125 45.863 251.424C45.763 251.649 45.67 251.905 45.574 252.13C46.344 251.905 47.115 251.681 47.917 251.456C47.9766 251.44 48.0325 251.412 48.0812 251.375C48.1299 251.337 48.1704 251.289 48.2004 251.235C48.2303 251.181 48.2491 251.122 48.2556 251.06C48.262 250.999 48.2561 250.937 48.238 250.878C47.5685 246.365 46.306 241.96 44.483 237.778C44.4512 237.721 44.408 237.672 44.3561 237.632C44.3041 237.593 44.2446 237.565 44.1813 237.55C44.1179 237.535 44.0522 237.533 43.9881 237.544C43.924 237.556 43.863 237.581 43.809 237.617C37.2126 242.314 32.1538 248.858 29.27 256.425C29.142 256.971 30.04 257.225 30.265 256.65L30.263 256.655Z" fill="#E8E8E8"/>
<path d="M14.984 244.105C23.1972 253.543 28.464 265.182 30.133 277.581C30.233 278.191 31.192 278.191 31.096 277.581C29.3999 264.924 24.0344 253.041 15.662 243.399C15.245 242.95 14.571 243.624 14.988 244.105H14.984Z" fill="#E8E8E8"/>
<path d="M34.627 266.798C36.1326 261.472 38.2659 256.343 40.982 251.52C41.0416 251.41 41.0558 251.28 41.0215 251.159C40.9872 251.039 40.9072 250.936 40.7984 250.873C40.6897 250.811 40.5608 250.793 40.4391 250.824C40.3174 250.855 40.2127 250.932 40.147 251.039C37.399 255.936 35.2339 261.138 33.696 266.539C33.6647 266.662 33.6827 266.792 33.7462 266.901C33.8097 267.01 33.9135 267.091 34.0354 267.124C34.1574 267.158 34.2877 267.142 34.3983 267.081C34.5089 267.02 34.591 266.917 34.627 266.796V266.798Z" fill="#E8E8E8"/>
<path d="M15.305 226.613C26.539 224.431 38.029 223.596 49.327 225.746C54.591 226.741 59.79 227.896 65.118 228.506C70.735 229.148 76.418 229.406 82.065 229.629C82.675 229.661 82.675 228.698 82.065 228.666C76.416 228.409 70.735 228.185 65.118 227.543C59.277 226.869 53.563 225.489 47.754 224.494C36.906 222.632 25.768 223.627 15.048 225.714C14.438 225.814 14.695 226.741 15.305 226.614V226.613Z" fill="#E8E8E8"/>
<path d="M57.64 264.776C64.059 263.749 70.478 262.69 76.962 262.305C83.4548 261.966 89.9647 262.418 96.348 263.653C102.165 264.754 108.081 265.249 114.001 265.129C120.26 264.968 126.583 264.68 132.681 266.317C132.804 266.348 132.933 266.33 133.043 266.267C133.152 266.203 133.232 266.099 133.266 265.978C133.3 265.856 133.284 265.725 133.223 265.615C133.162 265.504 133.059 265.422 132.938 265.386C127.032 263.786 120.966 263.974 114.9 264.134C111.68 264.267 108.455 264.224 105.239 264.005C101.933 263.748 98.659 263.074 95.418 262.497C89.2284 261.357 82.9238 260.967 76.641 261.338C70.19 261.755 63.77 262.782 57.383 263.809C56.773 263.937 57.03 264.868 57.64 264.772V264.776Z" fill="#E8E8E8"/>
<path d="M234.071 272.448C246.098 270.705 258.221 269.697 270.371 269.431C282.214 269.174 294.058 269.656 305.901 269.912C306.025 269.906 306.142 269.853 306.227 269.763C306.313 269.674 306.361 269.554 306.361 269.43C306.361 269.306 306.313 269.187 306.227 269.097C306.142 269.008 306.025 268.955 305.901 268.949C293.865 268.692 281.801 268.211 269.729 268.5C257.708 268.798 245.716 269.806 233.814 271.517C233.204 271.617 233.461 272.512 234.071 272.448Z" fill="#E8E8E8"/>
<path d="M287.415 279.346C292.005 277.388 296.947 279.763 301.666 279.539C302.679 279.496 303.682 279.323 304.651 279.025C305.902 278.431 307.231 278.02 308.599 277.805C311.038 277.677 313.317 278.605 315.756 278.222C316.366 278.122 316.109 277.195 315.499 277.291C312.771 277.74 310.107 276.391 307.411 277.002C306.191 277.259 305.1 277.902 303.911 278.254C302.693 278.548 301.44 278.666 300.188 278.607C295.727 278.414 291.265 276.713 286.9 278.575C286.386 278.736 286.868 279.57 287.414 279.345L287.415 279.346Z" fill="#E8E8E8"/>
<path d="M352.345 243.88C360.433 241.473 368.522 241.537 376.802 242.532C384.602 243.463 392.465 244.682 400.296 243.302C400.906 243.202 400.649 242.275 400.039 242.371C391.887 243.815 383.702 242.339 375.582 241.44C367.59 240.54 359.791 240.64 352.056 242.981C351.937 243.019 351.837 243.103 351.78 243.215C351.723 243.326 351.712 243.456 351.75 243.575C351.789 243.695 351.873 243.794 351.984 243.851C352.096 243.909 352.226 243.919 352.345 243.881V243.88Z" fill="#E8E8E8"/>
<path d="M320.089 60.357C314.119 57.147 310.235 50.921 311.134 44.02C311.459 41.5811 312.352 39.2526 313.742 37.2222C315.131 35.1918 316.979 33.5162 319.134 32.3303C321.29 31.1445 323.694 30.4817 326.153 30.3952C328.612 30.3087 331.057 30.801 333.291 31.8325C335.525 32.8639 337.485 34.4056 339.014 36.3334C340.543 38.2612 341.597 40.5211 342.093 42.9311C342.588 45.3411 342.511 47.8338 341.866 50.2084C341.222 52.5829 340.029 54.773 338.383 56.602C333.248 62.508 324.261 63.402 317.777 59.234C317.264 58.881 316.782 59.715 317.296 60.068C320.208 62.0734 323.678 63.1095 327.213 63.0288C330.747 62.9481 334.167 61.7547 336.984 59.6185C339.801 57.4823 341.873 54.512 342.905 51.1302C343.936 47.7485 343.875 44.1275 342.73 40.7825C341.585 37.4375 339.414 34.5388 336.526 32.4988C333.639 30.4589 330.181 29.3815 326.646 29.4201C323.11 29.4587 319.677 30.6113 316.834 32.7138C313.992 34.8163 311.885 37.7617 310.813 41.1309C308.245 49.1229 312.546 57.3389 319.639 61.1589C319.744 61.2079 319.864 61.2154 319.974 61.1798C320.085 61.1443 320.178 61.0683 320.234 60.9671C320.291 60.866 320.308 60.7471 320.281 60.6343C320.253 60.5215 320.185 60.4232 320.088 60.359L320.089 60.357Z" fill="#E8E8E8"/>
<path d="M43.069 130.551C46.343 127.63 50.933 129.62 53.369 132.573C54.4928 134.111 55.4808 135.743 56.322 137.452C56.5837 138.054 56.9757 138.591 57.4697 139.023C57.9637 139.455 58.5475 139.773 59.179 139.952C59.6638 140.043 60.164 140.001 60.6272 139.832C61.0903 139.662 61.4993 139.371 61.811 138.989C62.26 138.476 62.549 137.801 62.999 137.289C63.1898 137.045 63.4318 136.847 63.7079 136.707C63.9839 136.567 64.2873 136.49 64.5966 136.48C64.9059 136.471 65.2135 136.529 65.4976 136.652C65.7818 136.774 66.0356 136.958 66.241 137.189C68.488 139.147 68.584 143.989 72.532 143.64C73.142 143.576 73.142 142.613 72.532 142.677C68.424 143.062 68.905 136.161 64.957 135.487C64.4238 135.405 63.8782 135.476 63.3838 135.692C62.8895 135.908 62.4667 136.26 62.165 136.707C61.7931 137.372 61.352 137.996 60.849 138.569C59.18 139.949 57.704 138.023 57.03 136.707C55.393 133.69 53.788 130.545 50.547 128.972C49.2558 128.29 47.7908 128.009 46.3389 128.163C44.887 128.318 43.514 128.901 42.395 129.839C41.946 130.256 42.62 130.962 43.069 130.545V130.551Z" fill="#E8E8E8"/>
<path d="M259.107 87.3489C258.465 85.6159 257.695 83.562 258.85 81.861C259.909 80.352 261.707 81.123 263.215 80.641C265.205 79.999 266.425 78.0409 266.97 76.1479C267.612 73.9329 266.842 71.0479 268.158 69.0869C269.758 66.6799 273.229 69.6329 275.412 68.1559C275.925 67.8029 275.444 66.9679 274.931 67.3209C272.716 68.8289 269.699 65.7479 267.613 68.2209C265.944 70.1789 266.713 73.1639 266.169 75.4749C266.021 76.3101 265.699 77.1046 265.223 77.8069C264.748 78.5092 264.13 79.1034 263.409 79.5509C262.093 80.2249 260.584 79.5509 259.269 80.2249C256.445 81.6689 257.343 85.2639 258.21 87.6069C258.371 88.1529 259.301 87.9279 259.11 87.3499L259.107 87.3489Z" fill="#E8E8E8"/>
<path d="M262.574 64.85C262.275 64.0548 262.203 63.192 262.368 62.3584C262.532 61.5249 262.926 60.7539 263.505 60.132C264.981 58.532 266.683 59.169 268.512 58.532C269.019 58.32 269.473 58.0008 269.845 57.5964C270.216 57.1919 270.495 56.7117 270.663 56.189C270.92 55.547 271.08 54.873 271.305 54.231C271.468 53.6894 271.74 53.1871 272.105 52.755C272.683 52.209 274.063 51.76 274.416 52.98C274.452 53.1012 274.534 53.2035 274.645 53.2649C274.755 53.3262 274.886 53.3418 275.008 53.3081C275.13 53.2744 275.233 53.1943 275.297 53.0849C275.36 52.9755 275.378 52.8455 275.347 52.723C275.239 52.4145 275.064 52.1337 274.835 51.9005C274.606 51.6674 274.328 51.4877 274.021 51.3742C273.715 51.2607 273.387 51.2163 273.061 51.2441C272.736 51.2719 272.42 51.3712 272.137 51.535C269.826 52.723 270.661 56.253 268.51 57.441C267.322 58.083 265.846 57.698 264.594 58.211C263.793 58.5751 263.089 59.1233 262.54 59.811C261.946 60.5417 261.55 61.4138 261.392 62.3425C261.235 63.2712 261.32 64.225 261.64 65.111C261.833 65.689 262.763 65.432 262.571 64.854L262.574 64.85Z" fill="#E8E8E8"/>
<path d="M289.598 99.128C289.144 98.4326 288.954 97.5984 289.06 96.7751C289.165 95.9517 289.561 95.193 290.176 94.635C290.508 94.3461 290.901 94.1352 291.326 94.0176C291.75 93.9001 292.196 93.8789 292.63 93.9556C293.064 94.0322 293.475 94.2049 293.833 94.4608C294.192 94.7168 294.488 95.0496 294.702 95.435C296.981 98.869 291.942 101.886 289.535 99.03C289.118 98.549 288.444 99.255 288.861 99.704C289.579 100.476 290.547 100.967 291.594 101.09C292.64 101.214 293.696 100.961 294.574 100.378C295.022 100.071 295.401 99.6732 295.685 99.2106C295.97 98.748 296.155 98.2309 296.228 97.6925C296.3 97.1541 296.259 96.6065 296.107 96.0851C295.955 95.5636 295.695 95.0798 295.344 94.665C295.045 94.2193 294.658 93.8396 294.207 93.5492C293.756 93.2589 293.25 93.0641 292.721 92.9768C292.192 92.8896 291.65 92.9118 291.129 93.042C290.609 93.1722 290.121 93.4077 289.695 93.734C288.847 94.4219 288.284 95.3984 288.112 96.4764C287.94 97.5543 288.172 98.6577 288.764 99.575C289.117 100.121 289.952 99.639 289.598 99.126V99.128Z" fill="#E8E8E8"/>
<path d="M293.225 104.457C292.325 103.205 291.203 101.697 291.588 100.092C292.166 97.717 294.988 98.327 296.274 99.739C297.333 100.927 297.718 102.788 296.374 103.911C295.899 104.367 295.267 104.622 294.609 104.622C293.95 104.622 293.318 104.367 292.843 103.911C292.426 103.462 291.752 104.136 292.169 104.585C292.816 105.212 293.678 105.568 294.579 105.58C295.48 105.592 296.352 105.259 297.015 104.649C297.739 103.961 298.161 103.016 298.191 102.018C298.221 101.02 297.856 100.051 297.175 99.321C295.891 97.721 292.975 96.561 291.366 98.39C289.566 100.444 291.077 103.108 292.393 104.938C292.746 105.452 293.581 104.97 293.227 104.457H293.225Z" fill="#E8E8E8"/>
<path d="M77.378 171.345C80.9401 172.442 84.6305 173.068 88.355 173.207C88.965 173.239 88.965 172.276 88.355 172.244C84.7155 172.121 81.1094 171.505 77.635 170.414C77.5124 170.383 77.3825 170.401 77.2731 170.464C77.1637 170.528 77.0835 170.631 77.0499 170.753C77.0162 170.875 77.0317 171.006 77.0931 171.116C77.1545 171.227 77.2567 171.309 77.378 171.345Z" fill="#E8E8E8"/>
<path d="M318.099 145.668C339.924 145.507 360.466 153.66 381.071 159.694C386.977 161.427 392.947 163 398.981 164.187C399.591 164.315 399.848 163.387 399.238 163.256C377.83 159.019 357.638 149.936 336.105 146.245C330.162 145.187 324.135 144.671 318.099 144.704C317.975 144.71 317.858 144.763 317.772 144.852C317.687 144.942 317.639 145.061 317.639 145.185C317.639 145.309 317.687 145.429 317.772 145.518C317.858 145.608 317.975 145.661 318.099 145.667V145.668Z" fill="#E8E8E8"/>
<path d="M103.537 6.50198C104.66 9.20198 106.037 15.168 110.085 12.502C111.433 11.635 113.423 9.10199 114.867 11.154C115.734 12.374 115.798 13.978 117.435 14.524C118.013 14.717 118.269 13.786 117.692 13.593C116.183 13.079 116.183 10.769 114.964 9.83798C114.581 9.5597 114.124 9.39937 113.651 9.37663C113.178 9.3539 112.708 9.46975 112.3 9.70999C111.016 10.32 110.085 11.7 108.737 12.149C106.33 12.949 105.11 7.78398 104.468 6.24298C104.211 5.69698 103.28 5.92198 103.537 6.49998V6.50198Z" fill="#E8E8E8"/>
<path d="M113.519 7.07697C113.937 6.75146 114.424 6.52571 114.943 6.4169C115.462 6.3081 115.999 6.31911 116.512 6.44912C117.026 6.57912 117.504 6.82467 117.908 7.16707C118.313 7.50948 118.634 7.93971 118.847 8.42498C119.393 9.74098 119.81 10.511 121.347 10.608C122.104 10.5266 122.865 10.4932 123.626 10.508C125.167 10.765 125.167 12.108 125.426 13.365C125.685 14.622 126.261 15.708 127.608 15.865C128.218 15.929 128.218 14.965 127.608 14.902C125.843 14.709 126.581 11.083 125.201 10.056C123.725 8.96497 121.51 10.409 120.355 9.06098C119.809 8.41898 119.649 7.55197 119.071 6.91097C118.606 6.37116 118.009 5.96171 117.338 5.72296C116.64 5.43432 115.88 5.33287 115.131 5.42864C114.382 5.5244 113.671 5.81407 113.069 6.26897C112.523 6.62197 113.005 7.45697 113.518 7.06897L113.519 7.07697Z" fill="#E8E8E8"/>
<path d="M142.402 37.344C143.411 37.5358 144.456 37.3422 145.329 36.8014C146.203 36.2606 146.842 35.412 147.12 34.423C147.331 33.5051 147.182 32.5414 146.704 31.7296C146.227 30.9179 145.457 30.3198 144.552 30.058C140.283 28.614 137.908 34.487 141.375 36.894C141.889 37.247 142.37 36.413 141.856 36.06C139.417 34.36 140.925 30.09 144.038 30.893C144.718 31.028 145.322 31.4126 145.732 31.971C146.142 32.5295 146.328 33.2213 146.253 33.91C146.103 34.7137 145.64 35.4251 144.966 35.8882C144.292 36.3514 143.462 36.5286 142.658 36.381C142.048 36.281 141.791 37.216 142.401 37.344H142.402Z" fill="#E8E8E8"/>
<path d="M145.519 38.98C144.638 38.4328 143.935 37.6409 143.497 36.701C143.398 36.366 143.387 36.0112 143.466 35.6709C143.544 35.3305 143.709 35.0161 143.944 34.7581C144.18 34.5 144.478 34.307 144.809 34.1977C145.141 34.0884 145.495 34.0664 145.838 34.134C146.37 34.3014 146.821 34.6594 147.106 35.1392C147.39 35.619 147.487 36.1869 147.379 36.734C147.19 37.3076 146.789 37.787 146.257 38.0737C145.726 38.3604 145.105 38.4324 144.522 38.275C144.399 38.2437 144.269 38.2617 144.16 38.3252C144.051 38.3887 143.97 38.4925 143.937 38.6144C143.903 38.7364 143.919 38.8666 143.98 38.9772C144.041 39.0879 144.144 39.17 144.265 39.206C145.041 39.4083 145.863 39.329 146.586 38.9822C147.309 38.6354 147.885 38.0437 148.213 37.312C148.482 36.5564 148.457 35.727 148.142 34.9893C147.827 34.2516 147.245 33.6598 146.513 33.332C145.792 33.0634 144.996 33.0793 144.287 33.3765C143.578 33.6737 143.008 34.2299 142.694 34.932C141.794 36.89 143.432 38.527 144.876 39.65C145.293 40.035 145.999 39.361 145.518 38.976L145.519 38.98Z" fill="#E8E8E8"/>
<path d="M81.487 102.37C81.1236 102.096 80.8235 101.748 80.6069 101.348C80.3903 100.948 80.2625 100.506 80.232 100.052C80.2015 99.5987 80.2692 99.1437 80.4304 98.7184C80.5916 98.2931 80.8425 97.9076 81.166 97.588C81.4434 97.2914 81.7803 97.0568 82.1547 96.8995C82.5291 96.7423 82.9325 96.6659 83.3384 96.6753C83.7444 96.6847 84.1437 96.7798 84.5104 96.9543C84.877 97.1288 85.2027 97.3789 85.466 97.688C87.937 100.448 84.375 104.043 81.454 102.149C80.941 101.796 80.459 102.63 80.973 102.984C81.8303 103.517 82.8487 103.729 83.8474 103.582C84.8462 103.436 85.7608 102.941 86.429 102.184C87.0459 101.383 87.3358 100.377 87.2404 99.3707C87.145 98.364 86.6714 97.431 85.915 96.76C85.1776 96.06 84.193 95.6806 83.1766 95.7046C82.1602 95.7285 81.1946 96.154 80.491 96.8879C80.0761 97.2974 79.7526 97.79 79.5418 98.3335C79.331 98.877 79.2377 99.4589 79.268 100.041C79.2984 100.623 79.4516 101.192 79.7177 101.711C79.9839 102.229 80.3568 102.686 80.812 103.05C81.261 103.467 81.935 102.793 81.486 102.376L81.487 102.37Z" fill="#E8E8E8"/>
<path d="M218.313 11.635C220.172 7.58214 222.774 3.9135 225.984 0.818963C226.433 0.401963 225.759 -0.304033 225.31 0.144967C222.039 3.30904 219.384 7.05278 217.479 11.186C217.222 11.7 218.057 12.213 218.313 11.635Z" fill="#E8E8E8"/>
<path d="M222.325 10.993C224.262 8.6115 226.399 6.39949 228.712 4.38097C229.193 3.96397 228.487 3.28997 228.038 3.70697C225.733 5.73387 223.597 7.94518 221.651 10.319C221.266 10.8 221.94 11.474 222.325 10.993Z" fill="#E8E8E8"/>
<path d="M224.763 13.881C225.63 13.143 226.496 12.437 227.363 11.698C227.844 11.313 227.138 10.607 226.689 11.024C225.823 11.762 224.956 12.468 224.089 13.207C223.608 13.592 224.282 14.266 224.763 13.881Z" fill="#E8E8E8"/>
<path d="M163.371 225.909C168.077 237.298 172.796 248.674 177.528 260.037C196.669 253.393 215.822 246.736 234.989 240.066C230.402 229.112 225.814 218.118 221.266 207.166L163.371 225.909Z" fill="white" stroke="#161616" stroke-miterlimit="10"/>
<path d="M157.201 188.261C165.155 194.064 172.414 200.766 178.833 208.232C184.16 214.434 188.9 221.118 192.99 228.198C200.504 216.531 208.004 204.878 215.49 193.239C206.75 183.51 198.01 173.795 189.271 164.093C178.558 172.163 167.868 180.219 157.201 188.261Z" fill="white" stroke="#161616" stroke-miterlimit="10"/>
<path d="M122.559 134.003V166.072C130.745 162.038 138.931 158.017 147.117 154.01C152.535 151.361 157.953 148.724 163.37 146.101C161.828 138.31 160.325 130.559 158.783 122.769C146.722 126.488 134.647 130.233 122.559 134.003Z" fill="white" stroke="#161616" stroke-miterlimit="10"/>
<path d="M98.713 65.826C102.747 75.396 106.768 84.9663 110.775 94.537C125.051 86.351 139.34 78.165 153.643 69.979C147.672 58.5896 141.7 47.2136 135.729 35.851C131.498 40.7562 126.911 45.343 122.006 49.5739C114.836 55.7962 107.028 61.2438 98.713 65.826Z" fill="white" stroke="#161616" stroke-miterlimit="10"/>
<path d="M182.517 85.714C181.252 93.07 180.026 100.425 178.76 107.781C193.313 104.459 207.88 101.124 222.46 97.776C222.183 89.709 221.906 81.676 221.63 73.613C208.618 77.647 195.58 81.6806 182.517 85.714Z" fill="white" stroke="#161616" stroke-miterlimit="10"/>
<path d="M163.805 226.898C177.488 228.915 191.052 231.446 204.498 234.491C205.249 234.649 205.566 233.502 204.814 233.344C191.329 230.299 177.764 227.729 164.121 225.751C163.37 225.672 163.053 226.819 163.805 226.898Z" fill="#161616"/>
<path d="M220.474 207.718C216.091 216.854 210.749 225.497 204.537 233.502C204.062 234.095 204.893 234.926 205.367 234.332C211.658 226.259 217.067 217.535 221.502 208.311C221.818 207.639 220.79 207.045 220.474 207.718Z" fill="#161616"/>
<path d="M167.009 190.634C173.647 183.584 181.063 177.309 189.115 171.929C189.748 171.494 189.155 170.466 188.522 170.901C180.391 176.346 172.896 182.686 166.178 189.801C165.624 190.315 166.494 191.185 167.008 190.632L167.009 190.634Z" fill="#161616"/>
<path d="M172.743 194.193C177.711 188.708 183.208 183.728 189.155 179.324C189.748 178.889 189.155 177.861 188.562 178.296C182.519 182.745 176.942 187.793 171.913 193.363C171.858 193.417 171.815 193.482 171.786 193.553C171.756 193.625 171.741 193.701 171.741 193.778C171.741 193.855 171.756 193.932 171.785 194.003C171.815 194.074 171.858 194.139 171.912 194.193C171.967 194.248 172.032 194.291 172.103 194.321C172.174 194.35 172.251 194.366 172.328 194.366C172.405 194.366 172.481 194.351 172.552 194.321C172.624 194.292 172.688 194.248 172.743 194.194V194.193Z" fill="#161616"/>
<path d="M177.726 200.837C184.175 193.578 191.271 186.92 198.926 180.945C199.519 180.47 198.689 179.645 198.095 180.115C190.44 186.089 183.344 192.747 176.895 200.007C176.381 200.561 177.251 201.391 177.725 200.837H177.726Z" fill="#161616"/>
<path d="M186.189 208.864C188.578 205.314 191.335 202.027 194.415 199.057C197.658 195.775 200.9 192.457 204.143 189.17C204.697 188.616 203.827 187.786 203.313 188.34C199.913 191.82 196.513 195.261 193.113 198.74C190.125 201.619 187.46 204.815 185.164 208.271C184.764 208.904 185.797 209.497 186.192 208.864H186.189Z" fill="#161616"/>
<path d="M175.946 243.27C176.65 246.476 177.837 249.556 179.466 252.405C179.822 253.077 180.85 252.484 180.494 251.812C178.918 249.049 177.772 246.062 177.094 242.954C176.936 242.203 175.789 242.519 175.947 243.27H175.946Z" fill="#161616"/>
<path d="M176.895 243.981C180.805 241.639 185.151 240.119 189.668 239.512C189.431 239.393 189.193 239.235 188.956 239.112C189.747 241.682 190.498 244.212 191.289 246.784C191.526 247.496 192.673 247.219 192.436 246.468C191.645 243.898 190.894 241.368 190.103 238.796C190.086 238.721 190.053 238.651 190.007 238.589C189.961 238.528 189.902 238.477 189.835 238.439C189.768 238.401 189.694 238.378 189.618 238.371C189.541 238.363 189.464 238.372 189.391 238.396C184.773 239.018 180.332 240.58 176.341 242.984C176.274 243.019 176.215 243.068 176.167 243.126C176.118 243.185 176.083 243.252 176.061 243.325C176.04 243.397 176.033 243.474 176.041 243.549C176.05 243.624 176.073 243.697 176.11 243.763C176.147 243.829 176.197 243.887 176.257 243.934C176.316 243.98 176.385 244.014 176.458 244.034C176.531 244.053 176.608 244.058 176.683 244.048C176.758 244.037 176.83 244.012 176.895 243.973V243.981Z" fill="#161616"/>
<path d="M180.215 252.879C183.972 251.337 187.65 249.597 191.288 247.738C191.96 247.382 191.367 246.354 190.695 246.71C187.175 248.529 183.577 250.19 179.895 251.732C179.183 252.048 179.495 253.195 180.211 252.879H180.215Z" fill="#161616"/>
<path d="M210.47 235.044C214.805 232.734 219.454 231.069 224.27 230.101C225.021 229.943 224.705 228.796 223.954 228.954C219.037 229.937 214.293 231.643 209.876 234.016C209.164 234.372 209.797 235.4 210.469 235.044H210.47Z" fill="#161616"/>
<path d="M211.893 238.444C214.543 237.297 217.193 236.15 219.802 235.003C220.514 234.687 219.881 233.658 219.209 233.975C216.559 235.122 213.909 236.269 211.3 237.416C210.588 237.732 211.221 238.721 211.893 238.444Z" fill="#161616"/>
<path d="M126.116 138.156C135.528 135.032 144.94 131.235 154.708 129.337C155.459 129.179 155.143 128.032 154.392 128.19C144.664 130.128 135.212 133.885 125.8 137.009C125.088 137.246 125.4 138.393 126.116 138.156Z" fill="#161616"/>
<path d="M125.96 143.258C134.959 139.11 144.301 135.749 153.88 133.213C154.014 133.156 154.123 133.053 154.186 132.922C154.25 132.791 154.264 132.641 154.225 132.501C154.186 132.361 154.098 132.239 153.976 132.159C153.855 132.079 153.708 132.046 153.564 132.066C143.889 134.635 134.454 138.035 125.364 142.229C124.692 142.545 125.285 143.574 125.957 143.257L125.96 143.258Z" fill="#161616"/>
<path d="M125.248 148.398C129.203 146.777 133.078 145.037 136.914 143.178C137.586 142.862 136.993 141.833 136.321 142.15C132.564 143.969 128.768 145.669 124.932 147.25C124.26 147.527 124.532 148.674 125.248 148.397V148.398Z" fill="#161616"/>
<path d="M127.423 152.669C135.767 148.438 144.309 144.562 153.009 141.122C153.721 140.845 153.409 139.698 152.693 139.975C143.874 143.455 135.253 147.375 126.83 151.641C126.118 151.997 126.751 153.025 127.423 152.669Z" fill="#161616"/>
<path d="M103.733 68.2779C114.938 62.8152 125.408 55.9589 134.895 47.8719C135.488 47.3579 134.618 46.5269 134.065 47.0419C124.642 55.0536 114.253 61.8554 103.142 67.2889C102.43 67.6049 103.023 68.6339 103.735 68.2779H103.733Z" fill="#161616"/>
<path d="M106.147 73.419C110.846 70.6901 115.376 67.6789 119.711 64.402C120.304 63.967 119.711 62.9019 119.118 63.3739C114.783 66.6509 110.253 69.6621 105.554 72.3909C105.425 72.4733 105.333 72.6021 105.297 72.7506C105.261 72.8991 105.283 73.0559 105.359 73.1883C105.436 73.3207 105.56 73.4186 105.707 73.4615C105.854 73.5045 106.011 73.4892 106.147 73.419Z" fill="#161616"/>
<path d="M109.153 77.018C119.263 71.611 129.024 65.5748 138.378 58.9449C139.011 58.5099 138.418 57.4819 137.785 57.9169C128.437 64.5555 118.675 70.592 108.56 75.9899C107.888 76.3459 108.481 77.374 109.153 77.018Z" fill="#161616"/>
<path d="M111.682 83.148C122.88 78.0937 133.567 71.9756 143.596 64.878C144.229 64.443 143.636 63.415 143.003 63.85C132.985 70.9642 122.296 77.0832 111.089 82.12C110.377 82.436 110.97 83.425 111.682 83.148Z" fill="#161616"/>
<path opacity="0.13" d="M166.693 181.696L179.387 178.849C185.398 191.504 191.409 204.145 197.42 216.774C203.431 208.983 209.442 201.232 215.453 193.442C206.594 183.909 197.749 174.365 188.918 164.811C181.483 170.466 174.075 176.094 166.693 181.696Z" fill="#0CF2B4"/>
<path opacity="0.21" d="M135.61 131.24C133.395 141.403 131.181 151.606 128.966 161.77C140.276 156.352 151.599 150.921 162.936 145.477C161.275 138.277 159.654 131.043 157.993 123.845C150.519 126.333 143.058 128.798 135.61 131.24Z" fill="#966BE8"/>
<path opacity="0.08" d="M186.624 219.071L193.268 235.206C196.946 236.036 200.584 236.867 204.262 237.658C208.256 240.426 212.211 243.234 216.205 246.002C222.255 243.902 228.346 241.81 234.396 239.754C229.769 229.274 225.182 218.754 220.555 208.275C214.504 210.094 208.414 211.953 202.364 213.775L192.873 228.961C190.776 225.632 188.724 222.349 186.624 219.071Z" fill="#966BE8"/>
<path opacity="0.15" d="M185.023 87.4219C183.123 94.0219 181.266 100.67 179.368 107.274L217.214 98.4949C216.779 90.9019 216.384 83.3089 215.949 75.7159C205.628 79.6313 195.32 83.5333 185.023 87.4219Z" fill="#0CF2B4"/>
<path opacity="0.11" d="M116.627 56.2169C118.09 77.5719 119.197 88.2099 119.988 88.2099C120.225 88.2099 120.423 87.1419 120.621 85.0859C130.982 79.8659 141.383 74.6459 151.744 69.4259C146.524 59.6579 141.304 49.9259 136.084 40.1619C129.559 45.4999 123.073 50.8779 116.627 56.2169Z" fill="#966BE8"/>
</svg>
